{
copyright = "Copyright (c) 2012 by The League of Moveable Type";
customParameters = (
{
name = glyphOrder;
value = (
    ".notdef",
    NULL,
    CR,
    space,
    Acircumflex,
    Adieresis,
    Agrave,
    Amacron,
    Aogonek,
    Aring,
    Atilde,
    AE,
    B,
    C,
    Cacute,
    Ccaron,
    Ccedilla,
    Ccircumflex,
    Cdotaccent,
    D,
    Eth,
    Dcaron,
    Dcroat,
    E,
    Eacute,
    Ebreve,
    Ecaron,
    Ecircumflex,
    Edieresis,
    Edotaccent,
    Egrave,
    Emacron,
    Eogonek,
    F,
    G,
    Gbreve,
    Gcircumflex,
    Gcommaaccent,
    Gdotaccent,
    H,
    Hbar,
    Hcircumflex,
    I,
    IJ,
    Iacute,
    Ibreve,
    Icircumflex,
    Idieresis,
    Idotaccent,
    Igrave,
    Imacron,
    Iogonek,
    Itilde,
    J,
    Jcircumflex,
    K,
    Kcommaaccent,
    L,
    Lacute,
    Lcaron,
    Lcommaaccent,
    Ldot,
    Lslash,
    M,
    N,
    Nacute,
    Ncaron,
    Ncommaaccent,
    Eng,
    Ntilde,
    O,
    Oacute,
    Obreve,
    Ocircumflex,
    Odieresis,
    Ograve,
    Ohungarumlaut,
    Omacron,
    Oslash,
    Otilde,
    OE,
    P,
    Thorn,
    Q,
    R,
    Racute,
    Rcaron,
    Rcommaaccent,
    S,
    Sacute,
    Scaron,
    Scedilla,
    Scircumflex,
    T,
    Tbar,
    Tcaron,
    uni021A,
    U,
    Uacute,
    Ubreve,
    Ucircumflex,
    Udieresis,
    Ugrave,
    Uhungarumlaut,
    Umacron,
    Uogonek,
    Uring,
    Utilde,
    V,
    W,
    Wcircumflex,
    X,
    Y,
    Yacute,
    Ycircumflex,
    Ydieresis,
    Z,
    Zacute,
    Zcaron,
    Zdotaccent,
    a,
    aacute,
    abreve,
    acircumflex,
    adieresis,
    agrave,
    amacron,
    aogonek,
    aring,
    atilde,
    ae,
    b,
    c,
    cacute,
    ccaron,
    ccedilla,
    ccircumflex,
    cdotaccent,
    d,
    eth,
    dcaron,
    dcroat,
    e,
    eacute,
    ebreve,
    ecaron,
    ecircumflex,
    edieresis,
    edotaccent,
    egrave,
    emacron,
    eogonek,
    f,
    g,
    gbreve,
    gcircumflex,

glyphs = (
{
glyphname = uni0093;
layers = (
{
layerId = "38BA14EB-08C8-4487-88C1-8F957131FCA1";
name = "Regular Condensed";
paths = (
{
closed = 1;
nodes = (
"46 494 LINE",
"127 494 LINE",
"151 605 LINE",
"130 605 LINE",
"178 735 LINE",
"130 735 LINE",
"70 605 LINE"
);
},
{
closed = 1;
nodes = (
"154 494 LINE",
"235 494 LINE",
"259 605 LINE",
"238 605 LINE",
"286 735 LINE",
"238 735 LINE",
"178 605 LINE"
);
}
);
width = 232;
}
);
leftKerningGroup = quotesingle;
unicode = 0093;
},
{
glyphname = uni0094;
layers = (
{
layerId = "38BA14EB-08C8-4487-88C1-8F957131FCA1";
name = "Regular Condensed";
paths = (
{
closed = 1;
nodes = (
"178 735 LINE",
"97 735 LINE",
"74 624 LINE",
"95 624 LINE",
"46 494 LINE",
"94 494 LINE",
"155 624 LINE"
);
},
{
closed = 1;
nodes = (
"286 735 LINE",
"205 735 LINE",
"182 624 LINE",
"203 624 LINE",
"154 494 LINE",
"202 494 LINE",
"263 624 LINE"
);
}
);
width = 228;
}
);
leftKerningGroup = quotesingle;
unicode = 0094;
},
{
glyphname = Acircumflex;
lastChange = "2012-08-26 17:30:05 +0000";
layers = (
{
layerId = "38BA14EB-08C8-4487-88C1-8F957131FCA1";
name = "Regular Condensed";
paths = (
{
closed = 1;
nodes = (
"214 890 LINE",
"153 800 LINE",
"218 800 LINE",
"244 839 LINE",
"252 800 LINE",
"317 800 LINE",
"295 890 LINE"
);
},
{
closed = 1;
nodes = (
"30 0 LINE",
"73 150 LINE",
"119 150 LINE",
"98 0 LINE",
"179 0 LINE",
"269 735 LINE",
"172 735 LINE",
"-50 0 LINE"
);
},
{
closed = 1;
nodes = (
"136 264 LINE",
"105 264 LINE",
"182 556 LINE"
);
}
);
width = 254;
}
);
leftKerningGroup = NULL;
unicode = 00C2;
},
{
glyphname = Adieresis;
lastChange = "2012-08-26 17:30:05 +0000";
layers = (
{
layerId = "38BA14EB-08C8-4487-88C1-8F957131FCA1";
name = "Regular Condensed";
paths = (
{
closed = 1;
nodes = (
"150 800 LINE",
"224 800 LINE",
"245 898 LINE",
"171 898 LINE"
);
},
{
closed = 1;
nodes = (
"247 800 LINE",
"320 800 LINE",
"341 898 LINE",
"268 898 LINE"
);
},
{
closed = 1;
nodes = (
"30 0 LINE",
"74 150 LINE",
"118 150 LINE",
"98 0 LINE",
"179 0 LINE",
"269 735 LINE",
"172 735 LINE",
"-50 0 LINE"
);
},
{
closed = 1;
nodes = (
"135 264 LINE",
"106 264 LINE",
"176 526 LINE"
);
}
);
width = 254;
}
);
leftKerningGroup = NULL;
unicode = 00C4;
},
{
glyphname = Agrave;
lastChange = "2012-08-26 17:30:05 +0000";
layers = (
{
layerId = "38BA14EB-08C8-4487-88C1-8F957131FCA1";
name = "Regular Condensed";
paths = (
{
closed = 1;
nodes = (
"174 890 LINE",
"203 800 LINE",
"267 800 LINE",
"254 890 LINE"
);
},
{
closed = 1;
nodes = (
"30 0 LINE",
"73 150 LINE",
"119 150 LINE",
"98 0 LINE",
"179 0 LINE",
"269 735 LINE",
"172 735 LINE",
"-50 0 LINE"
);
},
{
closed = 1;
nodes = (
"136 264 LINE",
"105 264 LINE",
"182 556 LINE"
);
}
);
width = 254;
}
);
leftKerningGroup = NULL;
unicode = 00C0;
},
{
glyphname = Amacron;
lastChange = "2012-08-26 17:30:05 +0000";
layers = (
{
layerId = "38BA14EB-08C8-4487-88C1-8F957131FCA1";
name = "Regular Condensed";
paths = (
{
closed = 1;
nodes = (
"174 830 LINE",
"308 830 LINE",
"324 909 LINE",
"190 909 LINE"
);
},
{
closed = 1;
nodes = (
"29 0 LINE",
"72 150 LINE",
"118 150 LINE",
"97 0 LINE",
"178 0 LINE",
"268 735 LINE",
"171 735 LINE",
"-51 0 LINE"
);
},
{
closed = 1;
nodes = (
"135 264 LINE",
"104 264 LINE",
"181 556 LINE"
);
}
);
width = 254;
}
);
unicode = 0100;
},
{
glyphname = Aogonek;
lastChange = "2012-08-26 17:30:05 +0000";
layers = (
{
layerId = "38BA14EB-08C8-4487-88C1-8F957131FCA1";
name = "Regular Condensed";
paths = (
{
closed = 1;
nodes = (
"197 0 LINE",
"288 735 LINE",
"191 735 LINE",
"-32 0 LINE",
"48 0 LINE",
"91 150 LINE",
"137 150 LINE",
"116 0 LINE",
"124 0 LINE",
"114 -11 OFFCURVE",
"106 -21 OFFCURVE",
"101 -28 CURVE",
"100 -29 OFFCURVE",
"99 -30 OFFCURVE",
"98 -31 CURVE",
"84 -50 OFFCURVE",
"67 -79 OFFCURVE",
"62 -103 CURVE SMOOTH",
"52 -148 OFFCURVE",
"69 -188 OFFCURVE",
"114 -188 CURVE SMOOTH",
"127 -188 OFFCURVE",
"138 -185 OFFCURVE",
"156 -176 CURVE",
"176 -101 LINE",
"159 -112 OFFCURVE",
"143 -121 OFFCURVE",
"138 -121 CURVE SMOOTH",
"128 -121 OFFCURVE",
"119 -112 OFFCURVE",
"125 -83 CURVE",
"127 -71 OFFCURVE",
"131 -60 OFFCURVE",
"136 -50 CURVE SMOOTH",
"146 -30 OFFCURVE",
"158 -13 OFFCURVE",
"168 0 CURVE"
);
},
{
closed = 1;
nodes = (
"155 264 LINE",
"124 264 LINE",
"201 556 LINE"
);
}
);
width = 254;
}
);
unicode = 0104;
},
{
glyphname = Aring;
lastChange = "2012-08-26 17:30:05 +0000";
layers = (
{
layerId = "38BA14EB-08C8-4487-88C1-8F957131FCA1";
name = "Regular Condensed";
paths = (
{
closed = 1;
nodes = (
"183 819 OFFCURVE",
"201 790 OFFCURVE",
"231 790 CURVE SMOOTH",
"260 790 OFFCURVE",
"290 819 OFFCURVE",
"299 860 CURVE SMOOTH",
"308 901 OFFCURVE",
"290 930 OFFCURVE",
"261 930 CURVE SMOOTH",
"231 930 OFFCURVE",
"201 901 OFFCURVE",
"192 860 CURVE SMOOTH"
);
},
{
closed = 1;
nodes = (
"235 879 OFFCURVE",
"245 891 OFFCURVE",
"252 891 CURVE SMOOTH",
"258 891 OFFCURVE",
"265 879 OFFCURVE",
"261 860 CURVE SMOOTH",
"257 841 OFFCURVE",
"245 828 OFFCURVE",
"239 828 CURVE SMOOTH",
"232 828 OFFCURVE",
"227 841 OFFCURVE",
"231 860 CURVE SMOOTH"
);
},
{
closed = 1;
nodes = (
"28 0 LINE",
"72 150 LINE",
"116 150 LINE",
"96 0 LINE",
"177 0 LINE",
"267 735 LINE",
"170 735 LINE",
"-52 0 LINE"
);
},
{
closed = 1;
nodes = (
"133 264 LINE",
"104 264 LINE",
"174 526 LINE"
);
}
);
width = 254;
}
);
leftKerningGroup = NULL;
unicode = 00C5;
},
{
glyphname = Atilde;
lastChange = "2012-08-26 17:30:05 +0000";
layers = (
{
layerId = "38BA14EB-08C8-4487-88C1-8F957131FCA1";
name = "Regular Condensed";
paths = (
{
closed = 1;
nodes = (
"30 0 LINE",
"72 150 LINE",
"118 150 LINE",
"98 0 LINE",
"179 0 LINE",
"269 735 LINE",
"172 735 LINE",
"-50 0 LINE"
);
},
{
closed = 1;
nodes = (
"136 264 LINE",
"105 264 LINE",
"182 556 LINE"
);
},
{
closed = 1;
nodes = (
"164 783 LINE",
"170 790 OFFCURVE",
"198 813 OFFCURVE",
"210 813 CURVE SMOOTH",
"230 813 OFFCURVE",
"237 794 OFFCURVE",
"260 794 CURVE SMOOTH",
"278 794 OFFCURVE",
"295 806 OFFCURVE",
"306 819 CURVE",
"323 902 LINE",
"315 892 OFFCURVE",
"290 873 OFFCURVE",
"277 873 CURVE SMOOTH",
"258 873 OFFCURVE",
"251 890 OFFCURVE",
"228 890 CURVE SMOOTH",
"213 890 OFFCURVE",
"194 882 OFFCURVE",
"182 869 CURVE"
);
}
);
width = 254;
}
);
leftKerningGroup = NULL;
unicode = 00C3;
},
{
glyphname = AE;
lastChange = "2012-08-26 17:30:05 +0000";
layers = (
{
anchors = (
{
name = top;
position = "{176, 735}";
}
);
layerId = "38BA14EB-08C8-4487-88C1-8F957131FCA1";
name = "Regular Condensed";
paths = (
{
closed = 1;
nodes = (
"113 0 LINE",
"279 0 LINE",
"303 111 LINE",
"220 111 LINE",
"263 313 LINE",
"323 313 LINE",
"348 431 LINE",
"288 431 LINE",
"329 624 LINE",
"412 624 LINE",
"436 735 LINE",
"236 735 LINE",
"-43 0 LINE",
"38 0 LINE",
"96 150 LINE",
"145 150 LINE"
);
},
{
closed = 1;
nodes = (
"228 538 LINE",
"217 485 OFFCURVE",
"179 309 OFFCURVE",
"170 264 CURVE",
"138 264 LINE"
);
}
);
width = 352;
}
);
unicode = 00C6;
},
{
glyphname = B;
lastChange = "2012-08-26 17:30:05 +0000";
layers = (
{
layerId = "38BA14EB-08C8-4487-88C1-8F957131FCA1";
name = "Regular Condensed";
paths = (
{
closed = 1;
nodes = (
"84 0 LINE SMOOTH",
"127 0 OFFCURVE",
"157 39 OFFCURVE",
"171 63 CURVE SMOOTH",
"185 87 OFFCURVE",
"206 153 OFFCURVE",
"218 208 CURVE SMOOTH",
"225 244 OFFCURVE",
"234 293 OFFCURVE",
"234 316 CURVE",
"233 357 OFFCURVE",
"222 372 OFFCURVE",
"208 388 CURVE",
"230 402 OFFCURVE",
"243 423 OFFCURVE",
"255 445 CURVE",
"266 469 OFFCURVE",
"276 505 OFFCURVE",
"283 540 CURVE SMOOTH",
"298 611 OFFCURVE",
"296 660 OFFCURVE",
"282 692 CURVE",
"268 721 OFFCURVE",
"247 735 OFFCURVE",
"205 735 CURVE SMOOTH",
"132 735 LINE",
"-24 0 LINE"
);
},
{
closed = 1;
nodes = (
"192 628 LINE",
"198 628 OFFCURVE",
"206 628 OFFCURVE",
"211 622 CURVE",
"216 611 OFFCURVE",
"213 583 OFFCURVE",
"202 530 CURVE SMOOTH",
"191 477 OFFCURVE",
"182 449 OFFCURVE",
"172 438 CURVE",
"166 432 OFFCURVE",
"155 432 OFFCURVE",
"150 432 CURVE"
);
},
{
closed = 1;
nodes = (
"129 333 LINE",
"134 333 OFFCURVE",
"143 334 OFFCURVE",
"148 328 CURVE SMOOTH",
"156 318 OFFCURVE",
"149 282 OFFCURVE",
"136 220 CURVE SMOOTH",
"123 157 OFFCURVE",
"113 123 OFFCURVE",
"102 112 CURVE SMOOTH",
"96 106 OFFCURVE",
"85 107 OFFCURVE",
"81 107 CURVE"
);
}
);
width = 248;
}
);
unicode = 0042;
},
{
glyphname = C;
lastChange = "2012-08-26 17:30:05 +0000";
layers = (
{
anchors = (
{
name = bottom;
position = "{119, 0}";
},
{
name = top;
position = "{119, 735}";
}
);
layerId = "38BA14EB-08C8-4487-88C1-8F957131FCA1";
name = "Regular Condensed";
paths = (
{
closed = 1;
nodes = (
"139 252 LINE",
"115 141 LINE SMOOTH",
"112 127 OFFCURVE",
"105 97 OFFCURVE",
"89 97 CURVE SMOOTH",
"77 97 OFFCURVE",
"81 127 OFFCURVE",
"84 141 CURVE SMOOTH",
"182 598 LINE SMOOTH",
"185 614 OFFCURVE",
"191 638 OFFCURVE",
"204 638 CURVE SMOOTH",
"220 638 OFFCURVE",
"215 607 OFFCURVE",
"212 594 CURVE SMOOTH",
"188 483 LINE",
"269 483 LINE",
"293 594 LINE SMOOTH",
"304 646 OFFCURVE",
"305 743 OFFCURVE",
"225 743 CURVE SMOOTH",
"150 743 OFFCURVE",
"110 659 OFFCURVE",
"96 594 CURVE SMOOTH",
"0 141 LINE SMOOTH",
"-13 76 OFFCURVE",
"-11 -8 OFFCURVE",
"66 -8 CURVE SMOOTH",
"142 -8 OFFCURVE",
"180 64 OFFCURVE",
"196 141 CURVE SMOOTH",
"220 252 LINE"
);
}
);
width = 238;
}
);
unicode = 0043;
},
{
glyphname = Cacute;
lastChange = "2012-08-26 17:30:05 +0000";
layers = (
{
layerId = "38BA14EB-08C8-4487-88C1-8F957131FCA1";
name = "Regular Condensed";
paths = (
{
closed = 1;
nodes = (
"226 915 LINE",
"176 825 LINE",
"239 825 LINE",
"306 915 LINE"
);
},
{
closed = 1;
nodes = (
"130 252 LINE",
"106 141 LINE SMOOTH",
"103 127 OFFCURVE",
"96 97 OFFCURVE",
"80 97 CURVE SMOOTH",
"68 97 OFFCURVE",
"72 127 OFFCURVE",
"75 141 CURVE SMOOTH",
"172 598 LINE",
"176 614 OFFCURVE",
"182 638 OFFCURVE",
"195 638 CURVE SMOOTH",
"211 638 OFFCURVE",
"205 607 OFFCURVE",
"203 594 CURVE",
"179 483 LINE",
"260 483 LINE",
"284 594 LINE SMOOTH",
"295 646 OFFCURVE",
"296 743 OFFCURVE",
"216 743 CURVE SMOOTH",
"141 743 OFFCURVE",
"100 659 OFFCURVE",
"87 594 CURVE SMOOTH",
"-9 141 LINE SMOOTH",
"-22 76 OFFCURVE",
"-20 -8 OFFCURVE",
"57 -8 CURVE SMOOTH",
"133 -8 OFFCURVE",
"171 64 OFFCURVE",
"187 141 CURVE SMOOTH",
"211 252 LINE"
);
}
);
width = 238;
}
);
unicode = 0106;
},
{
glyphname = Ccaron;
lastChange = "2012-08-26 17:30:05 +0000";
layers = (
{
layerId = "38BA14EB-08C8-4487-88C1-8F957131FCA1";
name = "Regular Condensed";
paths = (
{
closed = 1;
nodes = (
"130 252 LINE",
"106 141 LINE SMOOTH",
"103 127 OFFCURVE",
"96 97 OFFCURVE",
"80 97 CURVE SMOOTH",
"68 97 OFFCURVE",
"72 127 OFFCURVE",
"75 141 CURVE SMOOTH",
"172 598 LINE",
"176 614 OFFCURVE",
"182 638 OFFCURVE",
"195 638 CURVE SMOOTH",
"211 638 OFFCURVE",
"205 607 OFFCURVE",
"203 594 CURVE",
"179 483 LINE",
"260 483 LINE",
"284 594 LINE SMOOTH",
"295 646 OFFCURVE",
"296 743 OFFCURVE",
"216 743 CURVE SMOOTH",
"141 743 OFFCURVE",
"100 659 OFFCURVE",
"87 594 CURVE SMOOTH",
"-9 141 LINE SMOOTH",
"-22 76 OFFCURVE",
"-20 -8 OFFCURVE",
"57 -8 CURVE SMOOTH",
"133 -8 OFFCURVE",
"171 64 OFFCURVE",
"187 141 CURVE SMOOTH",
"211 252 LINE"
);
},
{
closed = 1;
nodes = (
"274 825 LINE",
"334 915 LINE",
"269 915 LINE",
"244 876 LINE",
"235 915 LINE",
"170 915 LINE",
"193 825 LINE"
);
}
);
width = 238;
}
);
unicode = 010C;
},
{
glyphname = Ccedilla;
lastChange = "2012-08-26 17:30:05 +0000";
layers = (
{
layerId = "38BA14EB-08C8-4487-88C1-8F957131FCA1";
name = "Regular Condensed";
paths = (
{
closed = 1;
nodes = (
"97 -54 LINE",
"29 -54 LINE",
"14 -123 LINE",
"32 -123 LINE",
"6 -188 LINE",
"55 -188 LINE",
"82 -123 LINE"
);
},
{
closed = 1;
nodes = (
"149 252 LINE",
"125 141 LINE SMOOTH",
"122 127 OFFCURVE",
"115 97 OFFCURVE",
"99 97 CURVE SMOOTH",
"87 97 OFFCURVE",
"91 127 OFFCURVE",
"94 141 CURVE SMOOTH",
"191 598 LINE",
"195 614 OFFCURVE",
"201 638 OFFCURVE",
"214 638 CURVE SMOOTH",
"230 638 OFFCURVE",
"224 607 OFFCURVE",
"221 594 CURVE SMOOTH",
"198 483 LINE",
"279 483 LINE",
"302 594 LINE SMOOTH",
"313 646 OFFCURVE",
"315 743 OFFCURVE",
"235 743 CURVE SMOOTH",
"160 743 OFFCURVE",
"119 659 OFFCURVE",
"105 594 CURVE SMOOTH",
"9 141 LINE SMOOTH",
"-4 76 OFFCURVE",
"-2 -8 OFFCURVE",
"75 -8 CURVE SMOOTH",
"151 -8 OFFCURVE",
"190 64 OFFCURVE",
"206 141 CURVE SMOOTH",
"230 252 LINE"
);
}
);
width = 238;
}
);
unicode = 00C7;
},
{
glyphname = Ccircumflex;
lastChange = "2012-08-26 17:30:05 +0000";
layers = (
{
layerId = "38BA14EB-08C8-4487-88C1-8F957131FCA1";
name = "Regular Condensed";
paths = (
{
closed = 1;
nodes = (
"131 252 LINE",
"108 141 LINE SMOOTH",
"105 127 OFFCURVE",
"97 97 OFFCURVE",
"81 97 CURVE SMOOTH",
"69 97 OFFCURVE",
"74 127 OFFCURVE",
"77 141 CURVE SMOOTH",
"174 598 LINE SMOOTH",
"177 614 OFFCURVE",
"183 638 OFFCURVE",
"196 638 CURVE SMOOTH",
"212 638 OFFCURVE",
"207 607 OFFCURVE",
"204 594 CURVE SMOOTH",
"180 483 LINE",
"261 483 LINE",
"285 594 LINE SMOOTH",
"296 646 OFFCURVE",
"298 743 OFFCURVE",
"218 743 CURVE SMOOTH",
"143 743 OFFCURVE",
"102 659 OFFCURVE",
"88 594 CURVE SMOOTH",
"-7 141 LINE SMOOTH",
"-21 76 OFFCURVE",
"-19 -8 OFFCURVE",
"58 -8 CURVE SMOOTH",
"134 -8 OFFCURVE",
"172 64 OFFCURVE",
"189 141 CURVE SMOOTH",
"212 252 LINE"
);
},
{
closed = 1;
nodes = (
"206 890 LINE",
"145 800 LINE",
"210 800 LINE",
"235 839 LINE",
"244 800 LINE",
"309 800 LINE",
"287 890 LINE"
);
}
);
width = 238;
}
);
unicode = 0108;
},
{
glyphname = Cdotaccent;
lastChange = "2012-08-26 17:30:05 +0000";
layers = (
{
layerId = "38BA14EB-08C8-4487-88C1-8F957131FCA1";
name = "Regular Condensed";
paths = (
{
closed = 1;
nodes = (
"191 822 LINE",
"270 822 LINE",
"291 923 LINE",
"212 923 LINE"
);
},
{
closed = 1;
nodes = (
"129 252 LINE",
"106 141 LINE SMOOTH",
"103 127 OFFCURVE",
"96 97 OFFCURVE",
"80 97 CURVE SMOOTH",
"68 97 OFFCURVE",
"72 127 OFFCURVE",
"75 141 CURVE SMOOTH",
"172 598 LINE SMOOTH",
"175 614 OFFCURVE",
"182 638 OFFCURVE",
"195 638 CURVE SMOOTH",
"211 638 OFFCURVE",
"205 607 OFFCURVE",
"202 594 CURVE SMOOTH",
"179 483 LINE",
"260 483 LINE",
"283 594 LINE SMOOTH",
"294 646 OFFCURVE",
"296 743 OFFCURVE",
"216 743 CURVE SMOOTH",
"141 743 OFFCURVE",
"100 659 OFFCURVE",
"86 594 CURVE SMOOTH",
"-9 141 LINE SMOOTH",
"-23 76 OFFCURVE",
"-21 -8 OFFCURVE",
"56 -8 CURVE SMOOTH",
"132 -8 OFFCURVE",
"171 64 OFFCURVE",
"187 141 CURVE SMOOTH",
"210 252 LINE"
);
}
);
width = 238;
}
);
unicode = 010A;
},
{
glyphname = D;
lastChange = "2012-08-26 17:30:05 +0000";
layers = (
{
anchors = (
{
name = center;
position = "{127, 368}";
},
{
name = top;
position = "{127, 735}";
}
);
layerId = "38BA14EB-08C8-4487-88C1-8F957131FCA1";
name = "Regular Condensed";
paths = (
{
closed = 1;
nodes = (
"55 0 LINE SMOOTH",
"121 0 OFFCURVE",
"151 26 OFFCURVE",
"172 65 CURVE SMOOTH",
"197 109 OFFCURVE",
"221 223 OFFCURVE",
"252 367 CURVE SMOOTH",
"282 511 OFFCURVE",
"300 603 OFFCURVE",
"295 659 CURVE",
"288 715 OFFCURVE",
"267 735 OFFCURVE",
"201 735 CURVE SMOOTH",
"132 735 LINE",
"-24 0 LINE"
);
},
{
closed = 1;
nodes = (
"192 627 LINE",
"204 626 OFFCURVE",
"219 629 OFFCURVE",
"217 603 CURVE SMOOTH",
"212 558 OFFCURVE",
"195 487 OFFCURVE",
"163 336 CURVE SMOOTH",
"144 248 OFFCURVE",
"125 156 OFFCURVE",
"117 132 CURVE",
"106 104 OFFCURVE",
"94 108 OFFCURVE",
"81 108 CURVE"
);
}
);
width = 253;
}
);
unicode = 0044;
},
{
glyphname = Eth;
lastChange = "2012-08-26 17:30:05 +0000";
layers = (
{
layerId = "38BA14EB-08C8-4487-88C1-8F957131FCA1";
name = "Regular Condensed";
paths = (
{
closed = 1;
nodes = (
"26 320 LINE",
"44 320 LINE",
"-24 0 LINE",
"35 0 LINE SMOOTH",
"169 0 OFFCURVE",
"188 66 OFFCURVE",
"252 367 CURVE SMOOTH",
"317 673 OFFCURVE",
"328 735 OFFCURVE",
"192 735 CURVE SMOOTH",
"132 735 LINE",
"67 431 LINE",
"49 431 LINE"
);
},
{
closed = 1;
nodes = (
"192 627 LINE",
"203 626 OFFCURVE",
"219 623 OFFCURVE",
"218 593 CURVE SMOOTH",
"217 575 OFFCURVE",
"213 544 OFFCURVE",
"206 510 CURVE SMOOTH",
"199 475 OFFCURVE",
"189 428 OFFCURVE",
"177 368 CURVE SMOOTH",
"164 308 OFFCURVE",
"154 261 OFFCURVE",
"146 226 CURVE SMOOTH",
"138 191 OFFCURVE",
"129 160 OFFCURVE",
"122 143 CURVE",
"112 114 OFFCURVE",
"92 110 OFFCURVE",
"81 108 CURVE",
"127 320 LINE",
"142 320 LINE",
"165 431 LINE",
"150 431 LINE"
);
}
);
width = 253;
}
);
unicode = 00D0;
},
{
glyphname = Dcaron;
lastChange = "2012-08-26 17:30:05 +0000";
layers = (
{
layerId = "38BA14EB-08C8-4487-88C1-8F957131FCA1";
name = "Regular Condensed";
paths = (
{
closed = 1;
nodes = (
"46 0 LINE SMOOTH",
"112 0 OFFCURVE",
"141 26 OFFCURVE",
"163 65 CURVE SMOOTH",
"187 109 OFFCURVE",
"211 223 OFFCURVE",
"242 367 CURVE SMOOTH",
"273 511 OFFCURVE",
"290 603 OFFCURVE",
"285 659 CURVE SMOOTH",
"279 715 OFFCURVE",
"257 735 OFFCURVE",
"191 735 CURVE SMOOTH",
"122 735 LINE",
"-33 0 LINE"
);
},
{
closed = 1;
nodes = (
"182 627 LINE",
"194 626 OFFCURVE",
"210 629 OFFCURVE",
"207 603 CURVE SMOOTH",
"203 558 OFFCURVE",
"185 487 OFFCURVE",
"153 336 CURVE SMOOTH",
"135 248 OFFCURVE",
"115 156 OFFCURVE",
"107 132 CURVE",
"96 104 OFFCURVE",
"85 108 OFFCURVE",
"72 108 CURVE"
);
},
{
closed = 1;
nodes = (
"276 825 LINE",
"336 915 LINE",
"271 915 LINE",
"246 876 LINE",
"237 915 LINE",
"172 915 LINE",
"195 825 LINE"
);
}
);
width = 253;
}
);
unicode = 010E;
},
{
glyphname = Dcroat;
lastChange = "2012-08-26 17:30:05 +0000";
layers = (
{
layerId = "38BA14EB-08C8-4487-88C1-8F957131FCA1";
name = "Regular Condensed";
paths = (
{
closed = 1;
nodes = (
"55 0 LINE SMOOTH",
"121 0 OFFCURVE",
"151 26 OFFCURVE",
"172 65 CURVE SMOOTH",
"197 109 OFFCURVE",
"221 223 OFFCURVE",
"252 367 CURVE SMOOTH",
"282 511 OFFCURVE",
"300 603 OFFCURVE",
"295 659 CURVE",
"288 715 OFFCURVE",
"267 735 OFFCURVE",
"201 735 CURVE SMOOTH",
"132 735 LINE",
"63 410 LINE",
"28 410 LINE",
"11 331 LINE",
"46 331 LINE",
"-24 0 LINE"
);
},
{
closed = 1;
nodes = (
"192 627 LINE",
"204 626 OFFCURVE",
"219 629 OFFCURVE",
"217 603 CURVE SMOOTH",
"212 558 OFFCURVE",
"195 487 OFFCURVE",
"163 336 CURVE SMOOTH",
"144 248 OFFCURVE",
"125 156 OFFCURVE",
"117 132 CURVE",
"106 104 OFFCURVE",
"94 108 OFFCURVE",
"81 108 CURVE",
"129 331 LINE",
"145 331 LINE",
"162 410 LINE",
"146 410 LINE"
);
}
);
width = 253;
}
);
unicode = 0110;
},
{
glyphname = E;
lastChange = "2012-08-26 17:30:05 +0000";
layers = (
{
anchors = (
{
name = bottom;
position = "{107, 0}";
},
{
name = ogonek;
position = "{193, 10}";
},
{
name = top;
position = "{107, 735}";
}
);
layerId = "38BA14EB-08C8-4487-88C1-8F957131FCA1";
name = "Regular Condensed";
paths = (
{
closed = 1;
nodes = (
"-24 0 LINE",
"141 0 LINE",
"165 111 LINE",
"82 111 LINE",
"125 313 LINE",
"185 313 LINE",
"210 431 LINE",
"150 431 LINE",
"191 624 LINE",
"274 624 LINE",
"298 735 LINE",
"132 735 LINE"
);
}
);
width = 214;
}
);
rightKerningGroup = E;
unicode = 0045;
},
{
glyphname = Eacute;
lastChange = "2012-08-26 17:30:05 +0000";
layers = (
{
layerId = "38BA14EB-08C8-4487-88C1-8F957131FCA1";
name = "Regular Condensed";
paths = (
{
closed = 1;
nodes = (
"232 890 LINE",
"182 800 LINE",
"246 800 LINE",
"312 890 LINE"
);
},
{
closed = 1;
nodes = (
"-32 0 LINE",
"133 0 LINE",
"157 111 LINE",
"74 111 LINE",
"117 313 LINE",
"177 313 LINE",
"202 431 LINE",
"142 431 LINE",
"183 624 LINE",
"266 624 LINE",
"289 735 LINE",
"123 735 LINE"
);
}
);
width = 214;
}
);
rightKerningGroup = E;
unicode = 00C9;
},
{
glyphname = Ebreve;
lastChange = "2012-08-26 17:30:05 +0000";
layers = (
{
layerId = "38BA14EB-08C8-4487-88C1-8F957131FCA1";
name = "Regular Condensed";
paths = (
{
closed = 1;
nodes = (
"275 928 LINE",
"256 905 LINE",
"248 899 OFFCURVE",
"239 894 OFFCURVE",
"233 894 CURVE SMOOTH",
"230 894 OFFCURVE",
"226 895 OFFCURVE",
"223 897 CURVE",
"218 899 OFFCURVE",
"214 911 OFFCURVE",
"208 929 CURVE",
"154 870 LINE",
"155 866 OFFCURVE",
"160 857 OFFCURVE",
"167 847 CURVE",
"177 835 OFFCURVE",
"191 824 OFFCURVE",
"218 824 CURVE SMOOTH",
"231 824 OFFCURVE",
"244 826 OFFCURVE",
"253 831 CURVE",
"252 831 LINE",
"275 842 OFFCURVE",
"291 856 OFFCURVE",
"302 870 CURVE"
);
},
{
closed = 1;
nodes = (
"-34 0 LINE",
"131 0 LINE",
"155 111 LINE",
"72 111 LINE",
"115 313 LINE",
"175 313 LINE",
"200 431 LINE",
"140 431 LINE",
"181 624 LINE",
"264 624 LINE",
"287 735 LINE",
"121 735 LINE"
);
}
);
width = 214;
}
);
unicode = 0114;
},
{
glyphname = Ecaron;
lastChange = "2012-08-26 17:30:05 +0000";
layers = (
{
layerId = "38BA14EB-08C8-4487-88C1-8F957131FCA1";
name = "Regular Condensed";
paths = (
{
closed = 1;
nodes = (
"-33 0 LINE",
"132 0 LINE",
"156 111 LINE",
"73 111 LINE",
"115 313 LINE",
"175 313 LINE",
"201 431 LINE",
"141 431 LINE",
"182 624 LINE",
"265 624 LINE",
"288 735 LINE",
"122 735 LINE"
);
},
{
closed = 1;
nodes = (
"264 825 LINE",
"324 915 LINE",
"259 915 LINE",
"234 876 LINE",
"225 915 LINE",
"160 915 LINE",
"183 825 LINE"
);
}
);
width = 214;
}
);
unicode = 011A;
},
{
glyphname = Ecircumflex;
lastChange = "2012-08-26 17:30:05 +0000";
layers = (
{
layerId = "38BA14EB-08C8-4487-88C1-8F957131FCA1";
name = "Regular Condensed";
paths = (
{
closed = 1;
nodes = (
"-32 0 LINE",
"133 0 LINE",
"157 111 LINE",
"74 111 LINE",
"117 313 LINE",
"177 313 LINE",
"202 431 LINE",
"142 431 LINE",
"183 624 LINE",
"266 624 LINE",
"289 735 LINE",
"123 735 LINE"
);
},
{
closed = 1;
nodes = (
"201 890 LINE",
"140 800 LINE",
"205 800 LINE",
"231 839 LINE",
"239 800 LINE",
"304 800 LINE",
"282 890 LINE"
);
}
);
width = 214;
}
);
rightKerningGroup = E;
unicode = 00CA;
},
{
glyphname = Edieresis;
lastChange = "2012-08-26 17:30:05 +0000";
layers = (
{
layerId = "38BA14EB-08C8-4487-88C1-8F957131FCA1";
name = "Regular Condensed";
paths = (
{
closed = 1;
nodes = (
"-32 0 LINE",
"133 0 LINE",
"156 111 LINE",
"73 111 LINE",
"116 313 LINE",
"176 313 LINE",
"201 431 LINE",
"141 431 LINE",
"182 624 LINE",
"265 624 LINE",
"289 735 LINE",
"123 735 LINE"
);
},
{
closed = 1;
nodes = (
"137 800 LINE",
"211 800 LINE",
"232 898 LINE",
"158 898 LINE"
);
},
{
closed = 1;
nodes = (
"234 800 LINE",
"307 800 LINE",
"328 898 LINE",
"255 898 LINE"
);
}
);
width = 214;
}
);
rightKerningGroup = E;
unicode = 00CB;
},
{
glyphname = Edotaccent;
lastChange = "2012-08-26 17:30:05 +0000";
layers = (
{
layerId = "38BA14EB-08C8-4487-88C1-8F957131FCA1";
name = "Regular Condensed";
paths = (
{
closed = 1;
nodes = (
"178 822 LINE",
"257 822 LINE",
"279 923 LINE",
"200 923 LINE"
);
},
{
closed = 1;
nodes = (
"-33 0 LINE",
"132 0 LINE",
"155 111 LINE",
"72 111 LINE",
"115 313 LINE",
"175 313 LINE",
"200 431 LINE",
"140 431 LINE",
"181 624 LINE",
"264 624 LINE",
"288 735 LINE",
"122 735 LINE"
);
}
);
width = 214;
}
);
unicode = 0116;
},
{
glyphname = Egrave;
lastChange = "2012-08-26 17:30:05 +0000";
layers = (
{
layerId = "38BA14EB-08C8-4487-88C1-8F957131FCA1";
name = "Regular Condensed";
paths = (
{
closed = 1;
nodes = (
"165 890 LINE",
"194 800 LINE",
"258 800 LINE",
"245 890 LINE"
);
},
{
closed = 1;
nodes = (
"-32 0 LINE",
"133 0 LINE",
"157 111 LINE",
"74 111 LINE",
"117 313 LINE",
"177 313 LINE",
"202 431 LINE",
"142 431 LINE",
"183 624 LINE",
"266 624 LINE",
"289 735 LINE",
"123 735 LINE"
);
}
);
width = 214;
}
);
rightKerningGroup = E;
unicode = 00C8;
},
{
glyphname = Emacron;
lastChange = "2012-08-26 17:30:05 +0000";
layers = (
{
layerId = "38BA14EB-08C8-4487-88C1-8F957131FCA1";
name = "Regular Condensed";
paths = (
{
closed = 1;
nodes = (
"154 830 LINE",
"288 830 LINE",
"304 909 LINE",
"170 909 LINE"
);
},
{
closed = 1;
nodes = (
"-33 0 LINE",
"132 0 LINE",
"156 111 LINE",
"73 111 LINE",
"116 313 LINE",
"176 313 LINE",
"201 431 LINE",
"141 431 LINE",
"182 624 LINE",
"265 624 LINE",
"288 735 LINE",
"122 735 LINE"
);
}
);
width = 214;
}
);
unicode = 0112;
},
{
glyphname = Eogonek;
lastChange = "2012-08-26 17:30:05 +0000";
layers = (
{
layerId = "38BA14EB-08C8-4487-88C1-8F957131FCA1";
name = "Regular Condensed";
paths = (
{
closed = 1;
nodes = (
"151 0 LINE",
"175 111 LINE",
"92 111 LINE",
"135 313 LINE",
"195 313 LINE",
"220 431 LINE",
"160 431 LINE",
"201 624 LINE",
"284 624 LINE",
"308 735 LINE",
"142 735 LINE",
"-14 0 LINE",
"80 0 LINE",
"69 -11 OFFCURVE",
"60 -22 OFFCURVE",
"55 -28 CURVE",
"54 -29 OFFCURVE",
"53 -30 OFFCURVE",
"52 -31 CURVE",
"38 -50 OFFCURVE",
"20 -80 OFFCURVE",
"16 -103 CURVE",
"6 -148 OFFCURVE",
"23 -188 OFFCURVE",
"68 -188 CURVE SMOOTH",
"82 -188 OFFCURVE",
"92 -185 OFFCURVE",
"110 -176 CURVE",
"131 -101 LINE",
"114 -112 OFFCURVE",
"98 -121 OFFCURVE",
"93 -121 CURVE SMOOTH",
"83 -121 OFFCURVE",
"74 -112 OFFCURVE",
"80 -83 CURVE",
"82 -71 OFFCURVE",
"86 -60 OFFCURVE",
"91 -50 CURVE SMOOTH",
"102 -28 OFFCURVE",
"112 -11 OFFCURVE",
"122 0 CURVE"
);
}
);
width = 214;
}
);
unicode = 0118;
},
{
glyphname = F;
lastChange = "2012-08-26 17:30:05 +0000";
layers = (
{
layerId = "38BA14EB-08C8-4487-88C1-8F957131FCA1";
name = "Regular Condensed";
paths = (
{
closed = 1;
nodes = (
"304 735 LINE",
"132 735 LINE",
"-24 0 LINE",
"58 0 LINE",
"127 320 LINE",
"187 320 LINE",
"210 431 LINE",
"150 431 LINE",
"191 624 LINE",
"280 624 LINE"
);
}
);
width = 211;
}
);
unicode = 0046;
},
{
glyphname = G;
lastChange = "2012-08-26 17:30:05 +0000";
layers = (
{
anchors = (
{
name = bottom;
position = "{123, 0}";
},
{
name = top;
position = "{123, 735}";
}
);
layerId = "38BA14EB-08C8-4487-88C1-8F957131FCA1";
name = "Regular Condensed";
paths = (
{
closed = 1;
nodes = (
"268 471 LINE",
"294 594 LINE SMOOTH",
"306 653 OFFCURVE",
"306 743 OFFCURVE",
"226 743 CURVE SMOOTH",
"151 743 OFFCURVE",
"110 660 OFFCURVE",
"96 594 CURVE SMOOTH",
"0 141 LINE SMOOTH",
"-11 89 OFFCURVE",
"-14 -8 OFFCURVE",
"59 -8 CURVE SMOOTH",
"77 -8 OFFCURVE",
"108 9 OFFCURVE",
"121 27 CURVE",
"124 0 LINE",
"167 0 LINE",
"245 366 LINE",
"150 366 LINE",
"131 275 LINE",
"149 275 LINE",
"119 132 LINE SMOOTH",
"115 114 OFFCURVE",
"107 88 OFFCURVE",
"89 88 CURVE SMOOTH",
"77 88 OFFCURVE",
"77 109 OFFCURVE",
"82 132 CURVE SMOOTH",
"180 594 LINE SMOOTH",
"184 612 OFFCURVE",
"193 638 OFFCURVE",
"204 638 CURVE SMOOTH",
"218 638 OFFCURVE",
"214 609 OFFCURVE",
"211 594 CURVE SMOOTH",
"185 471 LINE"
);
}
);
width = 246;
}
);
unicode = 0047;
},
{
glyphname = Gbreve;
lastChange = "2012-08-26 17:30:05 +0000";
layers = (
{
layerId = "38BA14EB-08C8-4487-88C1-8F957131FCA1";
name = "Regular Condensed";
paths = (
{
closed = 1;
nodes = (
"258 471 LINE",
"284 594 LINE SMOOTH",
"296 653 OFFCURVE",
"297 743 OFFCURVE",
"217 743 CURVE SMOOTH",
"142 743 OFFCURVE",
"100 660 OFFCURVE",
"86 594 CURVE SMOOTH",
"-9 141 LINE SMOOTH",
"-20 89 OFFCURVE",
"-24 -8 OFFCURVE",
"49 -8 CURVE SMOOTH",
"67 -8 OFFCURVE",
"99 9 OFFCURVE",
"111 27 CURVE",
"115 0 LINE",
"158 0 LINE",
"235 366 LINE",
"140 366 LINE",
"121 275 LINE",
"139 275 LINE",
"109 132 LINE SMOOTH",
"105 114 OFFCURVE",
"97 88 OFFCURVE",
"79 88 CURVE SMOOTH",
"67 88 OFFCURVE",
"67 109 OFFCURVE",
"72 132 CURVE SMOOTH",
"170 594 LINE SMOOTH",
"174 612 OFFCURVE",
"183 638 OFFCURVE",
"194 638 CURVE SMOOTH",
"208 638 OFFCURVE",
"204 609 OFFCURVE",
"201 594 CURVE SMOOTH",
"175 471 LINE"
);
},
{
closed = 1;
nodes = (
"292 927 LINE",
"292 927 OFFCURVE",
"266 896 OFFCURVE",
"250 896 CURVE SMOOTH",
"232 896 OFFCURVE",
"224 928 OFFCURVE",
"224 928 CURVE",
"171 871 LINE",
"178 845 OFFCURVE",
"204 823 OFFCURVE",
"235 823 CURVE SMOOTH",
"266 823 OFFCURVE",
"295 843 OFFCURVE",
"319 871 CURVE"
);
}
);
width = 246;
}
);
unicode = 011E;
},
{
glyphname = Gcircumflex;
lastChange = "2012-08-26 17:30:05 +0000";
layers = (
{
layerId = "38BA14EB-08C8-4487-88C1-8F957131FCA1";
name = "Regular Condensed";
paths = (
{
closed = 1;
nodes = (
"260 471 LINE",
"286 594 LINE SMOOTH",
"298 653 OFFCURVE",
"299 743 OFFCURVE",
"219 743 CURVE SMOOTH",
"144 743 OFFCURVE",
"102 660 OFFCURVE",
"88 594 CURVE SMOOTH",
"-7 141 LINE SMOOTH",
"-18 89 OFFCURVE",
"-22 -8 OFFCURVE",
"51 -8 CURVE SMOOTH",
"69 -8 OFFCURVE",
"101 9 OFFCURVE",
"113 27 CURVE",
"117 0 LINE",
"160 0 LINE",
"237 366 LINE",
"142 366 LINE",
"123 275 LINE",
"141 275 LINE",
"111 132 LINE SMOOTH",
"107 114 OFFCURVE",
"99 88 OFFCURVE",
"81 88 CURVE SMOOTH",
"69 88 OFFCURVE",
"69 109 OFFCURVE",
"74 132 CURVE SMOOTH",
"172 594 LINE SMOOTH",
"176 612 OFFCURVE",
"185 638 OFFCURVE",
"196 638 CURVE SMOOTH",
"210 638 OFFCURVE",
"206 609 OFFCURVE",
"203 594 CURVE SMOOTH",
"177 471 LINE"
);
},
{
closed = 1;
nodes = (
"209 890 LINE",
"148 800 LINE",
"213 800 LINE",
"238 839 LINE",
"247 800 LINE",
"312 800 LINE",
"290 890 LINE"
);
}
);
width = 246;
}
);
unicode = 011C;
},
{
glyphname = Gcommaaccent;
lastChange = "2012-08-26 17:30:05 +0000";
layers = (
{
layerId = "38BA14EB-08C8-4487-88C1-8F957131FCA1";
name = "Regular Condensed";
paths = (
{
closed = 1;
nodes = (
"97 -54 LINE",
"29 -54 LINE",
"14 -123 LINE",
"36 -123 LINE",
"6 -188 LINE",
"55 -188 LINE",
"82 -123 LINE"
);
},
{
closed = 1;
nodes = (
"277 471 LINE",
"303 594 LINE SMOOTH",
"316 653 OFFCURVE",
"316 743 OFFCURVE",
"236 743 CURVE SMOOTH",
"161 743 OFFCURVE",
"119 660 OFFCURVE",
"105 594 CURVE SMOOTH",
"9 141 LINE SMOOTH",
"-1 89 OFFCURVE",
"-5 -8 OFFCURVE",
"68 -8 CURVE SMOOTH",
"86 -8 OFFCURVE",
"118 9 OFFCURVE",
"131 27 CURVE",
"134 0 LINE",
"177 0 LINE",
"255 366 LINE",
"160 366 LINE",
"141 275 LINE",
"159 275 LINE",
"128 132 LINE SMOOTH",
"124 114 OFFCURVE",
"117 88 OFFCURVE",
"99 88 CURVE SMOOTH",
"87 88 OFFCURVE",
"86 109 OFFCURVE",
"91 132 CURVE SMOOTH",
"189 594 LINE SMOOTH",
"193 612 OFFCURVE",
"203 638 OFFCURVE",
"214 638 CURVE SMOOTH",
"228 638 OFFCURVE",
"224 609 OFFCURVE",
"220 594 CURVE",
"194 471 LINE"
);
}
);
width = 246;
}
);
unicode = 0122;
},
{
glyphname = Gdotaccent;
lastChange = "2012-08-26 17:30:05 +0000";
layers = (
{
layerId = "38BA14EB-08C8-4487-88C1-8F957131FCA1";
name = "Regular Condensed";
paths = (
{
closed = 1;
nodes = (
"196 822 LINE",
"274 822 LINE",
"295 923 LINE",
"217 923 LINE"
);
},
{
closed = 1;
nodes = (
"258 471 LINE",
"284 594 LINE SMOOTH",
"297 653 OFFCURVE",
"297 743 OFFCURVE",
"217 743 CURVE SMOOTH",
"142 743 OFFCURVE",
"100 660 OFFCURVE",
"86 594 CURVE SMOOTH",
"-9 141 LINE SMOOTH",
"-20 89 OFFCURVE",
"-24 -8 OFFCURVE",
"49 -8 CURVE SMOOTH",
"67 -8 OFFCURVE",
"99 9 OFFCURVE",
"112 27 CURVE",
"115 0 LINE",
"158 0 LINE",
"236 366 LINE",
"141 366 LINE",
"121 275 LINE",
"139 275 LINE",
"109 132 LINE SMOOTH",
"105 114 OFFCURVE",
"98 88 OFFCURVE",
"80 88 CURVE SMOOTH",
"68 88 OFFCURVE",
"67 109 OFFCURVE",
"72 132 CURVE SMOOTH",
"170 594 LINE SMOOTH",
"174 612 OFFCURVE",
"184 638 OFFCURVE",
"195 638 CURVE SMOOTH",
"209 638 OFFCURVE",
"204 609 OFFCURVE",
"201 594 CURVE SMOOTH",
"175 471 LINE"
);
}
);
width = 246;
}
);
unicode = 0120;
},
{
glyphname = H;
lastChange = "2012-08-26 17:30:05 +0000";
layers = (
{
anchors = (
{
name = center;
position = "{129, 368}";
},
{
name = top;
position = "{129, 735}";
}
);
layerId = "38BA14EB-08C8-4487-88C1-8F957131FCA1";
name = "Regular Condensed";
paths = (
{
closed = 1;
nodes = (
"90 0 LINE",
"173 0 LINE",
"330 735 LINE",
"247 735 LINE",
"182 431 LINE",
"150 431 LINE",
"215 735 LINE",
"132 735 LINE",
"-24 0 LINE",
"58 0 LINE",
"127 320 LINE",
"159 320 LINE"
);
}
);
width = 258;
}
);
unicode = 0048;
},
{
glyphname = Hbar;
lastChange = "2012-08-26 17:30:05 +0000";
layers = (
{
layerId = "38BA14EB-08C8-4487-88C1-8F957131FCA1";
name = "Regular Condensed";
paths = (
{
closed = 1;
nodes = (
"331 627 LINE",
"307 627 LINE",
"330 735 LINE",
"247 735 LINE",
"224 627 LINE",
"192 627 LINE",
"215 735 LINE",
"132 735 LINE",
"109 627 LINE",
"86 627 LINE",
"69 548 LINE",
"92 548 LINE",
"-24 0 LINE",
"58 0 LINE",
"127 320 LINE",
"159 320 LINE",
"90 0 LINE",
"173 0 LINE",
"290 548 LINE",
"314 548 LINE"
);
},
{
closed = 1;
nodes = (
"182 431 LINE",
"150 431 LINE",
"175 548 LINE",
"207 548 LINE"
);
}
);
width = 258;
}
);
unicode = 0126;
},
{
glyphname = Hcircumflex;
lastChange = "2012-08-26 17:30:05 +0000";
layers = (
{
layerId = "38BA14EB-08C8-4487-88C1-8F957131FCA1";
name = "Regular Condensed";
paths = (
{
closed = 1;
nodes = (
"82 0 LINE",
"165 0 LINE",
"321 735 LINE",
"238 735 LINE",
"174 431 LINE",
"142 431 LINE",
"206 735 LINE",
"123 735 LINE",
"-32 0 LINE",
"50 0 LINE",
"118 320 LINE",
"150 320 LINE"
);
},
{
closed = 1;
nodes = (
"216 890 LINE",
"155 800 LINE",
"220 800 LINE",
"246 839 LINE",
"254 800 LINE",
"319 800 LINE",
"297 890 LINE"
);
}
);
width = 258;
}
);
unicode = 0124;
},
{
glyphname = I;
lastChange = "2012-08-26 17:30:05 +0000";
layers = (
{
anchors = (
{
name = ogonek;
position = "{129, 10}";
},
{
name = top;
position = "{72, 735}";
}
);
layerId = "38BA14EB-08C8-4487-88C1-8F957131FCA1";
name = "Regular Condensed";
paths = (
{
closed = 1;
nodes = (
"-24 0 LINE",
"58 0 LINE",
"215 735 LINE",
"132 735 LINE"
);
}
);
width = 143;
}
);
leftKerningGroup = I;
rightKerningGroup = I;
unicode = 0049;
},
{
glyphname = IJ;
lastChange = "2012-08-26 17:30:05 +0000";
layers = (
{
layerId = "38BA14EB-08C8-4487-88C1-8F957131FCA1";
name = "Regular Condensed";
paths = (
{
closed = 1;
nodes = (
"-23 0 LINE",
"59 0 LINE",
"215 735 LINE",
"132 735 LINE"
);
},
{
closed = 1;
nodes = (
"76 -6 LINE",
"168 -15 OFFCURVE",
"208 51 OFFCURVE",
"226 136 CURVE SMOOTH",
"353 735 LINE",
"270 735 LINE",
"146 153 LINE SMOOTH",
"142 133 OFFCURVE",
"130 95 OFFCURVE",
"98 102 CURVE"
);
}
);
width = 267;
}
);
unicode = 0132;
},
{
glyphname = Iacute;
lastChange = "2012-08-26 17:30:05 +0000";
layers = (
{
layerId = "38BA14EB-08C8-4487-88C1-8F957131FCA1";
name = "Regular Condensed";
paths = (
{
closed = 1;
nodes = (
"188 890 LINE",
"138 800 LINE",
"202 800 LINE",
"268 890 LINE"
);
},
{
closed = 1;
nodes = (
"-32 0 LINE",
"50 0 LINE",
"206 735 LINE",
"123 735 LINE"
);
}
);
width = 148;
}
);
leftKerningGroup = I;
rightKerningGroup = I;
unicode = 00CD;
},
{
glyphname = Ibreve;
lastChange = "2012-08-26 17:30:05 +0000";
layers = (
{
layerId = "38BA14EB-08C8-4487-88C1-8F957131FCA1";
name = "Regular Condensed";
paths = (
{
closed = 1;
nodes = (
"-34 0 LINE",
"48 0 LINE",
"204 735 LINE",
"121 735 LINE"
);
},
{
closed = 1;
nodes = (
"239 928 LINE",
"239 928 OFFCURVE",
"214 897 OFFCURVE",
"198 897 CURVE SMOOTH",
"180 897 OFFCURVE",
"172 929 OFFCURVE",
"172 929 CURVE",
"119 872 LINE",
"126 846 OFFCURVE",
"151 824 OFFCURVE",
"182 824 CURVE SMOOTH",
"213 824 OFFCURVE",
"243 844 OFFCURVE",
"267 872 CURVE"
);
}
);
width = 143;
}
);
unicode = 012C;
},
{
glyphname = Icircumflex;
lastChange = "2012-08-26 17:30:05 +0000";
layers = (
{
layerId = "38BA14EB-08C8-4487-88C1-8F957131FCA1";
name = "Regular Condensed";
paths = (
{
closed = 1;
nodes = (
"-34 0 LINE",
"47 0 LINE",
"203 735 LINE",
"121 735 LINE"
);
},
{
closed = 1;
nodes = (
"154 890 LINE",
"93 800 LINE",
"158 800 LINE",
"184 839 LINE",
"192 800 LINE",
"257 800 LINE",
"235 890 LINE"
);
}
);
width = 139;
}
);
leftKerningGroup = Icircumflex;
rightKerningGroup = Icircumflex;
unicode = 00CE;
},
{
glyphname = Idieresis;
lastChange = "2012-08-26 17:30:05 +0000";
layers = (
{
layerId = "38BA14EB-08C8-4487-88C1-8F957131FCA1";
name = "Regular Condensed";
paths = (
{
closed = 1;
nodes = (
"-34 0 LINE",
"48 0 LINE",
"204 735 LINE",
"121 735 LINE"
);
},
{
closed = 1;
nodes = (
"93 800 LINE",
"167 800 LINE",
"188 898 LINE",
"114 898 LINE"
);
},
{
closed = 1;
nodes = (
"190 800 LINE",
"263 800 LINE",
"284 898 LINE",
"211 898 LINE"
);
}
);
width = 139;
}
);
leftKerningGroup = Icircumflex;
rightKerningGroup = Icircumflex;
unicode = 00CF;
},
{
glyphname = Idotaccent;
lastChange = "2012-08-26 17:30:05 +0000";
layers = (
{
layerId = "38BA14EB-08C8-4487-88C1-8F957131FCA1";
name = "Regular Condensed";
paths = (
{
closed = 1;
nodes = (
"143 822 LINE",
"222 822 LINE",
"244 923 LINE",
"165 923 LINE"
);
},
{
closed = 1;
nodes = (
"-33 0 LINE",
"49 0 LINE",
"205 735 LINE",
"122 735 LINE"
);
}
);
width = 143;
}
);
unicode = 0130;
},
{
glyphname = Igrave;
lastChange = "2012-08-26 17:30:05 +0000";
layers = (
{
layerId = "38BA14EB-08C8-4487-88C1-8F957131FCA1";
name = "Regular Condensed";
paths = (
{
closed = 1;
nodes = (
"131 890 LINE",
"160 800 LINE",
"223 800 LINE",
"211 890 LINE"
);
},
{
closed = 1;
nodes = (
"-27 0 LINE",
"55 0 LINE",
"211 735 LINE",
"128 735 LINE"
);
}
);
width = 148;
}
);
leftKerningGroup = I;
rightKerningGroup = I;
unicode = 00CC;
},
{
glyphname = Imacron;
lastChange = "2012-08-26 17:30:05 +0000";
layers = (
{
layerId = "38BA14EB-08C8-4487-88C1-8F957131FCA1";
name = "Regular Condensed";
paths = (
{
closed = 1;
nodes = (
"118 830 LINE",
"252 830 LINE",
"268 909 LINE",
"134 909 LINE"
);
},
{
closed = 1;
nodes = (
"-33 0 LINE",
"49 0 LINE",
"205 735 LINE",
"122 735 LINE"
);
}
);
width = 143;
}
);
unicode = 012A;
},
{
glyphname = Iogonek;
lastChange = "2012-08-26 17:30:05 +0000";
layers = (
{
layerId = "38BA14EB-08C8-4487-88C1-8F957131FCA1";
name = "Regular Condensed";
paths = (
{
closed = 1;
nodes = (
"68 0 LINE",
"225 735 LINE",
"142 735 LINE",
"-14 0 LINE",
"-4 0 LINE",
"-14 -11 OFFCURVE",
"-22 -21 OFFCURVE",
"-27 -28 CURVE",
"-28 -29 OFFCURVE",
"-29 -30 OFFCURVE",
"-30 -31 CURVE",
"-44 -50 OFFCURVE",
"-61 -79 OFFCURVE",
"-66 -103 CURVE SMOOTH",
"-76 -148 OFFCURVE",
"-59 -188 OFFCURVE",
"-14 -188 CURVE SMOOTH",
"-1 -188 OFFCURVE",
"9 -185 OFFCURVE",
"27 -176 CURVE",
"47 -101 LINE",
"30 -112 OFFCURVE",
"14 -121 OFFCURVE",
"9 -121 CURVE SMOOTH",
"0 -121 OFFCURVE",
"-9 -112 OFFCURVE",
"-3 -83 CURVE",
"-1 -71 OFFCURVE",
"2 -60 OFFCURVE",
"7 -50 CURVE SMOOTH",
"17 -30 OFFCURVE",
"29 -13 OFFCURVE",
"39 0 CURVE"
);
}
);
width = 143;
}
);
unicode = 012E;
},
{
glyphname = Itilde;
lastChange = "2012-08-26 17:30:05 +0000";
layers = (
{
layerId = "38BA14EB-08C8-4487-88C1-8F957131FCA1";
name = "Regular Condensed";
paths = (
{
closed = 1;
nodes = (
"-34 0 LINE",
"48 0 LINE",
"204 735 LINE",
"121 735 LINE"
);
},
{
closed = 1;
nodes = (
"112 810 LINE",
"119 817 OFFCURVE",
"147 840 OFFCURVE",
"159 840 CURVE SMOOTH",
"179 840 OFFCURVE",
"186 821 OFFCURVE",
"209 821 CURVE SMOOTH",
"227 821 OFFCURVE",
"243 833 OFFCURVE",
"254 846 CURVE",
"272 929 LINE",
"264 919 OFFCURVE",
"238 900 OFFCURVE",
"225 900 CURVE SMOOTH",
"206 900 OFFCURVE",
"199 917 OFFCURVE",
"176 917 CURVE SMOOTH",
"161 917 OFFCURVE",
"142 909 OFFCURVE",
"131 896 CURVE"
);
}
);
width = 143;
}
);
unicode = 0128;
},
{
glyphname = J;
lastChange = "2012-08-26 17:30:05 +0000";
layers = (
{
anchors = (
{
name = top;
position = "{77, 735}";
}
);
layerId = "38BA14EB-08C8-4487-88C1-8F957131FCA1";
name = "Regular Condensed";
paths = (
{
closed = 1;
nodes = (
"-43 -6 LINE",
"48 -15 OFFCURVE",
"88 51 OFFCURVE",
"106 136 CURVE SMOOTH",
"233 735 LINE",
"150 735 LINE",
"26 153 LINE SMOOTH",
"22 133 OFFCURVE",
"10 95 OFFCURVE",
"-21 102 CURVE"
);
}
);
width = 154;
}
);
unicode = 004A;
},
{
glyphname = Jcircumflex;
lastChange = "2012-08-26 17:30:05 +0000";
layers = (
{
layerId = "38BA14EB-08C8-4487-88C1-8F957131FCA1";
name = "Regular Condensed";
paths = (
{
closed = 1;
nodes = (
"170 890 LINE",
"109 800 LINE",
"174 800 LINE",
"199 839 LINE",
"208 800 LINE",
"273 800 LINE",
"251 890 LINE"
);
},
{
closed = 1;
nodes = (
"-55 -6 LINE",
"36 -15 OFFCURVE",
"76 51 OFFCURVE",
"95 136 CURVE SMOOTH",
"222 735 LINE",
"139 735 LINE",
"15 153 LINE SMOOTH",
"11 133 OFFCURVE",
"0 95 OFFCURVE",
"-32 102 CURVE"
);
}
);
width = 154;
}
);
unicode = 0134;
},
{
glyphname = K;
lastChange = "2012-08-26 17:30:05 +0000";
layers = (
{
anchors = (
{
name = bottom;
position = "{128, 0}";
},
{
name = top;
position = "{128, 735}";
}
);
layerId = "38BA14EB-08C8-4487-88C1-8F957131FCA1";
name = "Regular Condensed";
paths = (
{
closed = 1;
nodes = (
"132 735 LINE",
"-24 0 LINE",
"55 0 LINE",
"130 350 LINE",
"107 0 LINE",
"188 0 LINE",
"217 466 LINE",
"347 735 LINE",
"266 735 LINE",
"167 524 LINE",
"212 735 LINE"
);
}
);
width = 255;
}
);
unicode = 004B;
},
{
glyphname = Kcommaaccent;
lastChange = "2012-08-26 17:30:05 +0000";
layers = (
{
layerId = "38BA14EB-08C8-4487-88C1-8F957131FCA1";
name = "Regular Condensed";
paths = (
{
closed = 1;
nodes = (
"97 -54 LINE",
"29 -54 LINE",
"14 -123 LINE",
"32 -123 LINE",
"7 -188 LINE",
"56 -188 LINE",
"82 -123 LINE"
);
},
{
closed = 1;
nodes = (
"142 735 LINE",
"-14 0 LINE",
"65 0 LINE",
"140 350 LINE",
"117 0 LINE",
"198 0 LINE",
"227 466 LINE",
"357 735 LINE",
"276 735 LINE",
"177 524 LINE",
"222 735 LINE"
);
}
);
width = 255;
}
);
unicode = 0136;
},
{
glyphname = L;
lastChange = "2012-08-26 17:30:05 +0000";
layers = (
{
anchors = (
{
name = bottom;
position = "{104, 0}";
},
{
name = top;
position = "{104, 735}";
}
);
layerId = "38BA14EB-08C8-4487-88C1-8F957131FCA1";
name = "Regular Condensed";
paths = (
{
closed = 1;
nodes = (
"-24 0 LINE",
"144 0 LINE",
"166 100 LINE",
"80 100 LINE",
"215 735 LINE",
"132 735 LINE"
);
}
);
width = 207;
}
);
unicode = 004C;
},
{
glyphname = Lacute;
lastChange = "2012-08-26 17:30:05 +0000";
layers = (
{
layerId = "38BA14EB-08C8-4487-88C1-8F957131FCA1";
name = "Regular Condensed";
paths = (
{
closed = 1;
nodes = (
"209 915 LINE",
"159 825 LINE",
"223 825 LINE",
"289 915 LINE"
);
},
{
closed = 1;
nodes = (
"-33 0 LINE",
"135 0 LINE",
"156 100 LINE",
"70 100 LINE",
"205 735 LINE",
"122 735 LINE"
);
}
);
width = 207;
}
);
unicode = 0139;
},
{
glyphname = Lcaron;
lastChange = "2012-08-26 17:30:05 +0000";
layers = (
{
layerId = "38BA14EB-08C8-4487-88C1-8F957131FCA1";
name = "Regular Condensed";
paths = (
{
closed = 1;
nodes = (
"347 848 LINE",
"266 848 LINE",
"242 737 LINE",
"263 737 LINE",
"214 607 LINE",
"262 607 LINE",
"323 737 LINE"
);
},
{
closed = 1;
nodes = (
"-30 0 LINE",
"138 0 LINE",
"160 100 LINE",
"74 100 LINE",
"209 735 LINE",
"126 735 LINE"
);
}
);
width = 237;
}
);
unicode = 013D;
},
{
glyphname = Lcommaaccent;
lastChange = "2012-08-26 17:30:05 +0000";
layers = (
{
layerId = "38BA14EB-08C8-4487-88C1-8F957131FCA1";
name = "Regular Condensed";
paths = (
{
closed = 1;
nodes = (
"-14 0 LINE",
"154 0 LINE",
"176 100 LINE",
"90 100 LINE",
"225 735 LINE",
"142 735 LINE"
);
},
{
closed = 1;
nodes = (
"97 -54 LINE",
"29 -54 LINE",
"14 -123 LINE",
"32 -123 LINE",
"7 -188 LINE",
"56 -188 LINE",
"82 -123 LINE"
);
}
);
width = 207;
}
);
unicode = 013B;
},
{
glyphname = Ldot;
lastChange = "2012-08-26 17:30:05 +0000";
layers = (
{
layerId = "38BA14EB-08C8-4487-88C1-8F957131FCA1";
name = "Regular Condensed";
paths = (
{
closed = 1;
nodes = (
"-24 0 LINE",
"144 0 LINE",
"166 100 LINE",
"80 100 LINE",
"215 735 LINE",
"132 735 LINE"
);
},
{
closed = 1;
nodes = (
"153 329 LINE",
"234 329 LINE",
"258 440 LINE",
"177 440 LINE"
);
}
);
width = 223;
}
);
unicode = 013F;
},
{
glyphname = Lslash;
lastChange = "2012-08-26 17:30:05 +0000";
layers = (
{
layerId = "38BA14EB-08C8-4487-88C1-8F957131FCA1";
name = "Regular Condensed";
paths = (
{
closed = 1;
nodes = (
"13 250 LINE",
"13 250 OFFCURVE",
"41 282 OFFCURVE",
"43 283 CURVE",
"-17 0 LINE",
"151 0 LINE",
"173 100 LINE",
"87 100 LINE",
"147 383 LINE",
"146 383 LINE",
"192 431 LINE",
"219 559 LINE",
"175 513 LINE",
"222 735 LINE",
"139 735 LINE",
"70 412 LINE",
"71 412 LINE",
"41 382 LINE"
);
}
);
width = 214;
}
);
unicode = 0141;
},
{
glyphname = M;
lastChange = "2012-08-26 17:30:05 +0000";
layers = (
{
layerId = "38BA14EB-08C8-4487-88C1-8F957131FCA1";
name = "Regular Condensed";
paths = (
{
closed = 1;
nodes = (
"128 0 LINE",
"233 362 LINE",
"158 0 LINE",
"235 0 LINE",
"392 735 LINE",
"300 735 LINE",
"188 388 LINE",
"224 735 LINE",
"132 735 LINE",
"-24 0 LINE",
"52 0 LINE",
"129 362 LINE",
"83 0 LINE"
);
}
);
width = 320;
}
);
unicode = 004D;
},
{
glyphname = N;
lastChange = "2012-08-26 17:30:05 +0000";
layers = (
{
anchors = (
{
name = bottom;
position = "{134, 0}";
},
{
name = top;
position = "{134, 735}";
}
);
layerId = "38BA14EB-08C8-4487-88C1-8F957131FCA1";
name = "Regular Condensed";
paths = (
{
closed = 1;
nodes = (
"112 0 LINE",
"182 0 LINE",
"339 735 LINE",
"262 735 LINE",
"188 388 LINE",
"202 735 LINE",
"132 735 LINE",
"-24 0 LINE",
"52 0 LINE",
"128 357 LINE"
);
}
);
width = 267;
}
);
unicode = 004E;
},
{
glyphname = Nacute;
lastChange = "2012-08-26 17:30:05 +0000";
layers = (
{
layerId = "38BA14EB-08C8-4487-88C1-8F957131FCA1";
name = "Regular Condensed";
paths = (
{
closed = 1;
nodes = (
"239 915 LINE",
"189 825 LINE",
"253 825 LINE",
"319 915 LINE"
);
},
{
closed = 1;
nodes = (
"103 0 LINE",
"173 0 LINE",
"329 735 LINE",
"252 735 LINE",
"178 388 LINE",
"192 735 LINE",
"122 735 LINE",
"-33 0 LINE",
"43 0 LINE",
"119 357 LINE"
);
}
);
width = 267;
}
);
unicode = 0143;
},
{
glyphname = Ncaron;
lastChange = "2012-08-26 17:30:05 +0000";
layers = (
{
layerId = "38BA14EB-08C8-4487-88C1-8F957131FCA1";
name = "Regular Condensed";
paths = (
{
closed = 1;
nodes = (
"103 0 LINE",
"173 0 LINE",
"329 735 LINE",
"252 735 LINE",
"178 388 LINE",
"192 735 LINE",
"122 735 LINE",
"-33 0 LINE",
"43 0 LINE",
"119 357 LINE"
);
},
{
closed = 1;
nodes = (
"286 825 LINE",
"346 915 LINE",
"281 915 LINE",
"256 876 LINE",
"247 915 LINE",
"182 915 LINE",
"205 825 LINE"
);
}
);
width = 267;
}
);
unicode = 0147;
},
{
glyphname = Ncommaaccent;
lastChange = "2012-08-26 17:30:05 +0000";
layers = (
{
layerId = "38BA14EB-08C8-4487-88C1-8F957131FCA1";
name = "Regular Condensed";
paths = (
{
closed = 1;
nodes = (
"97 -54 LINE",
"29 -54 LINE",
"14 -123 LINE",
"32 -123 LINE",
"7 -188 LINE",
"56 -188 LINE",
"82 -123 LINE"
);
},
{
closed = 1;
nodes = (
"122 0 LINE",
"192 0 LINE",
"349 735 LINE",
"272 735 LINE",
"198 388 LINE",
"212 735 LINE",
"142 735 LINE",
"-14 0 LINE",
"62 0 LINE",
"138 357 LINE"
);
}
);
width = 267;
}
);
unicode = 0145;
},
{
glyphname = Eng;
lastChange = "2012-08-26 17:30:05 +0000";
layers = (
{
layerId = "38BA14EB-08C8-4487-88C1-8F957131FCA1";
name = "Regular Condensed";
paths = (
{
closed = 1;
nodes = (
"268 735 LINE",
"194 386 LINE",
"209 735 LINE",
"138 735 LINE",
"-17 0 LINE",
"59 0 LINE",
"134 352 LINE",
"113 0 LINE",
"105 -12 OFFCURVE",
"96 -20 OFFCURVE",
"85 -16 CURVE",
"62 -120 LINE",
"104 -126 OFFCURVE",
"135 -110 OFFCURVE",
"153 -84 CURVE SMOOTH",
"169 -61 OFFCURVE",
"181 -31 OFFCURVE",
"189 0 CURVE",
"345 735 LINE"
);
}
);
width = 267;
}
);
unicode = 014A;
},
{
glyphname = Ntilde;
lastChange = "2012-08-26 17:30:05 +0000";
layers = (
{
layerId = "38BA14EB-08C8-4487-88C1-8F957131FCA1";
name = "Regular Condensed";
paths = (
{
closed = 1;
nodes = (
"104 0 LINE",
"174 0 LINE",
"330 735 LINE",
"253 735 LINE",
"179 388 LINE",
"193 735 LINE",
"123 735 LINE",
"-32 0 LINE",
"44 0 LINE",
"119 357 LINE"
);
},
{
closed = 1;
nodes = (
"169 783 LINE",
"175 790 OFFCURVE",
"203 813 OFFCURVE",
"215 813 CURVE SMOOTH",
"235 813 OFFCURVE",
"242 794 OFFCURVE",
"265 794 CURVE SMOOTH",
"283 794 OFFCURVE",
"300 806 OFFCURVE",
"311 819 CURVE",
"328 902 LINE",
"320 892 OFFCURVE",
"295 873 OFFCURVE",
"282 873 CURVE SMOOTH",
"263 873 OFFCURVE",
"256 890 OFFCURVE",
"233 890 CURVE SMOOTH",
"218 890 OFFCURVE",
"199 882 OFFCURVE",
"187 869 CURVE"
);
}
);
width = 267;
}
);
unicode = 00D1;
},
{
glyphname = O;
lastChange = "2012-08-26 17:30:05 +0000";
layers = (
{
anchors = (
{
name = top;
position = "{121, 735}";
}
);
layerId = "38BA14EB-08C8-4487-88C1-8F957131FCA1";
name = "Regular Condensed";
paths = (
{
closed = 1;
nodes = (
"297 594 LINE SMOOTH",
"310 654 OFFCURVE",
"308 743 OFFCURVE",
"228 743 CURVE SMOOTH",
"153 743 OFFCURVE",
"112 670 OFFCURVE",
"96 594 CURVE SMOOTH",
"0 141 LINE SMOOTH",
"-14 71 OFFCURVE",
"-8 -8 OFFCURVE",
"69 -8 CURVE SMOOTH",
"145 -8 OFFCURVE",
"184 65 OFFCURVE",
"200 141 CURVE SMOOTH"
);
},
{
closed = 1;
nodes = (
"117 141 LINE",
"113 118 OFFCURVE",
"102 97 OFFCURVE",
"92 97 CURVE SMOOTH",
"83 97 OFFCURVE",
"79 114 OFFCURVE",
"84 141 CURVE SMOOTH",
"181 594 LINE SMOOTH",
"186 618 OFFCURVE",
"196 638 OFFCURVE",
"207 638 CURVE SMOOTH",
"218 638 OFFCURVE",
"219 617 OFFCURVE",
"214 594 CURVE SMOOTH"
);
}
);
width = 242;
}
);
unicode = 004F;
},
{
glyphname = Oacute;
lastChange = "2012-08-26 17:30:05 +0000";
layers = (
{
layerId = "38BA14EB-08C8-4487-88C1-8F957131FCA1";
name = "Regular Condensed";
paths = (
{
closed = 1;
nodes = (
"248 890 LINE",
"197 800 LINE",
"261 800 LINE",
"328 890 LINE"
);
},
{
closed = 1;
nodes = (
"289 594 LINE SMOOTH",
"302 654 OFFCURVE",
"301 743 OFFCURVE",
"221 743 CURVE SMOOTH",
"146 743 OFFCURVE",
"104 670 OFFCURVE",
"88 594 CURVE SMOOTH",
"-7 141 LINE SMOOTH",
"-22 71 OFFCURVE",
"-16 -8 OFFCURVE",
"61 -8 CURVE SMOOTH",
"137 -8 OFFCURVE",
"176 65 OFFCURVE",
"193 141 CURVE SMOOTH"
);
},
{
closed = 1;
nodes = (
"110 141 LINE SMOOTH",
"105 118 OFFCURVE",
"94 97 OFFCURVE",
"84 97 CURVE SMOOTH",
"75 97 OFFCURVE",
"71 114 OFFCURVE",
"77 141 CURVE SMOOTH",
"173 594 LINE SMOOTH",
"178 618 OFFCURVE",
"188 638 OFFCURVE",
"199 638 CURVE SMOOTH",
"210 638 OFFCURVE",
"211 617 OFFCURVE",
"206 594 CURVE SMOOTH"
);
}
);
width = 242;
}
);
unicode = 00D3;
},
{
glyphname = Obreve;
lastChange = "2012-08-26 17:30:05 +0000";
layers = (
{
layerId = "38BA14EB-08C8-4487-88C1-8F957131FCA1";
name = "Regular Condensed";
paths = (
{
closed = 1;
nodes = (
"287 594 LINE SMOOTH",
"300 654 OFFCURVE",
"299 743 OFFCURVE",
"219 743 CURVE SMOOTH",
"144 743 OFFCURVE",
"102 670 OFFCURVE",
"86 594 CURVE SMOOTH",
"-9 141 LINE SMOOTH",
"-24 71 OFFCURVE",
"-18 -8 OFFCURVE",
"59 -8 CURVE SMOOTH",
"135 -8 OFFCURVE",
"174 65 OFFCURVE",
"191 141 CURVE SMOOTH"
);
},
{
closed = 1;
nodes = (
"108 141 LINE SMOOTH",
"103 118 OFFCURVE",
"92 97 OFFCURVE",
"82 97 CURVE SMOOTH",
"73 97 OFFCURVE",
"69 114 OFFCURVE",
"75 141 CURVE SMOOTH",
"171 594 LINE SMOOTH",
"176 618 OFFCURVE",
"186 638 OFFCURVE",
"197 638 CURVE SMOOTH",
"208 638 OFFCURVE",
"209 617 OFFCURVE",
"204 594 CURVE SMOOTH"
);
},
{
closed = 1;
nodes = (
"290 928 LINE",
"290 928 OFFCURVE",
"264 897 OFFCURVE",
"248 897 CURVE SMOOTH",
"230 897 OFFCURVE",
"222 929 OFFCURVE",
"222 929 CURVE",
"169 872 LINE",
"176 846 OFFCURVE",
"202 824 OFFCURVE",
"233 824 CURVE SMOOTH",
"264 824 OFFCURVE",
"293 844 OFFCURVE",
"317 872 CURVE"
);
}
);
width = 242;
}
);
unicode = 014E;
},
{
glyphname = Ocircumflex;
lastChange = "2012-08-26 17:30:05 +0000";
layers = (
{
layerId = "38BA14EB-08C8-4487-88C1-8F957131FCA1";
name = "Regular Condensed";
paths = (
{
closed = 1;
nodes = (
"289 594 LINE SMOOTH",
"302 654 OFFCURVE",
"301 743 OFFCURVE",
"221 743 CURVE SMOOTH",
"146 743 OFFCURVE",
"104 670 OFFCURVE",
"88 594 CURVE SMOOTH",
"-7 141 LINE SMOOTH",
"-22 71 OFFCURVE",
"-16 -8 OFFCURVE",
"61 -8 CURVE SMOOTH",
"137 -8 OFFCURVE",
"176 65 OFFCURVE",
"193 141 CURVE SMOOTH"
);
},
{
closed = 1;
nodes = (
"110 141 LINE SMOOTH",
"105 118 OFFCURVE",
"94 97 OFFCURVE",
"84 97 CURVE SMOOTH",
"75 97 OFFCURVE",
"71 114 OFFCURVE",
"77 141 CURVE SMOOTH",
"173 594 LINE SMOOTH",
"178 618 OFFCURVE",
"188 638 OFFCURVE",
"199 638 CURVE SMOOTH",
"210 638 OFFCURVE",
"211 617 OFFCURVE",
"206 594 CURVE SMOOTH"
);
},
{
closed = 1;
nodes = (
"211 890 LINE",
"150 800 LINE",
"215 800 LINE",
"240 839 LINE",
"249 800 LINE",
"314 800 LINE",
"292 890 LINE"
);
}
);
width = 242;
}
);
unicode = 00D4;
},
{
glyphname = Odieresis;
lastChange = "2012-08-26 17:30:05 +0000";
layers = (
{
layerId = "38BA14EB-08C8-4487-88C1-8F957131FCA1";
name = "Regular Condensed";
paths = (
{
closed = 1;
nodes = (
"288 594 LINE SMOOTH",
"301 654 OFFCURVE",
"300 743 OFFCURVE",
"220 743 CURVE SMOOTH",
"145 743 OFFCURVE",
"104 670 OFFCURVE",
"87 594 CURVE SMOOTH",
"-8 141 LINE SMOOTH",
"-23 71 OFFCURVE",
"-16 -8 OFFCURVE",
"61 -8 CURVE SMOOTH",
"137 -8 OFFCURVE",
"176 65 OFFCURVE",
"192 141 CURVE SMOOTH"
);
},
{
closed = 1;
nodes = (
"109 141 LINE SMOOTH",
"104 118 OFFCURVE",
"94 97 OFFCURVE",
"84 97 CURVE SMOOTH",
"75 97 OFFCURVE",
"70 114 OFFCURVE",
"76 141 CURVE SMOOTH",
"172 594 LINE",
"178 618 OFFCURVE",
"188 638 OFFCURVE",
"199 638 CURVE SMOOTH",
"210 638 OFFCURVE",
"210 617 OFFCURVE",
"205 594 CURVE SMOOTH"
);
},
{
closed = 1;
nodes = (
"147 800 LINE",
"221 800 LINE",
"242 898 LINE",
"168 898 LINE"
);
},
{
closed = 1;
nodes = (
"244 800 LINE",
"317 800 LINE",
"338 898 LINE",
"265 898 LINE"
);
}
);
width = 242;
}
);
unicode = 00D6;
},
{
glyphname = Ograve;
lastChange = "2012-08-26 17:30:05 +0000";
layers = (
{
layerId = "38BA14EB-08C8-4487-88C1-8F957131FCA1";
name = "Regular Condensed";
paths = (
{
closed = 1;
nodes = (
"169 890 LINE",
"198 800 LINE",
"262 800 LINE",
"249 890 LINE"
);
},
{
closed = 1;
nodes = (
"289 594 LINE SMOOTH",
"302 654 OFFCURVE",
"301 743 OFFCURVE",
"221 743 CURVE SMOOTH",
"146 743 OFFCURVE",
"104 670 OFFCURVE",
"88 594 CURVE SMOOTH",
"-7 141 LINE SMOOTH",
"-22 71 OFFCURVE",
"-16 -8 OFFCURVE",
"61 -8 CURVE SMOOTH",
"137 -8 OFFCURVE",
"176 65 OFFCURVE",
"193 141 CURVE SMOOTH"
);
},
{
closed = 1;
nodes = (
"110 141 LINE SMOOTH",
"105 118 OFFCURVE",
"94 97 OFFCURVE",
"84 97 CURVE SMOOTH",
"75 97 OFFCURVE",
"71 114 OFFCURVE",
"77 141 CURVE SMOOTH",
"173 594 LINE SMOOTH",
"178 618 OFFCURVE",
"188 638 OFFCURVE",
"199 638 CURVE SMOOTH",
"210 638 OFFCURVE",
"211 617 OFFCURVE",
"206 594 CURVE SMOOTH"
);
}
);
width = 242;
}
);
unicode = 00D2;
},
{
glyphname = Ohungarumlaut;
lastChange = "2012-08-26 17:30:05 +0000";
layers = (
{
layerId = "38BA14EB-08C8-4487-88C1-8F957131FCA1";
name = "Regular Condensed";
paths = (
{
closed = 1;
nodes = (
"184 915 LINE",
"134 825 LINE",
"197 825 LINE",
"264 915 LINE"
);
},
{
closed = 1;
nodes = (
"293 915 LINE",
"242 825 LINE",
"306 825 LINE",
"373 915 LINE"
);
},
{
closed = 1;
nodes = (
"288 594 LINE SMOOTH",
"300 654 OFFCURVE",
"299 743 OFFCURVE",
"219 743 CURVE SMOOTH",
"144 743 OFFCURVE",
"103 670 OFFCURVE",
"87 594 CURVE SMOOTH",
"-9 141 LINE SMOOTH",
"-24 71 OFFCURVE",
"-17 -8 OFFCURVE",
"60 -8 CURVE SMOOTH",
"136 -8 OFFCURVE",
"175 65 OFFCURVE",
"191 141 CURVE SMOOTH"
);
},
{
closed = 1;
nodes = (
"108 141 LINE SMOOTH",
"103 118 OFFCURVE",
"93 97 OFFCURVE",
"83 97 CURVE SMOOTH",
"74 97 OFFCURVE",
"70 114 OFFCURVE",
"75 141 CURVE SMOOTH",
"172 594 LINE SMOOTH",
"177 618 OFFCURVE",
"187 638 OFFCURVE",
"198 638 CURVE SMOOTH",
"209 638 OFFCURVE",
"210 617 OFFCURVE",
"205 594 CURVE SMOOTH"
);
}
);
width = 242;
}
);
unicode = 0150;
},
{
glyphname = Omacron;
lastChange = "2012-08-26 17:30:05 +0000";
layers = (
{
layerId = "38BA14EB-08C8-4487-88C1-8F957131FCA1";
name = "Regular Condensed";
paths = (
{
closed = 1;
nodes = (
"168 830 LINE",
"302 830 LINE",
"319 909 LINE",
"185 909 LINE"
);
},
{
closed = 1;
nodes = (
"288 594 LINE SMOOTH",
"301 654 OFFCURVE",
"300 743 OFFCURVE",
"220 743 CURVE SMOOTH",
"145 743 OFFCURVE",
"103 670 OFFCURVE",
"87 594 CURVE SMOOTH",
"-8 141 LINE SMOOTH",
"-23 71 OFFCURVE",
"-17 -8 OFFCURVE",
"60 -8 CURVE SMOOTH",
"136 -8 OFFCURVE",
"175 65 OFFCURVE",
"192 141 CURVE SMOOTH"
);
},
{
closed = 1;
nodes = (
"109 141 LINE SMOOTH",
"104 118 OFFCURVE",
"93 97 OFFCURVE",
"83 97 CURVE SMOOTH",
"74 97 OFFCURVE",
"70 114 OFFCURVE",
"76 141 CURVE SMOOTH",
"172 594 LINE SMOOTH",
"177 618 OFFCURVE",
"187 638 OFFCURVE",
"198 638 CURVE SMOOTH",
"209 638 OFFCURVE",
"210 617 OFFCURVE",
"205 594 CURVE SMOOTH"
);
}
);
width = 242;
}
);
unicode = 014C;
},
{
glyphname = Oslash;
lastChange = "2012-08-26 17:30:05 +0000";
layers = (
{
anchors = (
{
name = top;
position = "{121, 735}";
}
);
layerId = "38BA14EB-08C8-4487-88C1-8F957131FCA1";
name = "Regular Condensed";
paths = (
{
closed = 1;
nodes = (
"300 594 LINE SMOOTH",
"305 621 OFFCURVE",
"309 654 OFFCURVE",
"302 682 CURVE",
"328 745 LINE",
"282 745 LINE",
"276 730 LINE",
"264 738 OFFCURVE",
"250 743 OFFCURVE",
"231 743 CURVE SMOOTH",
"156 743 OFFCURVE",
"115 670 OFFCURVE",
"99 594 CURVE SMOOTH",
"2 141 LINE",
"-3 111 OFFCURVE",
"-6 79 OFFCURVE",
"0 53 CURVE",
"-26 -10 LINE",
"21 -10 LINE",
"27 4 LINE",
"39 -3 OFFCURVE",
"53 -8 OFFCURVE",
"72 -8 CURVE SMOOTH",
"148 -8 OFFCURVE",
"187 65 OFFCURVE",
"203 141 CURVE SMOOTH"
);
},
{
closed = 1;
nodes = (
"86 97 OFFCURVE",
"82 114 OFFCURVE",
"87 141 CURVE",
"93 165 LINE",
"162 336 LINE",
"120 141 LINE",
"116 118 OFFCURVE",
"105 97 OFFCURVE",
"95 97 CURVE SMOOTH"
);
},
{
closed = 1;
nodes = (
"213 576 LINE",
"144 408 LINE",
"184 594 LINE SMOOTH",
"189 618 OFFCURVE",
"199 638 OFFCURVE",
"210 638 CURVE SMOOTH",
"221 638 OFFCURVE",
"222 617 OFFCURVE",
"217 594 CURVE SMOOTH"
);
}
);
width = 242;
}
);
unicode = 00D8;
},
{
glyphname = Otilde;
lastChange = "2012-08-26 17:30:05 +0000";
layers = (
{
layerId = "38BA14EB-08C8-4487-88C1-8F957131FCA1";
name = "Regular Condensed";
paths = (
{
closed = 1;
nodes = (
"157 783 LINE",
"164 790 OFFCURVE",
"192 813 OFFCURVE",
"204 813 CURVE SMOOTH",
"224 813 OFFCURVE",
"231 794 OFFCURVE",
"254 794 CURVE SMOOTH",
"272 794 OFFCURVE",
"288 806 OFFCURVE",
"299 819 CURVE",
"317 902 LINE",
"309 892 OFFCURVE",
"284 873 OFFCURVE",
"271 873 CURVE SMOOTH",
"252 873 OFFCURVE",
"244 890 OFFCURVE",
"221 890 CURVE SMOOTH",
"206 890 OFFCURVE",
"187 882 OFFCURVE",
"176 869 CURVE"
);
},
{
closed = 1;
nodes = (
"288 594 LINE SMOOTH",
"301 654 OFFCURVE",
"300 743 OFFCURVE",
"220 743 CURVE SMOOTH",
"145 743 OFFCURVE",
"103 670 OFFCURVE",
"87 594 CURVE SMOOTH",
"-8 141 LINE SMOOTH",
"-23 71 OFFCURVE",
"-17 -8 OFFCURVE",
"60 -8 CURVE SMOOTH",
"136 -8 OFFCURVE",
"176 65 OFFCURVE",
"192 141 CURVE SMOOTH"
);
},
{
closed = 1;
nodes = (
"109 141 LINE SMOOTH",
"104 118 OFFCURVE",
"94 97 OFFCURVE",
"84 97 CURVE SMOOTH",
"75 97 OFFCURVE",
"70 114 OFFCURVE",
"76 141 CURVE SMOOTH",
"172 594 LINE SMOOTH",
"177 618 OFFCURVE",
"188 638 OFFCURVE",
"199 638 CURVE SMOOTH",
"210 638 OFFCURVE",
"210 617 OFFCURVE",
"205 594 CURVE SMOOTH"
);
}
);
width = 242;
}
);
unicode = 00D5;
},
{
glyphname = OE;
lastChange = "2012-08-26 17:30:05 +0000";
layers = (
{
anchors = (
{
name = top;
position = "{159, 735}";
}
);
layerId = "38BA14EB-08C8-4487-88C1-8F957131FCA1";
name = "Regular Condensed";
paths = (
{
closed = 1;
nodes = (
"255 0 LINE",
"279 111 LINE",
"196 111 LINE",
"239 313 LINE",
"299 313 LINE",
"324 431 LINE",
"264 431 LINE",
"305 624 LINE",
"388 624 LINE",
"412 735 LINE",
"228 735 LINE SMOOTH",
"154 735 OFFCURVE",
"114 671 OFFCURVE",
"96 584 CURVE SMOOTH",
"4 151 LINE SMOOTH",
"-13 66 OFFCURVE",
"-3 4 OFFCURVE",
"71 0 CURVE"
);
},
{
closed = 1;
nodes = (
"122 151 LINE",
"120 143 OFFCURVE",
"107 97 OFFCURVE",
"92 97 CURVE SMOOTH",
"82 97 OFFCURVE",
"81 124 OFFCURVE",
"87 151 CURVE SMOOTH",
"179 584 LINE SMOOTH",
"182 600 OFFCURVE",
"197 638 OFFCURVE",
"207 638 CURVE SMOOTH",
"220 638 OFFCURVE",
"216 595 OFFCURVE",
"214 584 CURVE SMOOTH"
);
}
);
width = 318;
}
);
unicode = 0152;
},
{
glyphname = P;
lastChange = "2012-08-26 17:30:05 +0000";
layers = (
{
layerId = "38BA14EB-08C8-4487-88C1-8F957131FCA1";
name = "Regular Condensed";
paths = (
{
closed = 1;
nodes = (
"-24 0 LINE",
"58 0 LINE",
"121 294 LINE",
"151 295 OFFCURVE",
"184 306 OFFCURVE",
"209 336 CURVE SMOOTH",
"238 371 OFFCURVE",
"264 432 OFFCURVE",
"282 515 CURVE SMOOTH",
"300 598 OFFCURVE",
"299 656 OFFCURVE",
"284 691 CURVE SMOOTH",
"270 725 OFFCURVE",
"249 735 OFFCURVE",
"216 735 CURVE SMOOTH",
"132 735 LINE"
);
},
{
closed = 1;
nodes = (
"192 627 LINE",
"201 627 OFFCURVE",
"213 627 OFFCURVE",
"215 616 CURVE",
"220 598 OFFCURVE",
"210 552 OFFCURVE",
"201 511 CURVE SMOOTH",
"192 470 OFFCURVE",
"184 432 OFFCURVE",
"173 416 CURVE SMOOTH",
"166 406 OFFCURVE",
"152 404 OFFCURVE",
"144 404 CURVE"
);
}
);
width = 241;
}
);
unicode = 0050;
},
{
glyphname = Thorn;
lastChange = "2012-08-26 17:30:05 +0000";
layers = (
{
layerId = "38BA14EB-08C8-4487-88C1-8F957131FCA1";
name = "Regular Condensed";
paths = (
{
closed = 1;
nodes = (
"-24 0 LINE",
"58 0 LINE",
"96 176 LINE",
"126 179 OFFCURVE",
"157 195 OFFCURVE",
"183 224 CURVE SMOOTH",
"213 259 OFFCURVE",
"239 314 OFFCURVE",
"257 397 CURVE SMOOTH",
"275 480 OFFCURVE",
"271 536 OFFCURVE",
"257 571 CURVE",
"243 601 OFFCURVE",
"218 615 OFFCURVE",
"190 617 CURVE",
"214 735 LINE",
"132 735 LINE"
);
},
{
closed = 1;
nodes = (
"166 507 LINE",
"175 505 OFFCURVE",
"182 499 OFFCURVE",
"184 484 CURVE",
"189 466 OFFCURVE",
"183 434 OFFCURVE",
"174 393 CURVE SMOOTH",
"165 352 OFFCURVE",
"158 322 OFFCURVE",
"147 306 CURVE",
"139 292 OFFCURVE",
"129 288 OFFCURVE",
"119 286 CURVE"
);
}
);
width = 242;
}
);
unicode = 00DE;
},
{
glyphname = Q;
lastChange = "2012-08-26 17:30:05 +0000";
layers = (
{
layerId = "38BA14EB-08C8-4487-88C1-8F957131FCA1";
name = "Regular Condensed";
paths = (
{
closed = 1;
nodes = (
"295 594 LINE SMOOTH",
"308 654 OFFCURVE",
"307 743 OFFCURVE",
"227 743 CURVE SMOOTH",
"152 743 OFFCURVE",
"114 670 OFFCURVE",
"98 594 CURVE SMOOTH",
"2 141 LINE SMOOTH",
"-11 77 OFFCURVE",
"-10 -2 OFFCURVE",
"61 -7 CURVE",
"62 -7 OFFCURVE",
"62 -8 OFFCURVE",
"64 -8 CURVE SMOOTH",
"72 -8 LINE",
"85 -6 LINE",
"88 -6 OFFCURVE",
"91 -5 OFFCURVE",
"94 -4 CURVE",
"95 -4 LINE",
"100 -32 OFFCURVE",
"118 -56 OFFCURVE",
"165 -56 CURVE",
"184 34 LINE",
"175 37 OFFCURVE",
"169 43 OFFCURVE",
"165 52 CURVE",
"165 53 LINE",
"166 52 OFFCURVE",
"165 53 OFFCURVE",
"166 54 CURVE",
"180 80 OFFCURVE",
"193 111 OFFCURVE",
"199 141 CURVE SMOOTH"
);
},
{
closed = 1;
nodes = (
"114 141 LINE SMOOTH",
"110 121 OFFCURVE",
"101 97 OFFCURVE",
"91 97 CURVE SMOOTH",
"82 97 OFFCURVE",
"82 118 OFFCURVE",
"87 141 CURVE SMOOTH",
"183 594 LINE SMOOTH",
"188 618 OFFCURVE",
"195 638 OFFCURVE",
"206 638 CURVE SMOOTH",
"217 638 OFFCURVE",
"215 617 OFFCURVE",
"210 594 CURVE SMOOTH"
);
}
);
width = 244;
}
);
unicode = 0051;
},
{
glyphname = R;
lastChange = "2012-08-26 17:30:05 +0000";
layers = (
{
anchors = (
{
name = bottom;
position = "{124, 0}";
},
{
name = top;
position = "{124, 735}";
}
);
layerId = "38BA14EB-08C8-4487-88C1-8F957131FCA1";
name = "Regular Condensed";
paths = (
{
closed = 1;
nodes = (
"182 0 LINE",
"207 356 LINE",
"240 387 OFFCURVE",
"266 453 OFFCURVE",
"281 523 CURVE SMOOTH",
"310 662 OFFCURVE",
"294 735 OFFCURVE",
"216 735 CURVE SMOOTH",
"132 735 LINE",
"-24 0 LINE",
"58 0 LINE",
"127 320 LINE",
"101 0 LINE"
);
},
{
closed = 1;
nodes = (
"192 628 LINE",
"197 628 OFFCURVE",
"208 629 OFFCURVE",
"213 618 CURVE SMOOTH",
"218 606 OFFCURVE",
"212 573 OFFCURVE",
"201 519 CURVE SMOOTH",
"190 466 OFFCURVE",
"181 429 OFFCURVE",
"169 416 CURVE SMOOTH",
"162 408 OFFCURVE",
"152 405 OFFCURVE",
"145 405 CURVE"
);
}
);
width = 247;
}
);
unicode = 0052;
},
{
glyphname = Racute;
lastChange = "2012-08-26 17:30:05 +0000";
layers = (
{
layerId = "38BA14EB-08C8-4487-88C1-8F957131FCA1";
name = "Regular Condensed";
paths = (
{
closed = 1;
nodes = (
"229 915 LINE",
"179 825 LINE",
"243 825 LINE",
"309 915 LINE"
);
},
{
closed = 1;
nodes = (
"173 0 LINE",
"198 356 LINE",
"230 387 OFFCURVE",
"256 453 OFFCURVE",
"271 523 CURVE SMOOTH",
"301 662 OFFCURVE",
"284 735 OFFCURVE",
"206 735 CURVE SMOOTH",
"122 735 LINE",
"-33 0 LINE",
"49 0 LINE",
"117 320 LINE",
"92 0 LINE"
);
},
{
closed = 1;
nodes = (
"182 628 LINE",
"187 628 OFFCURVE",
"199 629 OFFCURVE",
"203 618 CURVE",
"209 606 OFFCURVE",
"203 573 OFFCURVE",
"191 519 CURVE SMOOTH",
"180 466 OFFCURVE",
"171 429 OFFCURVE",
"159 416 CURVE",
"153 408 OFFCURVE",
"142 405 OFFCURVE",
"135 405 CURVE"
);
}
);
width = 247;
}
);
unicode = 0154;
},
{
glyphname = Rcaron;
lastChange = "2012-08-26 17:30:05 +0000";
layers = (
{
layerId = "38BA14EB-08C8-4487-88C1-8F957131FCA1";
name = "Regular Condensed";
paths = (
{
closed = 1;
nodes = (
"173 0 LINE",
"198 356 LINE",
"230 387 OFFCURVE",
"256 453 OFFCURVE",
"271 523 CURVE SMOOTH",
"301 662 OFFCURVE",
"284 735 OFFCURVE",
"206 735 CURVE SMOOTH",
"122 735 LINE",
"-33 0 LINE",
"49 0 LINE",
"117 320 LINE",
"92 0 LINE"
);
},
{
closed = 1;
nodes = (
"182 628 LINE",
"187 628 OFFCURVE",
"199 629 OFFCURVE",
"203 618 CURVE",
"209 606 OFFCURVE",
"203 573 OFFCURVE",
"191 519 CURVE SMOOTH",
"180 466 OFFCURVE",
"171 429 OFFCURVE",
"159 416 CURVE",
"153 408 OFFCURVE",
"142 405 OFFCURVE",
"135 405 CURVE"
);
},
{
closed = 1;
nodes = (
"276 825 LINE",
"336 915 LINE",
"271 915 LINE",
"246 876 LINE",
"237 915 LINE",
"172 915 LINE",
"195 825 LINE"
);
}
);
width = 247;
}
);
unicode = 0158;
},
{
glyphname = Rcommaaccent;
lastChange = "2012-08-26 17:30:05 +0000";
layers = (
{
layerId = "38BA14EB-08C8-4487-88C1-8F957131FCA1";
name = "Regular Condensed";
paths = (
{
closed = 1;
nodes = (
"97 -54 LINE",
"29 -54 LINE",
"14 -123 LINE",
"32 -123 LINE",
"7 -188 LINE",
"56 -188 LINE",
"82 -123 LINE"
);
},
{
closed = 1;
nodes = (
"192 0 LINE",
"217 356 LINE",
"250 387 OFFCURVE",
"276 453 OFFCURVE",
"291 523 CURVE SMOOTH",
"320 662 OFFCURVE",
"304 735 OFFCURVE",
"226 735 CURVE SMOOTH",
"142 735 LINE",
"-14 0 LINE",
"68 0 LINE",
"137 320 LINE",
"111 0 LINE"
);
},
{
closed = 1;
nodes = (
"202 628 LINE",
"207 628 OFFCURVE",
"218 629 OFFCURVE",
"223 618 CURVE SMOOTH",
"228 606 OFFCURVE",
"222 573 OFFCURVE",
"211 519 CURVE SMOOTH",
"200 466 OFFCURVE",
"191 429 OFFCURVE",
"179 416 CURVE SMOOTH",
"172 408 OFFCURVE",
"162 405 OFFCURVE",
"155 405 CURVE"
);
}
);
width = 247;
}
);
unicode = 0156;
},
{
glyphname = S;
lastChange = "2012-08-26 17:30:05 +0000";
layers = (
{
anchors = (
{
name = bottom;
position = "{118, 0}";
},
{
name = top;
position = "{118, 735}";
}
);
layerId = "38BA14EB-08C8-4487-88C1-8F957131FCA1";
name = "Regular Condensed";
paths = (
{
closed = 1;
nodes = (
"281 549 LINE",
"294 610 OFFCURVE",
"319 745 OFFCURVE",
"222 743 CURVE SMOOTH",
"142 741 OFFCURVE",
"106 635 OFFCURVE",
"93 571 CURVE SMOOTH",
"81 514 OFFCURVE",
"88 441 OFFCURVE",
"98 382 CURVE SMOOTH",
"119 279 OFFCURVE",
"130 224 OFFCURVE",
"117 162 CURVE SMOOTH",
"107 115 OFFCURVE",
"100 91 OFFCURVE",
"85 91 CURVE SMOOTH",
"63 91 OFFCURVE",
"85 194 OFFCURVE",
"90 217 CURVE",
"6 205 LINE",
"-7 138 OFFCURVE",
"-40 -8 OFFCURVE",
"64 -8 CURVE SMOOTH",
"150 -8 OFFCURVE",
"185 97 OFFCURVE",
"200 167 CURVE SMOOTH",
"216 241 OFFCURVE",
"203 311 OFFCURVE",
"186 398 CURVE SMOOTH",
"173 471 OFFCURVE",
"164 523 OFFCURVE",
"174 571 CURVE SMOOTH",
"183 614 OFFCURVE",
"191 644 OFFCURVE",
"203 644 CURVE SMOOTH",
"219 644 OFFCURVE",
"202 563 OFFCURVE",
"197 537 CURVE"
);
}
);
width = 236;
}
);
leftKerningGroup = S;
unicode = 0053;
},
{
glyphname = Sacute;
lastChange = "2012-08-26 17:30:05 +0000";
layers = (
{
layerId = "38BA14EB-08C8-4487-88C1-8F957131FCA1";
name = "Regular Condensed";
paths = (
{
closed = 1;
nodes = (
"225 915 LINE",
"174 825 LINE",
"238 825 LINE",
"305 915 LINE"
);
},
{
closed = 1;
nodes = (
"272 549 LINE",
"285 610 OFFCURVE",
"310 745 OFFCURVE",
"213 743 CURVE SMOOTH",
"133 741 OFFCURVE",
"97 635 OFFCURVE",
"84 571 CURVE SMOOTH",
"72 514 OFFCURVE",
"79 441 OFFCURVE",
"89 382 CURVE SMOOTH",
"110 279 OFFCURVE",
"121 224 OFFCURVE",
"108 162 CURVE SMOOTH",
"98 115 OFFCURVE",
"91 91 OFFCURVE",
"76 91 CURVE SMOOTH",
"54 91 OFFCURVE",
"76 194 OFFCURVE",
"80 217 CURVE",
"-2 205 LINE",
"-16 138 OFFCURVE",
"-49 -8 OFFCURVE",
"55 -8 CURVE SMOOTH",
"141 -8 OFFCURVE",
"176 97 OFFCURVE",
"191 167 CURVE SMOOTH",
"207 241 OFFCURVE",
"194 311 OFFCURVE",
"177 398 CURVE SMOOTH",
"163 471 OFFCURVE",
"155 523 OFFCURVE",
"165 571 CURVE SMOOTH",
"174 614 OFFCURVE",
"182 644 OFFCURVE",
"194 644 CURVE SMOOTH",
"210 644 OFFCURVE",
"193 563 OFFCURVE",
"187 537 CURVE"
);
}
);
width = 236;
}
);
unicode = 015A;
},
{
glyphname = Scaron;
lastChange = "2012-08-26 17:30:05 +0000";
layers = (
{
layerId = "38BA14EB-08C8-4487-88C1-8F957131FCA1";
name = "Regular Condensed";
paths = (
{
closed = 1;
nodes = (
"273 549 LINE",
"286 610 OFFCURVE",
"311 745 OFFCURVE",
"215 743 CURVE SMOOTH",
"134 741 OFFCURVE",
"99 635 OFFCURVE",
"85 571 CURVE SMOOTH",
"73 514 OFFCURVE",
"80 441 OFFCURVE",
"90 382 CURVE SMOOTH",
"111 279 OFFCURVE",
"122 224 OFFCURVE",
"109 162 CURVE SMOOTH",
"99 115 OFFCURVE",
"92 91 OFFCURVE",
"77 91 CURVE SMOOTH",
"55 91 OFFCURVE",
"77 194 OFFCURVE",
"82 217 CURVE",
"-1 205 LINE",
"-15 138 OFFCURVE",
"-48 -8 OFFCURVE",
"56 -8 CURVE SMOOTH",
"142 -8 OFFCURVE",
"177 97 OFFCURVE",
"192 167 CURVE SMOOTH",
"208 241 OFFCURVE",
"196 311 OFFCURVE",
"178 398 CURVE SMOOTH",
"165 471 OFFCURVE",
"156 523 OFFCURVE",
"166 571 CURVE SMOOTH",
"175 614 OFFCURVE",
"184 644 OFFCURVE",
"196 644 CURVE SMOOTH",
"212 644 OFFCURVE",
"194 563 OFFCURVE",
"189 537 CURVE"
);
},
{
closed = 1;
nodes = (
"267 800 LINE",
"327 890 LINE",
"262 890 LINE",
"237 851 LINE",
"228 890 LINE",
"163 890 LINE",
"186 800 LINE"
);
}
);
width = 236;
}
);
leftKerningGroup = S;
unicode = 0160;
},
{
glyphname = Scedilla;
lastChange = "2012-08-26 17:30:05 +0000";
layers = (
{
layerId = "38BA14EB-08C8-4487-88C1-8F957131FCA1";
name = "Regular Condensed";
paths = (
{
closed = 1;
nodes = (
"96 -54 LINE",
"28 -54 LINE",
"14 -123 LINE",
"32 -123 LINE",
"6 -188 LINE",
"55 -188 LINE",
"82 -123 LINE"
);
},
{
closed = 1;
nodes = (
"291 549 LINE",
"304 610 OFFCURVE",
"328 745 OFFCURVE",
"232 743 CURVE SMOOTH",
"151 741 OFFCURVE",
"116 635 OFFCURVE",
"102 571 CURVE SMOOTH",
"90 514 OFFCURVE",
"98 441 OFFCURVE",
"107 382 CURVE",
"128 279 OFFCURVE",
"140 224 OFFCURVE",
"126 162 CURVE SMOOTH",
"116 115 OFFCURVE",
"109 91 OFFCURVE",
"94 91 CURVE SMOOTH",
"72 91 OFFCURVE",
"94 194 OFFCURVE",
"99 217 CURVE",
"16 205 LINE",
"1 138 OFFCURVE",
"-31 -8 OFFCURVE",
"73 -8 CURVE SMOOTH",
"159 -8 OFFCURVE",
"195 97 OFFCURVE",
"209 167 CURVE SMOOTH",
"225 241 OFFCURVE",
"213 311 OFFCURVE",
"196 398 CURVE SMOOTH",
"182 471 OFFCURVE",
"173 523 OFFCURVE",
"183 571 CURVE SMOOTH",
"192 614 OFFCURVE",
"201 644 OFFCURVE",
"213 644 CURVE SMOOTH",
"229 644 OFFCURVE",
"212 563 OFFCURVE",
"206 537 CURVE"
);
}
);
width = 236;
}
);
unicode = 015E;
},
{
glyphname = Scircumflex;
lastChange = "2012-08-26 17:30:05 +0000";
layers = (
{
layerId = "38BA14EB-08C8-4487-88C1-8F957131FCA1";
name = "Regular Condensed";
paths = (
{
closed = 1;
nodes = (
"206 890 LINE",
"145 800 LINE",
"210 800 LINE",
"235 839 LINE",
"244 800 LINE",
"309 800 LINE",
"287 890 LINE"
);
},
{
closed = 1;
nodes = (
"273 549 LINE",
"286 610 OFFCURVE",
"311 745 OFFCURVE",
"215 743 CURVE SMOOTH",
"134 741 OFFCURVE",
"99 635 OFFCURVE",
"85 571 CURVE SMOOTH",
"73 514 OFFCURVE",
"80 441 OFFCURVE",
"90 382 CURVE SMOOTH",
"111 279 OFFCURVE",
"122 224 OFFCURVE",
"109 162 CURVE SMOOTH",
"99 115 OFFCURVE",
"92 91 OFFCURVE",
"77 91 CURVE SMOOTH",
"55 91 OFFCURVE",
"77 194 OFFCURVE",
"82 217 CURVE",
"-1 205 LINE",
"-15 138 OFFCURVE",
"-48 -8 OFFCURVE",
"56 -8 CURVE SMOOTH",
"142 -8 OFFCURVE",
"177 97 OFFCURVE",
"192 167 CURVE SMOOTH",
"208 241 OFFCURVE",
"196 311 OFFCURVE",
"178 398 CURVE SMOOTH",
"165 471 OFFCURVE",
"156 523 OFFCURVE",
"166 571 CURVE SMOOTH",
"175 614 OFFCURVE",
"184 644 OFFCURVE",
"196 644 CURVE SMOOTH",
"212 644 OFFCURVE",
"194 563 OFFCURVE",
"189 537 CURVE"
);
}
);
width = 236;
}
);
unicode = 015C;
},
{
glyphname = T;
lastChange = "2012-08-26 17:30:05 +0000";
layers = (
{
anchors = (
{
name = bottom;
position = "{110, 0}";
},
{
name = center;
position = "{110, 368}";
},
{
name = top;
position = "{110, 735}";
}
);
layerId = "38BA14EB-08C8-4487-88C1-8F957131FCA1";
name = "Regular Condensed";
paths = (
{
closed = 1;
nodes = (
"146 624 LINE",
"13 0 LINE",
"96 0 LINE",
"229 624 LINE",
"290 624 LINE",
"314 735 LINE",
"109 735 LINE",
"85 624 LINE"
);
}
);
width = 220;
}
);
unicode = 0054;
},
{
glyphname = Tbar;
lastChange = "2012-08-26 17:30:05 +0000";
layers = (
{
layerId = "38BA14EB-08C8-4487-88C1-8F957131FCA1";
name = "Regular Condensed";
paths = (
{
closed = 1;
nodes = (
"290 624 LINE",
"314 735 LINE",
"109 735 LINE",
"85 624 LINE",
"146 624 LINE",
"130 550 LINE",
"107 550 LINE",
"91 471 LINE",
"114 471 LINE",
"13 0 LINE",
"96 0 LINE",
"197 471 LINE",
"225 471 LINE",
"241 550 LINE",
"213 550 LINE",
"229 624 LINE"
);
}
);
width = 220;
}
);
unicode = 0166;
},
{
glyphname = Tcaron;
lastChange = "2012-08-26 17:30:05 +0000";
layers = (
{
layerId = "38BA14EB-08C8-4487-88C1-8F957131FCA1";
name = "Regular Condensed";
paths = (
{
closed = 1;
nodes = (
"137 624 LINE",
"4 0 LINE",
"87 0 LINE",
"220 624 LINE",
"281 624 LINE",
"304 735 LINE",
"99 735 LINE",
"76 624 LINE"
);
},
{
closed = 1;
nodes = (
"263 825 LINE",
"323 915 LINE",
"258 915 LINE",
"233 876 LINE",
"224 915 LINE",
"159 915 LINE",
"182 825 LINE"
);
}
);
width = 220;
}
);
unicode = 0164;
},
{
glyphname = uni021A;
lastChange = "2012-08-26 17:30:05 +0000";
layers = (
{
layerId = "38BA14EB-08C8-4487-88C1-8F957131FCA1";
name = "Regular Condensed";
paths = (
{
closed = 1;
nodes = (
"156 624 LINE",
"23 0 LINE",
"106 0 LINE",
"239 624 LINE",
"300 624 LINE",
"324 735 LINE",
"119 735 LINE",
"95 624 LINE"
);
},
{
closed = 1;
nodes = (
"97 -54 LINE",
"29 -54 LINE",
"14 -123 LINE",
"32 -123 LINE",
"7 -188 LINE",
"56 -188 LINE",
"82 -123 LINE"
);
}
);
width = 220;
}
);
unicode = 021A;
},
{
glyphname = U;
lastChange = "2012-08-26 17:30:05 +0000";
layers = (
{
anchors = (
{
name = ogonek;
position = "{225, 10}";
},
{
name = top;
position = "{125, 735}";
}
);
layerId = "38BA14EB-08C8-4487-88C1-8F957131FCA1";
name = "Regular Condensed";
paths = (
{
closed = 1;
nodes = (
"239 735 LINE",
"113 141 LINE SMOOTH",
"108 117 OFFCURVE",
"101 97 OFFCURVE",
"89 97 CURVE SMOOTH",
"76 97 OFFCURVE",
"76 113 OFFCURVE",
"82 141 CURVE SMOOTH",
"208 735 LINE",
"125 735 LINE",
"0 141 LINE SMOOTH",
"-16 66 OFFCURVE",
"-13 -8 OFFCURVE",
"66 -8 CURVE SMOOTH",
"141 -8 OFFCURVE",
"178 58 OFFCURVE",
"196 141 CURVE SMOOTH",
"322 735 LINE"
);
}
);
width = 250;
}
);
unicode = 0055;
},
{
glyphname = Uacute;
lastChange = "2012-08-26 17:30:05 +0000";
layers = (
{
layerId = "38BA14EB-08C8-4487-88C1-8F957131FCA1";
name = "Regular Condensed";
paths = (
{
closed = 1;
nodes = (
"254 890 LINE",
"204 800 LINE",
"268 800 LINE",
"334 890 LINE"
);
},
{
closed = 1;
nodes = (
"231 735 LINE",
"105 141 LINE SMOOTH",
"100 117 OFFCURVE",
"92 97 OFFCURVE",
"80 97 CURVE SMOOTH",
"67 97 OFFCURVE",
"68 113 OFFCURVE",
"74 141 CURVE SMOOTH",
"200 735 LINE",
"117 735 LINE",
"-8 141 LINE SMOOTH",
"-24 66 OFFCURVE",
"-21 -8 OFFCURVE",
"58 -8 CURVE SMOOTH",
"133 -8 OFFCURVE",
"170 58 OFFCURVE",
"188 141 CURVE SMOOTH",
"314 735 LINE"
);
}
);
width = 250;
}
);
unicode = 00DA;
},
{
glyphname = Ubreve;
lastChange = "2012-08-26 17:30:05 +0000";
layers = (
{
layerId = "38BA14EB-08C8-4487-88C1-8F957131FCA1";
name = "Regular Condensed";
paths = (
{
closed = 1;
nodes = (
"229 735 LINE",
"103 141 LINE",
"97 117 OFFCURVE",
"90 97 OFFCURVE",
"78 97 CURVE SMOOTH",
"65 97 OFFCURVE",
"66 113 OFFCURVE",
"72 141 CURVE SMOOTH",
"198 735 LINE",
"115 735 LINE",
"-10 141 LINE SMOOTH",
"-26 66 OFFCURVE",
"-23 -8 OFFCURVE",
"56 -8 CURVE SMOOTH",
"131 -8 OFFCURVE",
"168 58 OFFCURVE",
"186 141 CURVE SMOOTH",
"312 735 LINE"
);
},
{
closed = 1;
nodes = (
"293 928 LINE",
"293 928 OFFCURVE",
"267 897 OFFCURVE",
"251 897 CURVE SMOOTH",
"233 897 OFFCURVE",
"225 929 OFFCURVE",
"225 929 CURVE",
"172 872 LINE",
"179 846 OFFCURVE",
"205 824 OFFCURVE",
"236 824 CURVE SMOOTH",
"267 824 OFFCURVE",
"296 844 OFFCURVE",
"320 872 CURVE"
);
}
);
width = 250;
}
);
unicode = 016C;
},
{
glyphname = Ucircumflex;
lastChange = "2012-08-26 17:30:05 +0000";
layers = (
{
layerId = "38BA14EB-08C8-4487-88C1-8F957131FCA1";
name = "Regular Condensed";
paths = (
{
closed = 1;
nodes = (
"231 735 LINE",
"105 141 LINE SMOOTH",
"100 117 OFFCURVE",
"92 97 OFFCURVE",
"80 97 CURVE SMOOTH",
"67 97 OFFCURVE",
"68 113 OFFCURVE",
"74 141 CURVE SMOOTH",
"200 735 LINE",
"117 735 LINE",
"-8 141 LINE SMOOTH",
"-24 66 OFFCURVE",
"-21 -8 OFFCURVE",
"58 -8 CURVE SMOOTH",
"133 -8 OFFCURVE",
"170 58 OFFCURVE",
"188 141 CURVE SMOOTH",
"314 735 LINE"
);
},
{
closed = 1;
nodes = (
"206 890 LINE",
"145 800 LINE",
"210 800 LINE",
"235 839 LINE",
"244 800 LINE",
"309 800 LINE",
"287 890 LINE"
);
}
);
width = 250;
}
);
unicode = 00DB;
},
{
glyphname = Udieresis;
lastChange = "2012-08-26 17:30:05 +0000";
layers = (
{
layerId = "38BA14EB-08C8-4487-88C1-8F957131FCA1";
name = "Regular Condensed";
paths = (
{
closed = 1;
nodes = (
"230 735 LINE",
"104 141 LINE SMOOTH",
"99 117 OFFCURVE",
"92 97 OFFCURVE",
"80 97 CURVE SMOOTH",
"67 97 OFFCURVE",
"67 113 OFFCURVE",
"73 141 CURVE SMOOTH",
"199 735 LINE",
"116 735 LINE",
"-9 141 LINE SMOOTH",
"-25 66 OFFCURVE",
"-21 -8 OFFCURVE",
"58 -8 CURVE SMOOTH",
"133 -8 OFFCURVE",
"170 58 OFFCURVE",
"187 141 CURVE SMOOTH",
"313 735 LINE"
);
},
{
closed = 1;
nodes = (
"143 800 LINE",
"217 800 LINE",
"238 898 LINE",
"164 898 LINE"
);
},
{
closed = 1;
nodes = (
"240 800 LINE",
"313 800 LINE",
"334 898 LINE",
"261 898 LINE"
);
}
);
width = 250;
}
);
unicode = 00DC;
},
{
glyphname = Ugrave;
lastChange = "2012-08-26 17:30:05 +0000";
layers = (
{
layerId = "38BA14EB-08C8-4487-88C1-8F957131FCA1";
name = "Regular Condensed";
paths = (
{
closed = 1;
nodes = (
"177 890 LINE",
"205 800 LINE",
"269 800 LINE",
"257 890 LINE"
);
},
{
closed = 1;
nodes = (
"231 735 LINE",
"105 141 LINE SMOOTH",
"100 117 OFFCURVE",
"92 97 OFFCURVE",
"80 97 CURVE SMOOTH",
"67 97 OFFCURVE",
"68 113 OFFCURVE",
"74 141 CURVE SMOOTH",
"200 735 LINE",
"117 735 LINE",
"-8 141 LINE SMOOTH",
"-24 66 OFFCURVE",
"-21 -8 OFFCURVE",
"58 -8 CURVE SMOOTH",
"133 -8 OFFCURVE",
"170 58 OFFCURVE",
"188 141 CURVE SMOOTH",
"314 735 LINE"
);
}
);
width = 250;
}
);
unicode = 00D9;
},
{
glyphname = Uhungarumlaut;
lastChange = "2012-08-26 17:30:05 +0000";
layers = (
{
layerId = "38BA14EB-08C8-4487-88C1-8F957131FCA1";
name = "Regular Condensed";
paths = (
{
closed = 1;
nodes = (
"187 915 LINE",
"137 825 LINE",
"201 825 LINE",
"267 915 LINE"
);
},
{
closed = 1;
nodes = (
"296 915 LINE",
"246 825 LINE",
"310 825 LINE",
"376 915 LINE"
);
},
{
closed = 1;
nodes = (
"230 735 LINE",
"103 141 LINE SMOOTH",
"98 117 OFFCURVE",
"91 97 OFFCURVE",
"79 97 CURVE SMOOTH",
"66 97 OFFCURVE",
"66 113 OFFCURVE",
"72 141 CURVE SMOOTH",
"199 735 LINE",
"116 735 LINE",
"-10 141 LINE SMOOTH",
"-26 66 OFFCURVE",
"-22 -8 OFFCURVE",
"57 -8 CURVE SMOOTH",
"132 -8 OFFCURVE",
"169 58 OFFCURVE",
"186 141 CURVE SMOOTH",
"313 735 LINE"
);
}
);
width = 250;
}
);
unicode = 0170;
},
{
glyphname = Umacron;
lastChange = "2012-08-26 17:30:05 +0000";
layers = (
{
layerId = "38BA14EB-08C8-4487-88C1-8F957131FCA1";
name = "Regular Condensed";
paths = (
{
closed = 1;
nodes = (
"171 830 LINE",
"306 830 LINE",
"323 909 LINE",
"188 909 LINE"
);
},
{
closed = 1;
nodes = (
"230 735 LINE",
"104 141 LINE SMOOTH",
"99 117 OFFCURVE",
"91 97 OFFCURVE",
"79 97 CURVE SMOOTH",
"66 97 OFFCURVE",
"67 113 OFFCURVE",
"73 141 CURVE SMOOTH",
"199 735 LINE",
"116 735 LINE",
"-9 141 LINE SMOOTH",
"-25 66 OFFCURVE",
"-22 -8 OFFCURVE",
"57 -8 CURVE SMOOTH",
"132 -8 OFFCURVE",
"169 58 OFFCURVE",
"187 141 CURVE SMOOTH",
"313 735 LINE"
);
}
);
width = 250;
}
);
unicode = 016A;
},
{
glyphname = Uogonek;
lastChange = "2012-08-26 17:30:05 +0000";
layers = (
{
layerId = "38BA14EB-08C8-4487-88C1-8F957131FCA1";
name = "Regular Condensed";
paths = (
{
closed = 1;
nodes = (
"249 735 LINE",
"123 143 LINE SMOOTH",
"113 95 OFFCURVE",
"96 97 OFFCURVE",
"96 97 CURVE",
"87 100 OFFCURVE",
"86 116 OFFCURVE",
"91 141 CURVE SMOOTH",
"218 735 LINE",
"135 735 LINE",
"8 141 LINE SMOOTH",
"-6 66 OFFCURVE",
"-3 -7 OFFCURVE",
"75 -8 CURVE SMOOTH",
"76 -8 LINE",
"79 -8 LINE SMOOTH",
"86 -8 OFFCURVE",
"92 -8 OFFCURVE",
"97 -7 CURVE",
"88 -17 OFFCURVE",
"80 -26 OFFCURVE",
"77 -31 CURVE",
"63 -50 OFFCURVE",
"46 -79 OFFCURVE",
"41 -103 CURVE SMOOTH",
"31 -148 OFFCURVE",
"48 -188 OFFCURVE",
"93 -188 CURVE SMOOTH",
"106 -188 OFFCURVE",
"117 -185 OFFCURVE",
"135 -176 CURVE",
"155 -101 LINE",
"138 -112 OFFCURVE",
"122 -121 OFFCURVE",
"117 -121 CURVE SMOOTH",
"107 -121 OFFCURVE",
"98 -112 OFFCURVE",
"104 -83 CURVE",
"106 -71 OFFCURVE",
"110 -60 OFFCURVE",
"115 -50 CURVE SMOOTH",
"127 -26 OFFCURVE",
"136 -12 OFFCURVE",
"146 0 CURVE",
"117 0 LINE",
"165 20 OFFCURVE",
"191 75 OFFCURVE",
"205 141 CURVE SMOOTH",
"332 735 LINE"
);
}
);
width = 250;
}
);
unicode = 0172;
},
{
glyphname = Uring;
lastChange = "2012-08-26 17:30:05 +0000";
layers = (
{
layerId = "38BA14EB-08C8-4487-88C1-8F957131FCA1";
name = "Regular Condensed";
paths = (
{
closed = 1;
nodes = (
"185 841 OFFCURVE",
"203 812 OFFCURVE",
"233 812 CURVE SMOOTH",
"263 812 OFFCURVE",
"292 841 OFFCURVE",
"301 882 CURVE SMOOTH",
"310 923 OFFCURVE",
"293 952 OFFCURVE",
"263 952 CURVE SMOOTH",
"233 952 OFFCURVE",
"203 923 OFFCURVE",
"194 882 CURVE SMOOTH"
);
},
{
closed = 1;
nodes = (
"239 901 OFFCURVE",
"248 917 OFFCURVE",
"255 917 CURVE SMOOTH",
"261 917 OFFCURVE",
"265 901 OFFCURVE",
"261 882 CURVE SMOOTH",
"257 863 OFFCURVE",
"246 847 OFFCURVE",
"240 847 CURVE SMOOTH",
"233 847 OFFCURVE",
"231 863 OFFCURVE",
"235 882 CURVE SMOOTH"
);
},
{
closed = 1;
nodes = (
"228 735 LINE",
"101 141 LINE SMOOTH",
"96 117 OFFCURVE",
"89 97 OFFCURVE",
"77 97 CURVE SMOOTH",
"64 97 OFFCURVE",
"64 113 OFFCURVE",
"70 141 CURVE SMOOTH",
"197 735 LINE",
"114 735 LINE",
"-12 141 LINE SMOOTH",
"-28 66 OFFCURVE",
"-24 -8 OFFCURVE",
"55 -8 CURVE SMOOTH",
"130 -8 OFFCURVE",
"167 58 OFFCURVE",
"184 141 CURVE SMOOTH",
"311 735 LINE"
);
}
);
width = 250;
}
);
unicode = 016E;
},
{
glyphname = Utilde;
lastChange = "2012-08-26 17:30:05 +0000";
layers = (
{
layerId = "38BA14EB-08C8-4487-88C1-8F957131FCA1";
name = "Regular Condensed";
paths = (
{
closed = 1;
nodes = (
"229 735 LINE",
"102 141 LINE SMOOTH",
"97 117 OFFCURVE",
"90 97 OFFCURVE",
"78 97 CURVE SMOOTH",
"65 97 OFFCURVE",
"66 113 OFFCURVE",
"71 141 CURVE SMOOTH",
"198 735 LINE",
"115 735 LINE",
"-11 141 LINE SMOOTH",
"-26 66 OFFCURVE",
"-23 -8 OFFCURVE",
"56 -8 CURVE SMOOTH",
"131 -8 OFFCURVE",
"168 58 OFFCURVE",
"185 141 CURVE SMOOTH",
"312 735 LINE"
);
},
{
closed = 1;
nodes = (
"166 811 LINE",
"172 818 OFFCURVE",
"200 841 OFFCURVE",
"212 841 CURVE SMOOTH",
"232 841 OFFCURVE",
"239 822 OFFCURVE",
"262 822 CURVE SMOOTH",
"280 822 OFFCURVE",
"297 834 OFFCURVE",
"308 847 CURVE",
"325 930 LINE",
"317 920 OFFCURVE",
"292 901 OFFCURVE",
"279 901 CURVE SMOOTH",
"260 901 OFFCURVE",
"253 918 OFFCURVE",
"230 918 CURVE SMOOTH",
"215 918 OFFCURVE",
"196 910 OFFCURVE",
"184 897 CURVE"
);
}
);
width = 250;
}
);
unicode = 0168;
},
{
glyphname = V;
lastChange = "2012-08-26 17:30:05 +0000";
layers = (
{
layerId = "38BA14EB-08C8-4487-88C1-8F957131FCA1";
name = "Regular Condensed";
paths = (
{
closed = 1;
nodes = (
"113 735 LINE",
"24 0 LINE",
"106 0 LINE",
"331 735 LINE",
"250 735 LINE",
"142 359 LINE",
"194 735 LINE"
);
}
);
width = 240;
}
);
leftKerningGroup = V;
unicode = 0056;
},
{
glyphname = W;
lastChange = "2012-08-26 17:31:53 +0000";
layers = (
{
anchors = (
{
name = top;
position = "{167, 735}";
}
);
layerId = "38BA14EB-08C8-4487-88C1-8F957131FCA1";
name = "Regular Condensed";
paths = (
{
closed = 1;
nodes = (
"140 0 LINE",
"211 0 LINE",
"422 735 LINE",
"344 735 LINE",
"315 627 OFFCURVE",
"280 499 OFFCURVE",
"251 391 CURVE",
"299 735 LINE",
"238 735 LINE",
"140 390 LINE",
"193 735 LINE",
"115 735 LINE",
"14 0 LINE",
"84 0 LINE",
"187 352 LINE"
);
}
);
width = 334;
}
);
leftKerningGroup = V;
unicode = 0057;
},
{
glyphname = Wcircumflex;
lastChange = "2012-08-26 17:30:05 +0000";
layers = (
{
layerId = "38BA14EB-08C8-4487-88C1-8F957131FCA1";
name = "Regular Condensed";
paths = (
{
closed = 1;
nodes = (
"250 890 LINE",
"189 800 LINE",
"254 800 LINE",
"280 839 LINE",
"288 800 LINE",
"353 800 LINE",
"331 890 LINE"
);
},
{
closed = 1;
nodes = (
"131 0 LINE",
"202 0 LINE",
"412 735 LINE",
"334 735 LINE",
"305 627 OFFCURVE",
"270 499 OFFCURVE",
"241 391 CURVE",
"289 735 LINE",
"228 735 LINE",
"131 390 LINE",
"183 735 LINE",
"105 735 LINE",
"5 0 LINE",
"75 0 LINE",
"178 352 LINE"
);
}
);
width = 334;
}
);
unicode = 0174;
},
{
glyphname = X;
lastChange = "2012-08-26 17:30:05 +0000";
layers = (
{
layerId = "38BA14EB-08C8-4487-88C1-8F957131FCA1";
name = "Regular Condensed";
paths = (
{
closed = 1;
nodes = (
"99 0 LINE",
"180 0 LINE",
"188 260 LINE SMOOTH",
"189 302 OFFCURVE",
"191 345 OFFCURVE",
"192 386 CURVE",
"336 735 LINE",
"254 735 LINE",
"232 676 OFFCURVE",
"208 616 OFFCURVE",
"187 557 CURVE",
"196 735 LINE",
"114 735 LINE",
"112 560 LINE SMOOTH",
"110 505 OFFCURVE",
"110 441 OFFCURVE",
"110 386 CURVE",
"-43 0 LINE",
"37 0 LINE",
"112 203 LINE"
);
}
);
width = 246;
}
);
unicode = 0058;
},
{
glyphname = Y;
lastChange = "2012-08-26 17:30:05 +0000";
layers = (
{
anchors = (
{
name = top;
position = "{118, 735}";
}
);
layerId = "38BA14EB-08C8-4487-88C1-8F957131FCA1";
name = "Regular Condensed";
paths = (
{
closed = 1;
nodes = (
"197 735 LINE",
"115 735 LINE",
"94 313 LINE",
"27 0 LINE",
"110 0 LINE",
"177 313 LINE",
"336 735 LINE",
"254 735 LINE",
"229 663 OFFCURVE",
"203 592 OFFCURVE",
"179 521 CURVE"
);
}
);
width = 235;
}
);
leftKerningGroup = Y;
rightKerningGroup = Y;
unicode = 0059;
},
{
glyphname = Yacute;
lastChange = "2012-08-26 17:30:05 +0000";
layers = (
{
layerId = "38BA14EB-08C8-4487-88C1-8F957131FCA1";
name = "Regular Condensed";
paths = (
{
closed = 1;
nodes = (
"238 890 LINE",
"187 800 LINE",
"251 800 LINE",
"318 890 LINE"
);
},
{
closed = 1;
nodes = (
"188 735 LINE",
"106 735 LINE",
"86 313 LINE",
"19 0 LINE",
"102 0 LINE",
"169 313 LINE",
"327 735 LINE",
"245 735 LINE",
"221 663 OFFCURVE",
"195 592 OFFCURVE",
"171 521 CURVE"
);
}
);
width = 236;
}
);
leftKerningGroup = Y;
rightKerningGroup = Y;
unicode = 00DD;
},
{
glyphname = Ycircumflex;
lastChange = "2012-08-26 17:30:05 +0000";
layers = (
{
layerId = "38BA14EB-08C8-4487-88C1-8F957131FCA1";
name = "Regular Condensed";
paths = (
{
closed = 1;
nodes = (
"208 890 LINE",
"147 800 LINE",
"212 800 LINE",
"238 839 LINE",
"246 800 LINE",
"311 800 LINE",
"289 890 LINE"
);
},
{
closed = 1;
nodes = (
"188 735 LINE",
"106 735 LINE",
"86 313 LINE",
"19 0 LINE",
"102 0 LINE",
"169 313 LINE",
"327 735 LINE",
"245 735 LINE",
"221 663 OFFCURVE",
"195 592 OFFCURVE",
"171 521 CURVE"
);
}
);
width = 235;
}
);
unicode = 0176;
},
{
glyphname = Ydieresis;
lastChange = "2012-08-26 17:30:05 +0000";
layers = (
{
layerId = "38BA14EB-08C8-4487-88C1-8F957131FCA1";
name = "Regular Condensed";
paths = (
{
closed = 1;
nodes = (
"188 735 LINE",
"106 735 LINE",
"85 313 LINE",
"19 0 LINE",
"102 0 LINE",
"168 313 LINE",
"327 735 LINE",
"245 735 LINE",
"221 663 OFFCURVE",
"195 592 OFFCURVE",
"171 521 CURVE"
);
},
{
closed = 1;
nodes = (
"145 800 LINE",
"219 800 LINE",
"240 898 LINE",
"166 898 LINE"
);
},
{
closed = 1;
nodes = (
"242 800 LINE",
"315 800 LINE",
"336 898 LINE",
"263 898 LINE"
);
}
);
width = 236;
}
);
leftKerningGroup = Y;
rightKerningGroup = Y;
unicode = 0178;
},
{
glyphname = Z;
lastChange = "2012-08-26 17:30:05 +0000";
layers = (
{
anchors = (
{
name = top;
position = "{107, 735}";
}
);
layerId = "38BA14EB-08C8-4487-88C1-8F957131FCA1";
name = "Regular Condensed";
paths = (
{
closed = 1;
nodes = (
"-42 0 LINE",
"147 0 LINE",
"170 107 LINE",
"66 107 LINE",
"281 628 LINE",
"304 735 LINE",
"128 735 LINE",
"105 628 LINE",
"192 628 LINE",
"-17 116 LINE"
);
}
);
width = 214;
}
);
unicode = 005A;
},
{
glyphname = Zacute;
lastChange = "2012-08-26 17:30:05 +0000";
layers = (
{
layerId = "38BA14EB-08C8-4487-88C1-8F957131FCA1";
name = "Regular Condensed";
paths = (
{
closed = 1;
nodes = (
"213 915 LINE",
"163 825 LINE",
"226 825 LINE",
"293 915 LINE"
);
},
{
closed = 1;
nodes = (
"-51 0 LINE",
"138 0 LINE",
"161 107 LINE",
"57 107 LINE",
"271 628 LINE",
"294 735 LINE",
"118 735 LINE",
"95 628 LINE",
"182 628 LINE",
"-26 116 LINE"
);
}
);
width = 214;
}
);
unicode = 0179;
},
{
glyphname = Zcaron;
lastChange = "2012-08-26 17:30:05 +0000";
layers = (
{
layerId = "38BA14EB-08C8-4487-88C1-8F957131FCA1";
name = "Regular Condensed";
paths = (
{
closed = 1;
nodes = (
"-50 0 LINE",
"139 0 LINE",
"162 107 LINE",
"58 107 LINE",
"273 628 LINE",
"295 735 LINE",
"119 735 LINE",
"97 628 LINE",
"184 628 LINE",
"-25 116 LINE"
);
},
{
closed = 1;
nodes = (
"262 800 LINE",
"322 890 LINE",
"257 890 LINE",
"232 851 LINE",
"223 890 LINE",
"158 890 LINE",
"181 800 LINE"
);
}
);
width = 214;
}
);
unicode = 017D;
},
{
glyphname = Zdotaccent;
lastChange = "2012-08-26 17:30:05 +0000";
layers = (
{
layerId = "38BA14EB-08C8-4487-88C1-8F957131FCA1";
name = "Regular Condensed";
paths = (
{
closed = 1;
nodes = (
"184 822 LINE",
"263 822 LINE",
"285 923 LINE",
"206 923 LINE"
);
},
{
closed = 1;
nodes = (
"-51 0 LINE",
"138 0 LINE",
"160 107 LINE",
"56 107 LINE",
"271 628 LINE",
"294 735 LINE",
"118 735 LINE",
"95 628 LINE",
"182 628 LINE",
"-27 116 LINE"
);
}
);
width = 214;
}
);
unicode = 017B;
},
{
glyphname = a;
lastChange = "2012-08-26 17:30:05 +0000";
layers = (
{
anchors = (
{
name = ogonek;
position = "{207, 10}";
},
{
name = top;
position = "{115, 547}";
}
);
layerId = "38BA14EB-08C8-4487-88C1-8F957131FCA1";
name = "Regular Condensed";
paths = (
{
closed = 1;
nodes = (
"161 363 LINE",
"155 352 OFFCURVE",
"136 335 OFFCURVE",
"120 324 CURVE SMOOTH",
"54 276 OFFCURVE",
"19 203 OFFCURVE",
"2 127 CURVE",
"-4 93 OFFCURVE",
"-22 -8 OFFCURVE",
"31 -8 CURVE SMOOTH",
"55 -8 OFFCURVE",
"78 12 OFFCURVE",
"91 33 CURVE",
"90 27 OFFCURVE",
"94 5 OFFCURVE",
"95 0 CURVE",
"162 0 LINE",
"165 24 OFFCURVE",
"167 46 OFFCURVE",
"178 95 CURVE SMOOTH",
"249 431 LINE",
"262 482 OFFCURVE",
"252 555 OFFCURVE",
"191 555 CURVE SMOOTH",
"125 555 OFFCURVE",
"83 480 OFFCURVE",
"70 419 CURVE SMOOTH",
"63 386 LINE",
"139 386 LINE",
"146 422 LINE SMOOTH",
"149 436 OFFCURVE",
"160 468 OFFCURVE",
"170 468 CURVE SMOOTH",
"179 468 OFFCURVE",
"177 439 OFFCURVE",
"173 422 CURVE SMOOTH"
);
},
{
closed = 1;
nodes = (
"109 124 LINE SMOOTH",
"105 105 OFFCURVE",
"93 87 OFFCURVE",
"80 87 CURVE SMOOTH",
"66 87 OFFCURVE",
"74 125 OFFCURVE",
"75 128 CURVE",
"84 172 OFFCURVE",
"113 228 OFFCURVE",
"136 251 CURVE"
);
}
);
width = 230;
}
);
leftKerningGroup = a;
rightKerningGroup = a;
unicode = 0061;
},
{
glyphname = aacute;
lastChange = "2012-08-26 17:30:05 +0000";
layers = (
{
layerId = "38BA14EB-08C8-4487-88C1-8F957131FCA1";
name = "Regular Condensed";
paths = (
{
closed = 1;
nodes = (
"207 727 LINE",
"156 637 LINE",
"220 637 LINE",
"287 727 LINE"
);
},
{
closed = 1;
nodes = (
"152 363 LINE",
"146 352 OFFCURVE",
"127 335 OFFCURVE",
"111 324 CURVE SMOOTH",
"45 276 OFFCURVE",
"9 203 OFFCURVE",
"-6 127 CURVE SMOOTH",
"-13 93 OFFCURVE",
"-31 -8 OFFCURVE",
"22 -8 CURVE SMOOTH",
"46 -8 OFFCURVE",
"69 12 OFFCURVE",
"81 33 CURVE",
"81 27 OFFCURVE",
"84 5 OFFCURVE",
"86 0 CURVE",
"153 0 LINE",
"155 24 OFFCURVE",
"158 46 OFFCURVE",
"169 95 CURVE SMOOTH",
"240 431 LINE",
"253 482 OFFCURVE",
"243 555 OFFCURVE",
"182 555 CURVE SMOOTH",
"116 555 OFFCURVE",
"73 480 OFFCURVE",
"60 419 CURVE SMOOTH",
"53 386 LINE",
"129 386 LINE",
"137 422 LINE SMOOTH",
"140 436 OFFCURVE",
"151 468 OFFCURVE",
"161 468 CURVE SMOOTH",
"170 468 OFFCURVE",
"168 439 OFFCURVE",
"164 422 CURVE SMOOTH"
);
},
{
closed = 1;
nodes = (
"100 124 LINE SMOOTH",
"96 105 OFFCURVE",
"84 87 OFFCURVE",
"71 87 CURVE SMOOTH",
"57 87 OFFCURVE",
"65 125 OFFCURVE",
"66 128 CURVE",
"75 172 OFFCURVE",
"104 228 OFFCURVE",
"127 251 CURVE"
);
}
);
width = 230;
}
);
leftKerningGroup = a;
rightKerningGroup = a;
unicode = 00E1;
},
{
glyphname = abreve;
lastChange = "2012-08-26 17:30:05 +0000";
layers = (
{
layerId = "38BA14EB-08C8-4487-88C1-8F957131FCA1";
name = "Regular Condensed";
paths = (
{
closed = 1;
nodes = (
"151 363 LINE",
"145 352 OFFCURVE",
"126 335 OFFCURVE",
"110 324 CURVE SMOOTH",
"44 276 OFFCURVE",
"9 203 OFFCURVE",
"-6 127 CURVE",
"-14 93 OFFCURVE",
"-32 -8 OFFCURVE",
"21 -8 CURVE SMOOTH",
"45 -8 OFFCURVE",
"68 12 OFFCURVE",
"81 33 CURVE",
"80 27 OFFCURVE",
"84 5 OFFCURVE",
"86 0 CURVE",
"153 0 LINE",
"155 24 OFFCURVE",
"157 46 OFFCURVE",
"168 95 CURVE SMOOTH",
"239 431 LINE",
"252 482 OFFCURVE",
"243 555 OFFCURVE",
"182 555 CURVE SMOOTH",
"116 555 OFFCURVE",
"73 480 OFFCURVE",
"60 419 CURVE SMOOTH",
"53 386 LINE",
"129 386 LINE",
"136 422 LINE SMOOTH",
"139 436 OFFCURVE",
"150 468 OFFCURVE",
"160 468 CURVE SMOOTH",
"169 468 OFFCURVE",
"167 439 OFFCURVE",
"163 422 CURVE SMOOTH"
);
},
{
closed = 1;
nodes = (
"99 124 LINE SMOOTH",
"95 105 OFFCURVE",
"83 87 OFFCURVE",
"70 87 CURVE SMOOTH",
"56 87 OFFCURVE",
"64 125 OFFCURVE",
"65 128 CURVE",
"74 172 OFFCURVE",
"103 228 OFFCURVE",
"126 251 CURVE"
);
},
{
closed = 1;
nodes = (
"255 739 LINE",
"255 739 OFFCURVE",
"229 708 OFFCURVE",
"213 708 CURVE SMOOTH",
"195 708 OFFCURVE",
"187 740 OFFCURVE",
"187 740 CURVE",
"134 683 LINE",
"141 657 OFFCURVE",
"167 635 OFFCURVE",
"198 635 CURVE SMOOTH",
"229 635 OFFCURVE",
"258 655 OFFCURVE",
"282 683 CURVE"
);
}
);
width = 230;
}
);
unicode = 0103;
},
{
glyphname = acircumflex;
lastChange = "2012-08-26 17:30:05 +0000";
layers = (
{
layerId = "38BA14EB-08C8-4487-88C1-8F957131FCA1";
name = "Regular Condensed";
paths = (
{
closed = 1;
nodes = (
"176 727 LINE",
"115 637 LINE",
"180 637 LINE",
"205 676 LINE",
"214 637 LINE",
"279 637 LINE",
"257 727 LINE"
);
},
{
closed = 1;
nodes = (
"152 363 LINE",
"146 352 OFFCURVE",
"127 335 OFFCURVE",
"111 324 CURVE SMOOTH",
"45 276 OFFCURVE",
"9 203 OFFCURVE",
"-6 127 CURVE SMOOTH",
"-13 93 OFFCURVE",
"-31 -8 OFFCURVE",
"22 -8 CURVE SMOOTH",
"46 -8 OFFCURVE",
"69 12 OFFCURVE",
"81 33 CURVE",
"81 27 OFFCURVE",
"84 5 OFFCURVE",
"86 0 CURVE",
"153 0 LINE",
"155 24 OFFCURVE",
"158 46 OFFCURVE",
"169 95 CURVE SMOOTH",
"240 431 LINE",
"253 482 OFFCURVE",
"243 555 OFFCURVE",
"182 555 CURVE SMOOTH",
"116 555 OFFCURVE",
"73 480 OFFCURVE",
"60 419 CURVE SMOOTH",
"53 386 LINE",
"129 386 LINE",
"137 422 LINE SMOOTH",
"140 436 OFFCURVE",
"151 468 OFFCURVE",
"161 468 CURVE SMOOTH",
"170 468 OFFCURVE",
"168 439 OFFCURVE",
"164 422 CURVE SMOOTH"
);
},
{
closed = 1;
nodes = (
"100 124 LINE SMOOTH",
"96 105 OFFCURVE",
"84 87 OFFCURVE",
"71 87 CURVE SMOOTH",
"57 87 OFFCURVE",
"65 125 OFFCURVE",
"66 128 CURVE",
"75 172 OFFCURVE",
"104 228 OFFCURVE",
"127 251 CURVE"
);
}
);
width = 230;
}
);
leftKerningGroup = a;
rightKerningGroup = a;
unicode = 00E2;
},
{
glyphname = adieresis;
lastChange = "2012-08-26 17:30:05 +0000";
layers = (
{
layerId = "38BA14EB-08C8-4487-88C1-8F957131FCA1";
name = "Regular Condensed";
paths = (
{
closed = 1;
nodes = (
"151 363 LINE",
"146 352 OFFCURVE",
"126 335 OFFCURVE",
"111 324 CURVE SMOOTH",
"45 276 OFFCURVE",
"9 203 OFFCURVE",
"-6 127 CURVE SMOOTH",
"-13 93 OFFCURVE",
"-32 -8 OFFCURVE",
"21 -8 CURVE SMOOTH",
"45 -8 OFFCURVE",
"68 12 OFFCURVE",
"81 33 CURVE",
"81 27 OFFCURVE",
"84 5 OFFCURVE",
"86 0 CURVE",
"153 0 LINE",
"155 24 OFFCURVE",
"158 46 OFFCURVE",
"168 95 CURVE SMOOTH",
"240 431 LINE SMOOTH",
"252 482 OFFCURVE",
"243 555 OFFCURVE",
"182 555 CURVE SMOOTH",
"116 555 OFFCURVE",
"73 480 OFFCURVE",
"60 419 CURVE SMOOTH",
"53 386 LINE",
"129 386 LINE",
"137 422 LINE SMOOTH",
"140 436 OFFCURVE",
"150 468 OFFCURVE",
"160 468 CURVE SMOOTH",
"169 468 OFFCURVE",
"167 439 OFFCURVE",
"164 422 CURVE"
);
},
{
closed = 1;
nodes = (
"99 124 LINE SMOOTH",
"95 105 OFFCURVE",
"83 87 OFFCURVE",
"70 87 CURVE SMOOTH",
"56 87 OFFCURVE",
"64 125 OFFCURVE",
"65 128 CURVE",
"74 172 OFFCURVE",
"103 228 OFFCURVE",
"126 251 CURVE"
);
},
{
closed = 1;
nodes = (
"113 637 LINE",
"187 637 LINE",
"208 735 LINE",
"134 735 LINE"
);
},
{
closed = 1;
nodes = (
"210 637 LINE",
"283 637 LINE",
"304 735 LINE",
"231 735 LINE"
);
}
);
width = 230;
}
);
leftKerningGroup = a;
rightKerningGroup = a;
unicode = 00E4;
},
{
glyphname = agrave;
lastChange = "2012-08-26 17:30:05 +0000";
layers = (
{
layerId = "38BA14EB-08C8-4487-88C1-8F957131FCA1";
name = "Regular Condensed";
paths = (
{
closed = 1;
nodes = (
"148 727 LINE",
"176 637 LINE",
"240 637 LINE",
"228 727 LINE"
);
},
{
closed = 1;
nodes = (
"152 363 LINE",
"146 352 OFFCURVE",
"127 335 OFFCURVE",
"111 324 CURVE SMOOTH",
"45 276 OFFCURVE",
"9 203 OFFCURVE",
"-6 127 CURVE SMOOTH",
"-13 93 OFFCURVE",
"-31 -8 OFFCURVE",
"22 -8 CURVE SMOOTH",
"46 -8 OFFCURVE",
"69 12 OFFCURVE",
"81 33 CURVE",
"81 27 OFFCURVE",
"84 5 OFFCURVE",
"86 0 CURVE",
"153 0 LINE",
"155 24 OFFCURVE",
"158 46 OFFCURVE",
"169 95 CURVE SMOOTH",
"240 431 LINE",
"253 482 OFFCURVE",
"243 555 OFFCURVE",
"182 555 CURVE SMOOTH",
"116 555 OFFCURVE",
"73 480 OFFCURVE",
"60 419 CURVE SMOOTH",
"53 386 LINE",
"129 386 LINE",
"137 422 LINE SMOOTH",
"140 436 OFFCURVE",
"151 468 OFFCURVE",
"161 468 CURVE SMOOTH",
"170 468 OFFCURVE",
"168 439 OFFCURVE",
"164 422 CURVE SMOOTH"
);
},
{
closed = 1;
nodes = (
"100 124 LINE SMOOTH",
"96 105 OFFCURVE",
"84 87 OFFCURVE",
"71 87 CURVE SMOOTH",
"57 87 OFFCURVE",
"65 125 OFFCURVE",
"66 128 CURVE",
"75 172 OFFCURVE",
"104 228 OFFCURVE",
"127 251 CURVE"
);
}
);
width = 230;
}
);
leftKerningGroup = a;
rightKerningGroup = a;
unicode = 00E0;
},
{
glyphname = amacron;
lastChange = "2012-08-26 17:30:05 +0000";
layers = (
{
layerId = "38BA14EB-08C8-4487-88C1-8F957131FCA1";
name = "Regular Condensed";
paths = (
{
closed = 1;
nodes = (
"132 642 LINE",
"266 642 LINE",
"283 721 LINE",
"149 721 LINE"
);
},
{
closed = 1;
nodes = (
"152 363 LINE",
"146 352 OFFCURVE",
"127 335 OFFCURVE",
"112 324 CURVE SMOOTH",
"45 276 OFFCURVE",
"10 203 OFFCURVE",
"-5 127 CURVE",
"-13 93 OFFCURVE",
"-31 -8 OFFCURVE",
"22 -8 CURVE SMOOTH",
"46 -8 OFFCURVE",
"69 12 OFFCURVE",
"82 33 CURVE",
"81 27 OFFCURVE",
"85 5 OFFCURVE",
"87 0 CURVE",
"154 0 LINE",
"156 24 OFFCURVE",
"158 46 OFFCURVE",
"169 95 CURVE SMOOTH",
"240 431 LINE",
"253 482 OFFCURVE",
"244 555 OFFCURVE",
"183 555 CURVE SMOOTH",
"117 555 OFFCURVE",
"74 480 OFFCURVE",
"61 419 CURVE SMOOTH",
"54 386 LINE",
"130 386 LINE",
"137 422 LINE SMOOTH",
"140 436 OFFCURVE",
"151 468 OFFCURVE",
"161 468 CURVE SMOOTH",
"170 468 OFFCURVE",
"168 439 OFFCURVE",
"164 422 CURVE SMOOTH"
);
},
{
closed = 1;
nodes = (
"100 124 LINE SMOOTH",
"96 105 OFFCURVE",
"84 87 OFFCURVE",
"71 87 CURVE SMOOTH",
"57 87 OFFCURVE",
"65 125 OFFCURVE",
"66 128 CURVE",
"75 172 OFFCURVE",
"104 228 OFFCURVE",
"127 251 CURVE"
);
}
);
width = 230;
}
);
unicode = 0101;
},
{
glyphname = aogonek;
lastChange = "2012-08-26 17:30:05 +0000";
layers = (
{
layerId = "38BA14EB-08C8-4487-88C1-8F957131FCA1";
name = "Regular Condensed";
paths = (
{
closed = 1;
nodes = (
"118 124 LINE SMOOTH",
"114 105 OFFCURVE",
"103 87 OFFCURVE",
"90 87 CURVE SMOOTH",
"76 87 OFFCURVE",
"84 125 OFFCURVE",
"84 128 CURVE",
"94 172 OFFCURVE",
"123 228 OFFCURVE",
"145 251 CURVE"
);
},
{
closed = 1;
nodes = (
"170 363 LINE",
"165 352 OFFCURVE",
"145 335 OFFCURVE",
"130 324 CURVE SMOOTH",
"64 276 OFFCURVE",
"28 203 OFFCURVE",
"12 127 CURVE SMOOTH",
"5 93 OFFCURVE",
"-13 -8 OFFCURVE",
"40 -8 CURVE SMOOTH",
"64 -8 OFFCURVE",
"88 12 OFFCURVE",
"100 33 CURVE",
"100 27 OFFCURVE",
"103 5 OFFCURVE",
"105 0 CURVE",
"95 -2 OFFCURVE",
"76 -23 OFFCURVE",
"69 -31 CURVE",
"54 -51 OFFCURVE",
"40 -77 OFFCURVE",
"34 -103 CURVE SMOOTH",
"25 -148 OFFCURVE",
"41 -188 OFFCURVE",
"86 -188 CURVE SMOOTH",
"98 -188 OFFCURVE",
"109 -186 OFFCURVE",
"128 -176 CURVE",
"149 -101 LINE",
"131 -112 OFFCURVE",
"115 -121 OFFCURVE",
"110 -121 CURVE SMOOTH",
"100 -121 OFFCURVE",
"91 -112 OFFCURVE",
"97 -83 CURVE",
"100 -71 OFFCURVE",
"103 -60 OFFCURVE",
"108 -50 CURVE",
"119 -30 OFFCURVE",
"130 -13 OFFCURVE",
"141 0 CURVE",
"172 0 LINE",
"174 24 OFFCURVE",
"177 46 OFFCURVE",
"187 95 CURVE SMOOTH",
"259 431 LINE",
"272 482 OFFCURVE",
"262 555 OFFCURVE",
"201 555 CURVE SMOOTH",
"135 555 OFFCURVE",
"92 480 OFFCURVE",
"79 419 CURVE SMOOTH",
"72 386 LINE",
"148 386 LINE",
"156 422 LINE SMOOTH",
"159 436 OFFCURVE",
"170 468 OFFCURVE",
"180 468 CURVE SMOOTH",
"189 468 OFFCURVE",
"186 439 OFFCURVE",
"183 422 CURVE"
);
}
);
width = 230;
}
);
unicode = 0105;
},
{
glyphname = aring;
lastChange = "2012-08-26 17:30:05 +0000";
layers = (
{
layerId = "38BA14EB-08C8-4487-88C1-8F957131FCA1";
name = "Regular Condensed";
paths = (
{
closed = 1;
nodes = (
"149 363 LINE",
"144 352 OFFCURVE",
"125 335 OFFCURVE",
"109 324 CURVE SMOOTH",
"43 276 OFFCURVE",
"7 203 OFFCURVE",
"-8 127 CURVE SMOOTH",
"-15 93 OFFCURVE",
"-33 -8 OFFCURVE",
"20 -8 CURVE SMOOTH",
"44 -8 OFFCURVE",
"67 12 OFFCURVE",
"79 33 CURVE",
"79 27 OFFCURVE",
"82 5 OFFCURVE",
"84 0 CURVE",
"151 0 LINE",
"153 24 OFFCURVE",
"156 46 OFFCURVE",
"167 95 CURVE SMOOTH",
"238 431 LINE",
"251 482 OFFCURVE",
"241 555 OFFCURVE",
"180 555 CURVE SMOOTH",
"114 555 OFFCURVE",
"71 480 OFFCURVE",
"58 419 CURVE SMOOTH",
"51 386 LINE",
"127 386 LINE",
"135 422 LINE SMOOTH",
"138 436 OFFCURVE",
"149 468 OFFCURVE",
"159 468 CURVE SMOOTH",
"168 468 OFFCURVE",
"166 439 OFFCURVE",
"162 422 CURVE SMOOTH"
);
},
{
closed = 1;
nodes = (
"98 124 LINE SMOOTH",
"94 105 OFFCURVE",
"82 87 OFFCURVE",
"69 87 CURVE SMOOTH",
"55 87 OFFCURVE",
"63 125 OFFCURVE",
"64 128 CURVE",
"73 172 OFFCURVE",
"102 228 OFFCURVE",
"125 251 CURVE"
);
},
{
closed = 1;
nodes = (
"145 653 OFFCURVE",
"163 624 OFFCURVE",
"193 624 CURVE SMOOTH",
"222 624 OFFCURVE",
"252 653 OFFCURVE",
"261 694 CURVE SMOOTH",
"270 735 OFFCURVE",
"252 764 OFFCURVE",
"223 764 CURVE SMOOTH",
"193 764 OFFCURVE",
"163 735 OFFCURVE",
"154 694 CURVE SMOOTH"
);
},
{
closed = 1;
nodes = (
"197 713 OFFCURVE",
"207 725 OFFCURVE",
"214 725 CURVE SMOOTH",
"220 725 OFFCURVE",
"227 713 OFFCURVE",
"223 694 CURVE SMOOTH",
"219 675 OFFCURVE",
"207 662 OFFCURVE",
"201 662 CURVE SMOOTH",
"194 662 OFFCURVE",
"189 675 OFFCURVE",
"193 694 CURVE SMOOTH"
);
}
);
width = 230;
}
);
leftKerningGroup = a;
rightKerningGroup = a;
unicode = 00E5;
},
{
glyphname = atilde;
lastChange = "2012-08-26 17:30:05 +0000";
layers = (
{
layerId = "38BA14EB-08C8-4487-88C1-8F957131FCA1";
name = "Regular Condensed";
paths = (
{
closed = 1;
nodes = (
"151 363 LINE",
"146 352 OFFCURVE",
"126 335 OFFCURVE",
"111 324 CURVE SMOOTH",
"44 276 OFFCURVE",
"9 203 OFFCURVE",
"-6 127 CURVE",
"-14 93 OFFCURVE",
"-32 -8 OFFCURVE",
"21 -8 CURVE SMOOTH",
"45 -8 OFFCURVE",
"68 12 OFFCURVE",
"81 33 CURVE",
"80 27 OFFCURVE",
"84 5 OFFCURVE",
"86 0 CURVE",
"153 0 LINE",
"155 24 OFFCURVE",
"157 46 OFFCURVE",
"168 95 CURVE SMOOTH",
"239 431 LINE",
"252 482 OFFCURVE",
"243 555 OFFCURVE",
"182 555 CURVE SMOOTH",
"116 555 OFFCURVE",
"73 480 OFFCURVE",
"60 419 CURVE SMOOTH",
"53 386 LINE",
"129 386 LINE",
"136 422 LINE SMOOTH",
"139 436 OFFCURVE",
"150 468 OFFCURVE",
"160 468 CURVE SMOOTH",
"169 468 OFFCURVE",
"167 439 OFFCURVE",
"163 422 CURVE SMOOTH"
);
},
{
closed = 1;
nodes = (
"99 124 LINE SMOOTH",
"95 105 OFFCURVE",
"83 87 OFFCURVE",
"70 87 CURVE SMOOTH",
"56 87 OFFCURVE",
"64 125 OFFCURVE",
"65 128 CURVE",
"74 172 OFFCURVE",
"103 228 OFFCURVE",
"126 251 CURVE"
);
},
{
closed = 1;
nodes = (
"124 619 LINE",
"131 626 OFFCURVE",
"159 649 OFFCURVE",
"171 649 CURVE SMOOTH",
"191 649 OFFCURVE",
"198 630 OFFCURVE",
"221 630 CURVE SMOOTH",
"239 630 OFFCURVE",
"255 642 OFFCURVE",
"266 655 CURVE",
"284 738 LINE",
"275 728 OFFCURVE",
"250 709 OFFCURVE",
"237 709 CURVE SMOOTH",
"218 709 OFFCURVE",
"211 726 OFFCURVE",
"188 726 CURVE SMOOTH",
"173 726 OFFCURVE",
"154 718 OFFCURVE",
"143 705 CURVE"
);
}
);
width = 230;
}
);
leftKerningGroup = a;
rightKerningGroup = a;
unicode = 00E3;
},
{
glyphname = ae;
lastChange = "2012-08-26 17:30:05 +0000";
layers = (
{
anchors = (
{
name = top;
position = "{167, 547}";
}
);
layerId = "38BA14EB-08C8-4487-88C1-8F957131FCA1";
name = "Regular Condensed";
paths = (
{
closed = 1;
nodes = (
"240 196 LINE",
"227 136 LINE SMOOTH",
"223 117 OFFCURVE",
"213 81 OFFCURVE",
"197 81 CURVE SMOOTH",
"186 81 OFFCURVE",
"189 114 OFFCURVE",
"193 136 CURVE",
"219 255 LINE",
"328 255 LINE",
"362 418 LINE SMOOTH",
"376 481 OFFCURVE",
"381 555 OFFCURVE",
"297 555 CURVE SMOOTH",
"274 555 OFFCURVE",
"256 546 OFFCURVE",
"239 533 CURVE",
"229 546 OFFCURVE",
"214 555 OFFCURVE",
"193 555 CURVE SMOOTH",
"127 555 OFFCURVE",
"85 480 OFFCURVE",
"72 419 CURVE SMOOTH",
"65 386 LINE",
"141 386 LINE",
"148 422 LINE SMOOTH",
"151 436 OFFCURVE",
"162 468 OFFCURVE",
"172 468 CURVE SMOOTH",
"181 468 OFFCURVE",
"179 439 OFFCURVE",
"175 422 CURVE SMOOTH",
"163 363 LINE",
"157 352 OFFCURVE",
"138 335 OFFCURVE",
"122 324 CURVE SMOOTH",
"56 276 OFFCURVE",
"21 203 OFFCURVE",
"4 127 CURVE",
"-2 93 OFFCURVE",
"-14 -8 OFFCURVE",
"51 -8 CURVE SMOOTH",
"75 -8 OFFCURVE",
"103 2 OFFCURVE",
"120 19 CURVE",
"129 2 OFFCURVE",
"146 -8 OFFCURVE",
"173 -8 CURVE SMOOTH",
"250 -8 OFFCURVE",
"285 56 OFFCURVE",
"300 127 CURVE SMOOTH",
"315 196 LINE"
);
},
{
closed = 1;
nodes = (
"252 411 LINE SMOOTH",
"255 427 OFFCURVE",
"265 467 OFFCURVE",
"278 467 CURVE SMOOTH",
"295 467 OFFCURVE",
"292 438 OFFCURVE",
"286 411 CURVE SMOOTH",
"269 334 LINE",
"235 334 LINE"
);
},
{
closed = 1;
nodes = (
"111 124 LINE SMOOTH",
"107 105 OFFCURVE",
"95 87 OFFCURVE",
"82 87 CURVE SMOOTH",
"68 87 OFFCURVE",
"76 125 OFFCURVE",
"77 128 CURVE",
"86 172 OFFCURVE",
"115 228 OFFCURVE",
"138 251 CURVE"
);
}
);
width = 333;
}
);
unicode = 00E6;
},
{
glyphname = b;
lastChange = "2012-08-26 17:30:05 +0000";
layers = (
{
layerId = "38BA14EB-08C8-4487-88C1-8F957131FCA1";
name = "Regular Condensed";
paths = (
{
closed = 1;
nodes = (
"-23 0 LINE",
"55 0 LINE",
"61 30 LINE",
"64 18 OFFCURVE",
"84 -8 OFFCURVE",
"110 -8 CURVE SMOOTH",
"159 -8 OFFCURVE",
"169 60 OFFCURVE",
"178 99 CURVE SMOOTH",
"252 448 LINE SMOOTH",
"262 493 OFFCURVE",
"265 555 OFFCURVE",
"214 555 CURVE SMOOTH",
"200 555 OFFCURVE",
"172 537 OFFCURVE",
"166 524 CURVE",
"211 735 LINE",
"132 735 LINE"
);
},
{
closed = 1;
nodes = (
"147 431 LINE SMOOTH",
"150 447 OFFCURVE",
"158 467 OFFCURVE",
"168 467 CURVE SMOOTH",
"177 467 OFFCURVE",
"179 450 OFFCURVE",
"175 431 CURVE SMOOTH",
"109 125 LINE SMOOTH",
"105 105 OFFCURVE",
"98 87 OFFCURVE",
"87 87 CURVE SMOOTH",
"77 87 OFFCURVE",
"77 106 OFFCURVE",
"81 125 CURVE SMOOTH"
);
}
);
width = 231;
}
);
rightKerningGroup = b;
unicode = 0062;
},
{
glyphname = c;
lastChange = "2012-08-26 17:30:05 +0000";
layers = (
{
anchors = (
{
name = bottom;
position = "{110, 0}";
},
{
name = top;
position = "{110, 547}";
}
);
layerId = "38BA14EB-08C8-4487-88C1-8F957131FCA1";
name = "Regular Condensed";
paths = (
{
closed = 1;
nodes = (
"150 427 LINE SMOOTH",
"154 447 OFFCURVE",
"166 467 OFFCURVE",
"175 467 CURVE SMOOTH",
"184 467 OFFCURVE",
"188 460 OFFCURVE",
"181 427 CURVE SMOOTH",
"166 355 LINE",
"242 355 LINE",
"253 408 LINE SMOOTH",
"268 479 OFFCURVE",
"281 555 OFFCURVE",
"191 555 CURVE SMOOTH",
"115 555 OFFCURVE",
"81 466 OFFCURVE",
"66 403 CURVE SMOOTH",
"11 144 LINE SMOOTH",
"0 87 OFFCURVE",
"-7 -8 OFFCURVE",
"70 -8 CURVE SMOOTH",
"158 -8 OFFCURVE",
"179 62 OFFCURVE",
"196 139 CURVE SMOOTH",
"209 202 LINE",
"133 202 LINE",
"117 126 LINE SMOOTH",
"110 93 OFFCURVE",
"102 83 OFFCURVE",
"92 83 CURVE SMOOTH",
"82 83 OFFCURVE",
"82 106 OFFCURVE",
"86 126 CURVE SMOOTH"
);
}
);
width = 219;
}
);
leftKerningGroup = c;
rightKerningGroup = c;
unicode = 0063;
},
{
glyphname = cacute;
lastChange = "2012-08-26 17:30:05 +0000";
layers = (
{
layerId = "38BA14EB-08C8-4487-88C1-8F957131FCA1";
name = "Regular Condensed";
paths = (
{
closed = 1;
nodes = (
"186 727 LINE",
"136 637 LINE",
"200 637 LINE",
"266 727 LINE"
);
},
{
closed = 1;
nodes = (
"141 427 LINE SMOOTH",
"145 447 OFFCURVE",
"157 467 OFFCURVE",
"166 467 CURVE SMOOTH",
"175 467 OFFCURVE",
"179 460 OFFCURVE",
"172 427 CURVE SMOOTH",
"157 355 LINE",
"233 355 LINE",
"244 408 LINE SMOOTH",
"259 479 OFFCURVE",
"272 555 OFFCURVE",
"182 555 CURVE SMOOTH",
"106 555 OFFCURVE",
"71 466 OFFCURVE",
"57 403 CURVE SMOOTH",
"2 144 LINE SMOOTH",
"-9 87 OFFCURVE",
"-16 -8 OFFCURVE",
"61 -8 CURVE SMOOTH",
"149 -8 OFFCURVE",
"170 62 OFFCURVE",
"187 139 CURVE SMOOTH",
"200 202 LINE",
"124 202 LINE",
"108 126 LINE SMOOTH",
"101 93 OFFCURVE",
"93 83 OFFCURVE",
"83 83 CURVE SMOOTH",
"73 83 OFFCURVE",
"73 106 OFFCURVE",
"77 126 CURVE SMOOTH"
);
}
);
width = 219;
}
);
unicode = 0107;
},
{
glyphname = ccaron;
lastChange = "2012-08-26 17:30:05 +0000";
layers = (
{
layerId = "38BA14EB-08C8-4487-88C1-8F957131FCA1";
name = "Regular Condensed";
paths = (
{
closed = 1;
nodes = (
"141 427 LINE SMOOTH",
"145 447 OFFCURVE",
"157 467 OFFCURVE",
"166 467 CURVE SMOOTH",
"175 467 OFFCURVE",
"179 460 OFFCURVE",
"172 427 CURVE SMOOTH",
"157 355 LINE",
"233 355 LINE",
"244 408 LINE SMOOTH",
"259 479 OFFCURVE",
"272 555 OFFCURVE",
"182 555 CURVE SMOOTH",
"106 555 OFFCURVE",
"71 466 OFFCURVE",
"57 403 CURVE SMOOTH",
"2 144 LINE SMOOTH",
"-9 87 OFFCURVE",
"-16 -8 OFFCURVE",
"61 -8 CURVE SMOOTH",
"149 -8 OFFCURVE",
"170 62 OFFCURVE",
"187 139 CURVE SMOOTH",
"200 202 LINE",
"124 202 LINE",
"108 126 LINE SMOOTH",
"101 93 OFFCURVE",
"93 83 OFFCURVE",
"83 83 CURVE SMOOTH",
"73 83 OFFCURVE",
"73 106 OFFCURVE",
"77 126 CURVE SMOOTH"
);
},
{
closed = 1;
nodes = (
"235 637 LINE",
"295 727 LINE",
"230 727 LINE",
"205 688 LINE",
"196 727 LINE",
"131 727 LINE",
"154 637 LINE"
);
}
);
width = 219;
}
);
unicode = 010D;
},
{
glyphname = ccedilla;
lastChange = "2012-08-26 17:30:05 +0000";
layers = (
{
layerId = "38BA14EB-08C8-4487-88C1-8F957131FCA1";
name = "Regular Condensed";
paths = (
{
closed = 1;
nodes = (
"98 -54 LINE",
"30 -54 LINE",
"15 -123 LINE",
"33 -123 LINE",
"7 -188 LINE",
"56 -188 LINE",
"83 -123 LINE"
);
},
{
closed = 1;
nodes = (
"160 427 LINE SMOOTH",
"164 447 OFFCURVE",
"175 467 OFFCURVE",
"184 467 CURVE SMOOTH",
"193 467 OFFCURVE",
"198 460 OFFCURVE",
"191 427 CURVE SMOOTH",
"176 355 LINE",
"252 355 LINE",
"263 408 LINE SMOOTH",
"278 479 OFFCURVE",
"291 555 OFFCURVE",
"201 555 CURVE SMOOTH",
"125 555 OFFCURVE",
"90 466 OFFCURVE",
"76 403 CURVE SMOOTH",
"21 144 LINE SMOOTH",
"9 87 OFFCURVE",
"1 -8 OFFCURVE",
"79 -8 CURVE SMOOTH",
"167 -8 OFFCURVE",
"188 62 OFFCURVE",
"206 139 CURVE SMOOTH",
"219 202 LINE",
"143 202 LINE",
"127 126 LINE SMOOTH",
"120 93 OFFCURVE",
"112 83 OFFCURVE",
"102 83 CURVE SMOOTH",
"92 83 OFFCURVE",
"92 106 OFFCURVE",
"96 126 CURVE SMOOTH"
);
}
);
width = 219;
}
);
leftKerningGroup = c;
rightKerningGroup = c;
unicode = 00E7;
},
{
glyphname = ccircumflex;
lastChange = "2012-08-26 17:30:05 +0000";
layers = (
{
layerId = "38BA14EB-08C8-4487-88C1-8F957131FCA1";
name = "Regular Condensed";
paths = (
{
closed = 1;
nodes = (
"141 427 LINE SMOOTH",
"145 447 OFFCURVE",
"157 467 OFFCURVE",
"166 467 CURVE SMOOTH",
"175 467 OFFCURVE",
"179 460 OFFCURVE",
"172 427 CURVE SMOOTH",
"157 355 LINE",
"233 355 LINE",
"244 408 LINE SMOOTH",
"259 479 OFFCURVE",
"272 555 OFFCURVE",
"182 555 CURVE SMOOTH",
"106 555 OFFCURVE",
"71 466 OFFCURVE",
"57 403 CURVE SMOOTH",
"2 144 LINE SMOOTH",
"-9 87 OFFCURVE",
"-16 -8 OFFCURVE",
"61 -8 CURVE SMOOTH",
"149 -8 OFFCURVE",
"170 62 OFFCURVE",
"187 139 CURVE SMOOTH",
"200 202 LINE",
"124 202 LINE",
"108 126 LINE SMOOTH",
"101 93 OFFCURVE",
"93 83 OFFCURVE",
"83 83 CURVE SMOOTH",
"73 83 OFFCURVE",
"73 106 OFFCURVE",
"77 126 CURVE SMOOTH"
);
},
{
closed = 1;
nodes = (
"179 727 LINE",
"118 637 LINE",
"183 637 LINE",
"208 676 LINE",
"217 637 LINE",
"282 637 LINE",
"260 727 LINE"
);
}
);
width = 219;
}
);
unicode = 0109;
},
{
glyphname = cdotaccent;
lastChange = "2012-08-26 17:30:05 +0000";
layers = (
{
layerId = "38BA14EB-08C8-4487-88C1-8F957131FCA1";
name = "Regular Condensed";
paths = (
{
closed = 1;
nodes = (
"162 634 LINE",
"240 634 LINE",
"261 735 LINE",
"183 735 LINE"
);
},
{
closed = 1;
nodes = (
"141 427 LINE SMOOTH",
"145 447 OFFCURVE",
"156 467 OFFCURVE",
"165 467 CURVE SMOOTH",
"174 467 OFFCURVE",
"179 460 OFFCURVE",
"172 427 CURVE SMOOTH",
"156 355 LINE",
"232 355 LINE",
"244 408 LINE SMOOTH",
"259 479 OFFCURVE",
"272 555 OFFCURVE",
"182 555 CURVE SMOOTH",
"106 555 OFFCURVE",
"71 466 OFFCURVE",
"57 403 CURVE SMOOTH",
"2 144 LINE SMOOTH",
"-10 87 OFFCURVE",
"-17 -8 OFFCURVE",
"60 -8 CURVE SMOOTH",
"148 -8 OFFCURVE",
"169 62 OFFCURVE",
"186 139 CURVE SMOOTH",
"200 202 LINE",
"124 202 LINE",
"108 126 LINE SMOOTH",
"101 93 OFFCURVE",
"93 83 OFFCURVE",
"83 83 CURVE SMOOTH",
"73 83 OFFCURVE",
"72 106 OFFCURVE",
"77 126 CURVE"
);
}
);
width = 219;
}
);
unicode = 010B;
},
{
glyphname = d;
lastChange = "2012-08-26 17:30:05 +0000";
layers = (
{
anchors = (
{
name = center;
position = "{116, 274}";
}
);
layerId = "38BA14EB-08C8-4487-88C1-8F957131FCA1";
name = "Regular Condensed";
paths = (
{
closed = 1;
nodes = (
"319 735 LINE",
"240 735 LINE",
"195 524 LINE",
"195 537 OFFCURVE",
"175 555 OFFCURVE",
"161 555 CURVE SMOOTH",
"110 555 OFFCURVE",
"87 493 OFFCURVE",
"77 448 CURVE SMOOTH",
"3 99 LINE",
"-3 60 OFFCURVE",
"-23 -8 OFFCURVE",
"25 -8 CURVE SMOOTH",
"51 -8 OFFCURVE",
"83 18 OFFCURVE",
"90 30 CURVE",
"84 0 LINE",
"163 0 LINE"
);
},
{
closed = 1;
nodes = (
"110 125 LINE SMOOTH",
"106 106 OFFCURVE",
"98 87 OFFCURVE",
"88 87 CURVE SMOOTH",
"77 87 OFFCURVE",
"78 105 OFFCURVE",
"82 125 CURVE SMOOTH",
"148 431 LINE SMOOTH",
"152 450 OFFCURVE",
"160 467 OFFCURVE",
"169 467 CURVE SMOOTH",
"179 467 OFFCURVE",
"179 447 OFFCURVE",
"176 431 CURVE SMOOTH"
);
}
);
width = 231;
}
);
leftKerningGroup = d;
unicode = 0064;
},
{
glyphname = eth;
lastChange = "2012-08-26 17:30:05 +0000";
layers = (
{
layerId = "38BA14EB-08C8-4487-88C1-8F957131FCA1";
name = "Regular Condensed";
paths = (
{
closed = 1;
nodes = (
"177 687 LINE",
"176 686 OFFCURVE",
"184 671 OFFCURVE",
"186 657 CURVE",
"145 612 LINE",
"158 569 LINE",
"185 600 LINE",
"185 584 OFFCURVE",
"184 559 OFFCURVE",
"182 538 CURVE",
"173 548 OFFCURVE",
"162 555 OFFCURVE",
"151 555 CURVE SMOOTH",
"92 555 OFFCURVE",
"68 468 OFFCURVE",
"57 419 CURVE SMOOTH",
"-2 136 LINE SMOOTH",
"-15 75 OFFCURVE",
"-14 -8 OFFCURVE",
"58 -8 CURVE SMOOTH",
"127 -8 OFFCURVE",
"168 76 OFFCURVE",
"180 133 CURVE SMOOTH",
"248 453 LINE SMOOTH",
"269 550 OFFCURVE",
"260 623 OFFCURVE",
"252 671 CURVE",
"289 714 LINE",
"277 758 LINE",
"241 718 LINE",
"241 718 OFFCURVE",
"234 743 OFFCURVE",
"232 751 CURVE"
);
},
{
closed = 1;
nodes = (
"103 126 LINE SMOOTH",
"100 110 OFFCURVE",
"86 81 OFFCURVE",
"77 81 CURVE SMOOTH",
"65 81 OFFCURVE",
"65 104 OFFCURVE",
"69 126 CURVE SMOOTH",
"132 421 LINE SMOOTH",
"134 429 OFFCURVE",
"148 467 OFFCURVE",
"159 467 CURVE SMOOTH",
"170 467 OFFCURVE",
"171 446 OFFCURVE",
"166 421 CURVE SMOOTH"
);
}
);
width = 227;
}
);
unicode = 00F0;
},
{
glyphname = dcaron;
lastChange = "2012-08-26 17:30:05 +0000";
layers = (
{
layerId = "38BA14EB-08C8-4487-88C1-8F957131FCA1";
name = "Regular Condensed";
paths = (
{
closed = 1;
nodes = (
"303 735 LINE",
"224 735 LINE",
"182 535 LINE",
"173 545 OFFCURVE",
"163 555 OFFCURVE",
"147 555 CURVE SMOOTH",
"126 555 OFFCURVE",
"106 537 OFFCURVE",
"95 519 CURVE SMOOTH",
"83 498 OFFCURVE",
"74 471 OFFCURVE",
"69 448 CURVE SMOOTH",
"-4 99 LINE SMOOTH",
"-9 76 OFFCURVE",
"-12 49 OFFCURVE",
"-8 29 CURVE",
"-5 9 OFFCURVE",
"6 -8 OFFCURVE",
"27 -8 CURVE SMOOTH",
"35 -8 OFFCURVE",
"46 -5 OFFCURVE",
"53 -1 CURVE",
"56 1 OFFCURVE",
"67 10 OFFCURVE",
"71 13 CURVE",
"68 0 LINE",
"147 0 LINE"
);
},
{
closed = 1;
nodes = (
"406 735 LINE",
"325 735 LINE",
"302 624 LINE",
"327 624 LINE",
"274 494 LINE",
"322 494 LINE",
"383 624 LINE"
);
},
{
closed = 1;
nodes = (
"93 120 LINE SMOOTH",
"89 101 OFFCURVE",
"81 87 OFFCURVE",
"77 87 CURVE SMOOTH",
"73 87 OFFCURVE",
"73 101 OFFCURVE",
"77 120 CURVE SMOOTH",
"143 427 LINE SMOOTH",
"147 446 OFFCURVE",
"153 460 OFFCURVE",
"157 460 CURVE SMOOTH",
"161 460 OFFCURVE",
"162 443 OFFCURVE",
"159 427 CURVE SMOOTH"
);
}
);
width = 322;
}
);
unicode = 010F;
},
{
glyphname = dcroat;
lastChange = "2012-08-26 17:30:05 +0000";
layers = (
{
layerId = "38BA14EB-08C8-4487-88C1-8F957131FCA1";
name = "Regular Condensed";
paths = (
{
closed = 1;
nodes = (
"308 692 LINE",
"294 692 LINE",
"303 735 LINE",
"224 735 LINE",
"215 692 LINE",
"203 692 LINE",
"183 597 LINE",
"195 597 LINE",
"182 535 LINE",
"173 545 OFFCURVE",
"163 555 OFFCURVE",
"147 555 CURVE SMOOTH",
"126 555 OFFCURVE",
"106 537 OFFCURVE",
"95 519 CURVE SMOOTH",
"83 498 OFFCURVE",
"74 471 OFFCURVE",
"69 448 CURVE SMOOTH",
"-4 99 LINE SMOOTH",
"-9 76 OFFCURVE",
"-12 49 OFFCURVE",
"-8 29 CURVE",
"-5 9 OFFCURVE",
"6 -8 OFFCURVE",
"27 -8 CURVE SMOOTH",
"35 -8 OFFCURVE",
"46 -5 OFFCURVE",
"53 -1 CURVE",
"56 1 OFFCURVE",
"67 10 OFFCURVE",
"71 13 CURVE",
"68 0 LINE",
"147 0 LINE",
"274 597 LINE",
"288 597 LINE"
);
},
{
closed = 1;
nodes = (
"93 120 LINE SMOOTH",
"89 101 OFFCURVE",
"81 87 OFFCURVE",
"77 87 CURVE SMOOTH",
"73 87 OFFCURVE",
"73 101 OFFCURVE",
"77 120 CURVE SMOOTH",
"143 427 LINE SMOOTH",
"147 446 OFFCURVE",
"153 460 OFFCURVE",
"157 460 CURVE SMOOTH",
"161 460 OFFCURVE",
"162 443 OFFCURVE",
"159 427 CURVE SMOOTH"
);
}
);
width = 231;
}
);
unicode = 0111;
},
{
glyphname = e;
lastChange = "2012-08-26 17:30:05 +0000";
layers = (
{
anchors = (
{
name = bottom;
position = "{112, 0}";
},
{
name = ogonek;
position = "{201, 10}";
},
{
name = top;
position = "{112, 547}";
}
);
layerId = "38BA14EB-08C8-4487-88C1-8F957131FCA1";
name = "Regular Condensed";
paths = (
{
closed = 1;
nodes = (
"133 196 LINE",
"120 136 LINE SMOOTH",
"116 117 OFFCURVE",
"106 81 OFFCURVE",
"90 81 CURVE SMOOTH",
"79 81 OFFCURVE",
"82 114 OFFCURVE",
"86 136 CURVE",
"112 255 LINE",
"221 255 LINE",
"255 418 LINE SMOOTH",
"269 481 OFFCURVE",
"274 555 OFFCURVE",
"190 555 CURVE SMOOTH",
"123 555 OFFCURVE",
"83 480 OFFCURVE",
"69 415 CURVE SMOOTH",
"8 130 LINE SMOOTH",
"-4 67 OFFCURVE",
"-3 -8 OFFCURVE",
"66 -8 CURVE SMOOTH",
"143 -8 OFFCURVE",
"178 56 OFFCURVE",
"193 127 CURVE SMOOTH",
"208 196 LINE"
);
},
{
closed = 1;
nodes = (
"145 411 LINE SMOOTH",
"148 427 OFFCURVE",
"158 467 OFFCURVE",
"171 467 CURVE SMOOTH",
"188 467 OFFCURVE",
"185 438 OFFCURVE",
"179 411 CURVE SMOOTH",
"162 334 LINE",
"128 334 LINE"
);
}
);
width = 223;
}
);
leftKerningGroup = c;
rightKerningGroup = c;
unicode = 0065;
},
{
glyphname = eacute;
lastChange = "2012-08-26 17:30:05 +0000";
layers = (
{
layerId = "38BA14EB-08C8-4487-88C1-8F957131FCA1";
name = "Regular Condensed";
paths = (
{
closed = 1;
nodes = (
"216 727 LINE",
"165 637 LINE",
"229 637 LINE",
"296 727 LINE"
);
},
{
closed = 1;
nodes = (
"124 196 LINE",
"111 136 LINE SMOOTH",
"107 117 OFFCURVE",
"97 81 OFFCURVE",
"81 81 CURVE SMOOTH",
"70 81 OFFCURVE",
"73 114 OFFCURVE",
"77 136 CURVE",
"103 255 LINE",
"212 255 LINE",
"246 418 LINE SMOOTH",
"260 481 OFFCURVE",
"265 555 OFFCURVE",
"181 555 CURVE SMOOTH",
"114 555 OFFCURVE",
"73 480 OFFCURVE",
"60 415 CURVE SMOOTH",
"0 130 LINE SMOOTH",
"-13 67 OFFCURVE",
"-12 -8 OFFCURVE",
"57 -8 CURVE SMOOTH",
"134 -8 OFFCURVE",
"169 56 OFFCURVE",
"184 127 CURVE SMOOTH",
"199 196 LINE"
);
},
{
closed = 1;
nodes = (
"136 411 LINE SMOOTH",
"139 427 OFFCURVE",
"149 467 OFFCURVE",
"162 467 CURVE SMOOTH",
"179 467 OFFCURVE",
"175 438 OFFCURVE",
"170 411 CURVE SMOOTH",
"153 334 LINE",
"119 334 LINE"
);
}
);
width = 223;
}
);
leftKerningGroup = c;
rightKerningGroup = c;
unicode = 00E9;
},
{
glyphname = ebreve;
lastChange = "2012-08-26 17:30:05 +0000";
layers = (
{
layerId = "38BA14EB-08C8-4487-88C1-8F957131FCA1";
name = "Regular Condensed";
paths = (
{
closed = 1;
nodes = (
"123 196 LINE",
"111 136 LINE",
"106 117 OFFCURVE",
"96 81 OFFCURVE",
"80 81 CURVE SMOOTH",
"69 81 OFFCURVE",
"72 114 OFFCURVE",
"77 136 CURVE SMOOTH",
"102 255 LINE",
"211 255 LINE",
"245 418 LINE SMOOTH",
"259 481 OFFCURVE",
"265 555 OFFCURVE",
"181 555 CURVE SMOOTH",
"114 555 OFFCURVE",
"73 480 OFFCURVE",
"59 415 CURVE SMOOTH",
"-1 130 LINE SMOOTH",
"-14 67 OFFCURVE",
"-13 -8 OFFCURVE",
"56 -8 CURVE SMOOTH",
"133 -8 OFFCURVE",
"169 56 OFFCURVE",
"184 127 CURVE SMOOTH",
"198 196 LINE"
);
},
{
closed = 1;
nodes = (
"135 411 LINE SMOOTH",
"138 427 OFFCURVE",
"148 467 OFFCURVE",
"161 467 CURVE SMOOTH",
"178 467 OFFCURVE",
"175 438 OFFCURVE",
"169 411 CURVE SMOOTH",
"153 334 LINE",
"119 334 LINE"
);
},
{
closed = 1;
nodes = (
"257 740 LINE",
"257 740 OFFCURVE",
"231 709 OFFCURVE",
"215 709 CURVE SMOOTH",
"197 709 OFFCURVE",
"189 741 OFFCURVE",
"189 741 CURVE",
"136 684 LINE",
"143 658 OFFCURVE",
"169 636 OFFCURVE",
"200 636 CURVE SMOOTH",
"231 636 OFFCURVE",
"260 656 OFFCURVE",
"284 684 CURVE"
);
}
);
width = 223;
}
);
unicode = 0115;
},
{
glyphname = ecaron;
lastChange = "2012-08-26 17:30:05 +0000";
layers = (
{
layerId = "38BA14EB-08C8-4487-88C1-8F957131FCA1";
name = "Regular Condensed";
paths = (
{
closed = 1;
nodes = (
"124 196 LINE",
"111 136 LINE SMOOTH",
"107 117 OFFCURVE",
"97 81 OFFCURVE",
"81 81 CURVE SMOOTH",
"70 81 OFFCURVE",
"73 114 OFFCURVE",
"77 136 CURVE",
"103 255 LINE",
"212 255 LINE",
"246 418 LINE SMOOTH",
"260 481 OFFCURVE",
"265 555 OFFCURVE",
"181 555 CURVE SMOOTH",
"114 555 OFFCURVE",
"73 480 OFFCURVE",
"60 415 CURVE SMOOTH",
"0 130 LINE SMOOTH",
"-13 67 OFFCURVE",
"-12 -8 OFFCURVE",
"57 -8 CURVE SMOOTH",
"134 -8 OFFCURVE",
"169 56 OFFCURVE",
"184 127 CURVE SMOOTH",
"199 196 LINE"
);
},
{
closed = 1;
nodes = (
"136 411 LINE SMOOTH",
"139 427 OFFCURVE",
"149 467 OFFCURVE",
"162 467 CURVE SMOOTH",
"179 467 OFFCURVE",
"175 438 OFFCURVE",
"170 411 CURVE SMOOTH",
"153 334 LINE",
"119 334 LINE"
);
},
{
closed = 1;
nodes = (
"240 637 LINE",
"300 727 LINE",
"235 727 LINE",
"210 688 LINE",
"201 727 LINE",
"136 727 LINE",
"159 637 LINE"
);
}
);
width = 223;
}
);
unicode = 011B;
},
{
glyphname = ecircumflex;
lastChange = "2012-08-26 17:30:05 +0000";
layers = (
{
layerId = "38BA14EB-08C8-4487-88C1-8F957131FCA1";
name = "Regular Condensed";
paths = (
{
closed = 1;
nodes = (
"124 196 LINE",
"111 136 LINE SMOOTH",
"107 117 OFFCURVE",
"97 81 OFFCURVE",
"81 81 CURVE SMOOTH",
"70 81 OFFCURVE",
"73 114 OFFCURVE",
"77 136 CURVE",
"103 255 LINE",
"212 255 LINE",
"246 418 LINE SMOOTH",
"260 481 OFFCURVE",
"265 555 OFFCURVE",
"181 555 CURVE SMOOTH",
"114 555 OFFCURVE",
"73 480 OFFCURVE",
"60 415 CURVE SMOOTH",
"0 130 LINE SMOOTH",
"-13 67 OFFCURVE",
"-12 -8 OFFCURVE",
"57 -8 CURVE SMOOTH",
"134 -8 OFFCURVE",
"169 56 OFFCURVE",
"184 127 CURVE SMOOTH",
"199 196 LINE"
);
},
{
closed = 1;
nodes = (
"136 411 LINE SMOOTH",
"139 427 OFFCURVE",
"149 467 OFFCURVE",
"162 467 CURVE SMOOTH",
"179 467 OFFCURVE",
"175 438 OFFCURVE",
"170 411 CURVE SMOOTH",
"153 334 LINE",
"119 334 LINE"
);
},
{
closed = 1;
nodes = (
"178 727 LINE",
"117 637 LINE",
"182 637 LINE",
"207 676 LINE",
"216 637 LINE",
"281 637 LINE",
"259 727 LINE"
);
}
);
width = 223;
}
);
leftKerningGroup = c;
rightKerningGroup = c;
unicode = 00EA;
},
{
glyphname = edieresis;
lastChange = "2012-08-26 17:30:05 +0000";
layers = (
{
layerId = "38BA14EB-08C8-4487-88C1-8F957131FCA1";
name = "Regular Condensed";
paths = (
{
closed = 1;
nodes = (
"124 196 LINE",
"111 136 LINE SMOOTH",
"107 117 OFFCURVE",
"96 81 OFFCURVE",
"80 81 CURVE SMOOTH",
"69 81 OFFCURVE",
"72 114 OFFCURVE",
"77 136 CURVE SMOOTH",
"102 255 LINE",
"211 255 LINE",
"246 418 LINE SMOOTH",
"259 481 OFFCURVE",
"265 555 OFFCURVE",
"181 555 CURVE SMOOTH",
"114 555 OFFCURVE",
"73 480 OFFCURVE",
"59 415 CURVE SMOOTH",
"0 130 LINE SMOOTH",
"-14 67 OFFCURVE",
"-13 -8 OFFCURVE",
"56 -8 CURVE SMOOTH",
"133 -8 OFFCURVE",
"169 56 OFFCURVE",
"184 127 CURVE SMOOTH",
"199 196 LINE"
);
},
{
closed = 1;
nodes = (
"135 411 LINE",
"139 427 OFFCURVE",
"148 467 OFFCURVE",
"161 467 CURVE SMOOTH",
"178 467 OFFCURVE",
"175 438 OFFCURVE",
"169 411 CURVE SMOOTH",
"153 334 LINE",
"119 334 LINE"
);
},
{
closed = 1;
nodes = (
"114 637 LINE",
"188 637 LINE",
"209 735 LINE",
"135 735 LINE"
);
},
{
closed = 1;
nodes = (
"211 637 LINE",
"284 637 LINE",
"305 735 LINE",
"232 735 LINE"
);
}
);
width = 223;
}
);
leftKerningGroup = c;
rightKerningGroup = c;
unicode = 00EB;
},
{
glyphname = edotaccent;
lastChange = "2012-08-26 17:30:05 +0000";
layers = (
{
layerId = "38BA14EB-08C8-4487-88C1-8F957131FCA1";
name = "Regular Condensed";
paths = (
{
closed = 1;
nodes = (
"161 634 LINE",
"240 634 LINE",
"261 735 LINE",
"182 735 LINE"
);
},
{
closed = 1;
nodes = (
"124 196 LINE",
"111 136 LINE SMOOTH",
"107 117 OFFCURVE",
"96 81 OFFCURVE",
"80 81 CURVE SMOOTH",
"69 81 OFFCURVE",
"72 114 OFFCURVE",
"77 136 CURVE SMOOTH",
"102 255 LINE",
"211 255 LINE",
"246 418 LINE SMOOTH",
"259 481 OFFCURVE",
"265 555 OFFCURVE",
"181 555 CURVE SMOOTH",
"114 555 OFFCURVE",
"73 480 OFFCURVE",
"59 415 CURVE SMOOTH",
"0 130 LINE SMOOTH",
"-14 67 OFFCURVE",
"-13 -8 OFFCURVE",
"56 -8 CURVE SMOOTH",
"133 -8 OFFCURVE",
"169 56 OFFCURVE",
"184 127 CURVE SMOOTH",
"199 196 LINE"
);
},
{
closed = 1;
nodes = (
"135 411 LINE",
"139 427 OFFCURVE",
"148 467 OFFCURVE",
"161 467 CURVE SMOOTH",
"178 467 OFFCURVE",
"175 438 OFFCURVE",
"169 411 CURVE SMOOTH",
"153 334 LINE",
"119 334 LINE"
);
}
);
width = 223;
}
);
unicode = 0117;
},
{
glyphname = egrave;
lastChange = "2012-08-26 17:30:05 +0000";
layers = (
{
layerId = "38BA14EB-08C8-4487-88C1-8F957131FCA1";
name = "Regular Condensed";
paths = (
{
closed = 1;
nodes = (
"138 727 LINE",
"166 637 LINE",
"230 637 LINE",
"218 727 LINE"
);
},
{
closed = 1;
nodes = (
"124 196 LINE",
"111 136 LINE SMOOTH",
"107 117 OFFCURVE",
"97 81 OFFCURVE",
"81 81 CURVE SMOOTH",
"70 81 OFFCURVE",
"73 114 OFFCURVE",
"77 136 CURVE",
"103 255 LINE",
"212 255 LINE",
"246 418 LINE SMOOTH",
"260 481 OFFCURVE",
"265 555 OFFCURVE",
"181 555 CURVE SMOOTH",
"114 555 OFFCURVE",
"73 480 OFFCURVE",
"60 415 CURVE SMOOTH",
"0 130 LINE SMOOTH",
"-13 67 OFFCURVE",
"-12 -8 OFFCURVE",
"57 -8 CURVE SMOOTH",
"134 -8 OFFCURVE",
"169 56 OFFCURVE",
"184 127 CURVE SMOOTH",
"199 196 LINE"
);
},
{
closed = 1;
nodes = (
"136 411 LINE SMOOTH",
"139 427 OFFCURVE",
"149 467 OFFCURVE",
"162 467 CURVE SMOOTH",
"179 467 OFFCURVE",
"175 438 OFFCURVE",
"170 411 CURVE SMOOTH",
"153 334 LINE",
"119 334 LINE"
);
}
);
width = 223;
}
);
leftKerningGroup = c;
rightKerningGroup = c;
unicode = 00E8;
},
{
glyphname = emacron;
lastChange = "2012-08-26 17:30:05 +0000";
layers = (
{
layerId = "38BA14EB-08C8-4487-88C1-8F957131FCA1";
name = "Regular Condensed";
paths = (
{
closed = 1;
nodes = (
"135 642 LINE",
"269 642 LINE",
"286 721 LINE",
"152 721 LINE"
);
},
{
closed = 1;
nodes = (
"124 196 LINE",
"112 136 LINE SMOOTH",
"108 117 OFFCURVE",
"97 81 OFFCURVE",
"81 81 CURVE SMOOTH",
"70 81 OFFCURVE",
"73 114 OFFCURVE",
"78 136 CURVE SMOOTH",
"103 255 LINE",
"212 255 LINE",
"247 418 LINE SMOOTH",
"260 481 OFFCURVE",
"266 555 OFFCURVE",
"182 555 CURVE SMOOTH",
"115 555 OFFCURVE",
"74 480 OFFCURVE",
"60 415 CURVE SMOOTH",
"0 130 LINE SMOOTH",
"-13 67 OFFCURVE",
"-12 -8 OFFCURVE",
"57 -8 CURVE SMOOTH",
"134 -8 OFFCURVE",
"170 56 OFFCURVE",
"185 127 CURVE SMOOTH",
"199 196 LINE"
);
},
{
closed = 1;
nodes = (
"136 411 LINE SMOOTH",
"139 427 OFFCURVE",
"149 467 OFFCURVE",
"162 467 CURVE SMOOTH",
"179 467 OFFCURVE",
"176 438 OFFCURVE",
"170 411 CURVE SMOOTH",
"154 334 LINE",
"120 334 LINE"
);
}
);
width = 223;
}
);
unicode = 0113;
},
{
glyphname = eogonek;
lastChange = "2012-08-26 17:30:05 +0000";
layers = (
{
layerId = "38BA14EB-08C8-4487-88C1-8F957131FCA1";
name = "Regular Condensed";
paths = (
{
closed = 1;
nodes = (
"154 411 LINE",
"158 427 OFFCURVE",
"167 467 OFFCURVE",
"180 467 CURVE SMOOTH",
"197 467 OFFCURVE",
"194 438 OFFCURVE",
"188 411 CURVE SMOOTH",
"172 334 LINE",
"138 334 LINE"
);
},
{
closed = 1;
nodes = (
"143 196 LINE",
"130 136 LINE SMOOTH",
"126 117 OFFCURVE",
"115 81 OFFCURVE",
"99 81 CURVE SMOOTH",
"88 81 OFFCURVE",
"91 114 OFFCURVE",
"96 136 CURVE SMOOTH",
"121 255 LINE",
"230 255 LINE",
"265 418 LINE SMOOTH",
"278 481 OFFCURVE",
"284 555 OFFCURVE",
"200 555 CURVE SMOOTH",
"133 555 OFFCURVE",
"92 480 OFFCURVE",
"78 415 CURVE SMOOTH",
"18 130 LINE SMOOTH",
"5 68 OFFCURVE",
"5 -5 OFFCURVE",
"71 -8 CURVE",
"75 -8 LINE SMOOTH",
"80 -8 OFFCURVE",
"81 -9 OFFCURVE",
"84 -8 CURVE",
"79 -14 OFFCURVE",
"70 -24 OFFCURVE",
"65 -31 CURVE SMOOTH",
"51 -50 OFFCURVE",
"34 -79 OFFCURVE",
"29 -103 CURVE SMOOTH",
"20 -148 OFFCURVE",
"37 -188 OFFCURVE",
"82 -188 CURVE SMOOTH",
"94 -188 OFFCURVE",
"105 -186 OFFCURVE",
"124 -176 CURVE",
"145 -101 LINE",
"127 -112 OFFCURVE",
"111 -121 OFFCURVE",
"106 -121 CURVE SMOOTH",
"96 -121 OFFCURVE",
"87 -112 OFFCURVE",
"93 -83 CURVE",
"96 -71 OFFCURVE",
"99 -60 OFFCURVE",
"104 -50 CURVE SMOOTH",
"115 -28 OFFCURVE",
"125 -14 OFFCURVE",
"137 0 CURVE",
"119 0 LINE",
"166 19 OFFCURVE",
"191 71 OFFCURVE",
"203 127 CURVE SMOOTH",
"218 196 LINE"
);
}
);
width = 223;
}
);
unicode = 0119;
},
{
glyphname = f;
lastChange = "2012-08-26 17:30:05 +0000";
layers = (
{
layerId = "38BA14EB-08C8-4487-88C1-8F957131FCA1";
name = "Regular Condensed";
paths = (
{
closed = 1;
nodes = (
"66 0 LINE",
"163 456 LINE",
"194 456 LINE",
"214 547 LINE",
"183 547 LINE",
"191 585 LINE SMOOTH",
"196 610 OFFCURVE",
"202 637 OFFCURVE",
"213 647 CURVE",
"219 652 OFFCURVE",
"231 653 OFFCURVE",
"241 646 CURVE",
"258 729 LINE",
"248 736 OFFCURVE",
"236 739 OFFCURVE",
"223 739 CURVE SMOOTH",
"150 739 OFFCURVE",
"127 646 OFFCURVE",
"111 579 CURVE",
"105 547 LINE",
"74 547 LINE",
"54 456 LINE",
"85 456 LINE",
"-11 0 LINE"
);
}
);
width = 169;
}
);
unicode = 0066;
},
{
glyphname = g;
lastChange = "2012-08-26 17:30:05 +0000";
layers = (
{
anchors = (
{
name = top;
position = "{123, 547}";
}
);
layerId = "38BA14EB-08C8-4487-88C1-8F957131FCA1";
name = "Regular Condensed";
paths = (
{
closed = 1;
nodes = (
"263 429 LINE",
"264 435 OFFCURVE",
"265 449 OFFCURVE",
"264 453 CURVE",
"270 460 OFFCURVE",
"284 465 OFFCURVE",
"303 465 CURVE",
"322 555 LINE",
"295 555 OFFCURVE",
"273 541 OFFCURVE",
"252 521 CURVE",
"245 543 OFFCURVE",
"227 555 OFFCURVE",
"197 555 CURVE SMOOTH",
"130 555 OFFCURVE",
"90 474 OFFCURVE",
"77 416 CURVE SMOOTH",
"45 267 LINE SMOOTH",
"35 221 OFFCURVE",
"41 186 OFFCURVE",
"58 148 CURVE",
"33 129 OFFCURVE",
"6 96 OFFCURVE",
"0 66 CURVE SMOOTH",
"-8 25 OFFCURVE",
"6 4 OFFCURVE",
"27 -7 CURVE",
"26 -7 LINE",
"-3 -26 OFFCURVE",
"-35 -52 OFFCURVE",
"-43 -90 CURVE SMOOTH",
"-56 -154 OFFCURVE",
"-28 -196 OFFCURVE",
"40 -196 CURVE SMOOTH",
"122 -196 OFFCURVE",
"167 -129 OFFCURVE",
"183 -56 CURVE SMOOTH",
"192 -11 OFFCURVE",
"185 18 OFFCURVE",
"172 40 CURVE",
"160 58 OFFCURVE",
"139 65 OFFCURVE",
"119 71 CURVE SMOOTH",
"104 75 OFFCURVE",
"82 85 OFFCURVE",
"86 105 CURVE SMOOTH",
"88 115 OFFCURVE",
"93 124 OFFCURVE",
"97 129 CURVE",
"102 129 LINE SMOOTH",
"170 129 OFFCURVE",
"212 206 OFFCURVE",
"228 264 CURVE"
);
},
{
closed = 1;
nodes = (
"150 262 LINE SMOOTH",
"147 248 OFFCURVE",
"138 213 OFFCURVE",
"125 213 CURVE SMOOTH",
"115 213 OFFCURVE",
"118 243 OFFCURVE",
"122 262 CURVE SMOOTH",
"155 417 LINE SMOOTH",
"159 437 OFFCURVE",
"169 467 OFFCURVE",
"179 467 CURVE SMOOTH",
"192 467 OFFCURVE",
"188 439 OFFCURVE",
"183 417 CURVE SMOOTH"
);
},
{
closed = 1;
nodes = (
"86 -35 LINE",
"98 -40 OFFCURVE",
"109 -50 OFFCURVE",
"104 -74 CURVE",
"99 -94 OFFCURVE",
"81 -111 OFFCURVE",
"59 -111 CURVE SMOOTH",
"37 -111 OFFCURVE",
"31 -94 OFFCURVE",
"36 -73 CURVE",
"40 -52 OFFCURVE",
"53 -37 OFFCURVE",
"64 -27 CURVE"
);
}
);
width = 245;
}
);
unicode = 0067;
},
{
glyphname = gbreve;
lastChange = "2012-08-26 17:30:05 +0000";
layers = (
{
layerId = "38BA14EB-08C8-4487-88C1-8F957131FCA1";
name = "Regular Condensed";
paths = (
{
closed = 1;
nodes = (
"253 429 LINE",
"254 435 OFFCURVE",
"255 449 OFFCURVE",
"254 453 CURVE",
"260 460 OFFCURVE",
"274 465 OFFCURVE",
"293 465 CURVE",
"313 555 LINE",
"286 555 OFFCURVE",
"264 541 OFFCURVE",
"242 521 CURVE",
"235 543 OFFCURVE",
"218 555 OFFCURVE",
"188 555 CURVE SMOOTH",
"121 555 OFFCURVE",
"80 474 OFFCURVE",
"67 416 CURVE SMOOTH",
"35 267 LINE SMOOTH",
"26 221 OFFCURVE",
"31 186 OFFCURVE",
"48 148 CURVE",
"23 129 OFFCURVE",
"-3 96 OFFCURVE",
"-9 66 CURVE SMOOTH",
"-18 25 OFFCURVE",
"-3 4 OFFCURVE",
"17 -7 CURVE",
"16 -7 LINE",
"-13 -26 OFFCURVE",
"-44 -52 OFFCURVE",
"-53 -90 CURVE SMOOTH",
"-66 -154 OFFCURVE",
"-38 -196 OFFCURVE",
"30 -196 CURVE SMOOTH",
"112 -196 OFFCURVE",
"157 -129 OFFCURVE",
"173 -56 CURVE SMOOTH",
"182 -11 OFFCURVE",
"175 18 OFFCURVE",
"162 40 CURVE",
"150 58 OFFCURVE",
"129 65 OFFCURVE",
"109 71 CURVE SMOOTH",
"95 75 OFFCURVE",
"72 85 OFFCURVE",
"76 105 CURVE SMOOTH",
"78 115 OFFCURVE",
"83 124 OFFCURVE",
"87 129 CURVE",
"92 129 LINE SMOOTH",
"160 129 OFFCURVE",
"202 206 OFFCURVE",
"218 264 CURVE"
);
},
{
closed = 1;
nodes = (
"140 262 LINE SMOOTH",
"137 248 OFFCURVE",
"128 213 OFFCURVE",
"115 213 CURVE SMOOTH",
"105 213 OFFCURVE",
"108 243 OFFCURVE",
"112 262 CURVE SMOOTH",
"145 417 LINE SMOOTH",
"149 437 OFFCURVE",
"159 467 OFFCURVE",
"169 467 CURVE SMOOTH",
"182 467 OFFCURVE",
"178 439 OFFCURVE",
"173 417 CURVE SMOOTH"
);
},
{
closed = 1;
nodes = (
"76 -35 LINE",
"88 -40 OFFCURVE",
"99 -50 OFFCURVE",
"94 -74 CURVE SMOOTH",
"90 -94 OFFCURVE",
"71 -111 OFFCURVE",
"49 -111 CURVE SMOOTH",
"27 -111 OFFCURVE",
"22 -94 OFFCURVE",
"26 -73 CURVE",
"31 -52 OFFCURVE",
"43 -37 OFFCURVE",
"54 -27 CURVE"
);
},
{
closed = 1;
nodes = (
"270 740 LINE",
"270 740 OFFCURVE",
"244 709 OFFCURVE",
"228 709 CURVE SMOOTH",
"210 709 OFFCURVE",
"202 741 OFFCURVE",
"202 741 CURVE",
"149 684 LINE",
"156 658 OFFCURVE",
"182 636 OFFCURVE",
"213 636 CURVE SMOOTH",
"244 636 OFFCURVE",
"273 656 OFFCURVE",
"297 684 CURVE"
);
}
);
width = 235;
}
);
unicode = 011F;
},
{
glyphname = gcircumflex;
lastChange = "2012-08-26 17:30:05 +0000";
layers = (
{
layerId = "38BA14EB-08C8-4487-88C1-8F957131FCA1";
name = "Regular Condensed";
paths = (
{
closed = 1;
nodes = (
"254 429 LINE",
"255 435 OFFCURVE",
"256 449 OFFCURVE",
"255 453 CURVE",
"261 460 OFFCURVE",
"275 465 OFFCURVE",
"294 465 CURVE",
"313 555 LINE",
"286 555 OFFCURVE",
"264 541 OFFCURVE",
"243 521 CURVE",
"236 543 OFFCURVE",
"218 555 OFFCURVE",
"188 555 CURVE SMOOTH",
"121 555 OFFCURVE",
"81 474 OFFCURVE",
"68 416 CURVE SMOOTH",
"36 267 LINE SMOOTH",
"26 221 OFFCURVE",
"32 186 OFFCURVE",
"49 148 CURVE",
"24 129 OFFCURVE",
"-2 96 OFFCURVE",
"-9 66 CURVE",
"-17 25 OFFCURVE",
"-2 4 OFFCURVE",
"18 -7 CURVE",
"17 -7 LINE",
"-12 -26 OFFCURVE",
"-44 -52 OFFCURVE",
"-52 -90 CURVE SMOOTH",
"-65 -154 OFFCURVE",
"-37 -196 OFFCURVE",
"31 -196 CURVE SMOOTH",
"113 -196 OFFCURVE",
"158 -129 OFFCURVE",
"173 -56 CURVE SMOOTH",
"183 -11 OFFCURVE",
"176 18 OFFCURVE",
"163 40 CURVE",
"151 58 OFFCURVE",
"130 65 OFFCURVE",
"109 71 CURVE SMOOTH",
"95 75 OFFCURVE",
"72 85 OFFCURVE",
"77 105 CURVE",
"79 115 OFFCURVE",
"84 124 OFFCURVE",
"88 129 CURVE",
"93 129 LINE SMOOTH",
"161 129 OFFCURVE",
"203 206 OFFCURVE",
"218 264 CURVE"
);
},
{
closed = 1;
nodes = (
"141 262 LINE SMOOTH",
"138 248 OFFCURVE",
"129 213 OFFCURVE",
"116 213 CURVE SMOOTH",
"106 213 OFFCURVE",
"109 243 OFFCURVE",
"113 262 CURVE SMOOTH",
"146 417 LINE SMOOTH",
"150 437 OFFCURVE",
"160 467 OFFCURVE",
"170 467 CURVE SMOOTH",
"183 467 OFFCURVE",
"179 439 OFFCURVE",
"174 417 CURVE SMOOTH"
);
},
{
closed = 1;
nodes = (
"77 -35 LINE",
"89 -40 OFFCURVE",
"100 -50 OFFCURVE",
"95 -74 CURVE",
"90 -94 OFFCURVE",
"72 -111 OFFCURVE",
"50 -111 CURVE SMOOTH",
"28 -111 OFFCURVE",
"22 -94 OFFCURVE",
"27 -73 CURVE",
"31 -52 OFFCURVE",
"43 -37 OFFCURVE",
"55 -27 CURVE"
);
},
{
closed = 1;
nodes = (
"188 727 LINE",
"127 637 LINE",
"192 637 LINE",
"217 676 LINE",
"226 637 LINE",
"291 637 LINE",
"269 727 LINE"
);
}
);
width = 235;
}
);
unicode = 011D;
},
{
glyphname = gcommaaccent;
lastChange = "2012-08-26 17:30:05 +0000";
layers = (
{
layerId = "38BA14EB-08C8-4487-88C1-8F957131FCA1";
name = "Regular Condensed";
paths = (
{
closed = 1;
nodes = (
"170 682 LINE",
"251 682 LINE",
"274 793 LINE",
"253 793 LINE",
"302 923 LINE",
"254 923 LINE",
"193 793 LINE"
);
},
{
closed = 1;
nodes = (
"243 429 LINE",
"244 435 OFFCURVE",
"245 449 OFFCURVE",
"244 453 CURVE",
"251 460 OFFCURVE",
"265 465 OFFCURVE",
"284 465 CURVE",
"303 555 LINE",
"276 555 OFFCURVE",
"254 541 OFFCURVE",
"233 521 CURVE",
"225 543 OFFCURVE",
"208 555 OFFCURVE",
"178 555 CURVE SMOOTH",
"111 555 OFFCURVE",
"71 474 OFFCURVE",
"57 416 CURVE SMOOTH",
"26 267 LINE SMOOTH",
"16 221 OFFCURVE",
"21 186 OFFCURVE",
"38 148 CURVE",
"13 129 OFFCURVE",
"-13 96 OFFCURVE",
"-19 66 CURVE SMOOTH",
"-28 25 OFFCURVE",
"-12 4 OFFCURVE",
"7 -7 CURVE",
"6 -7 LINE",
"-23 -26 OFFCURVE",
"-54 -52 OFFCURVE",
"-62 -90 CURVE SMOOTH",
"-76 -154 OFFCURVE",
"-48 -196 OFFCURVE",
"20 -196 CURVE SMOOTH",
"102 -196 OFFCURVE",
"148 -129 OFFCURVE",
"163 -56 CURVE SMOOTH",
"173 -11 OFFCURVE",
"166 18 OFFCURVE",
"152 40 CURVE SMOOTH",
"140 58 OFFCURVE",
"120 65 OFFCURVE",
"99 71 CURVE SMOOTH",
"85 75 OFFCURVE",
"62 85 OFFCURVE",
"66 105 CURVE SMOOTH",
"68 115 OFFCURVE",
"73 124 OFFCURVE",
"77 129 CURVE",
"82 129 LINE SMOOTH",
"150 129 OFFCURVE",
"193 206 OFFCURVE",
"208 264 CURVE"
);
},
{
closed = 1;
nodes = (
"131 262 LINE SMOOTH",
"128 248 OFFCURVE",
"118 213 OFFCURVE",
"105 213 CURVE SMOOTH",
"95 213 OFFCURVE",
"99 243 OFFCURVE",
"103 262 CURVE SMOOTH",
"136 417 LINE SMOOTH",
"140 437 OFFCURVE",
"149 467 OFFCURVE",
"159 467 CURVE SMOOTH",
"172 467 OFFCURVE",
"168 439 OFFCURVE",
"164 417 CURVE SMOOTH"
);
},
{
closed = 1;
nodes = (
"66 -35 LINE",
"78 -40 OFFCURVE",
"89 -50 OFFCURVE",
"84 -74 CURVE SMOOTH",
"80 -94 OFFCURVE",
"61 -111 OFFCURVE",
"39 -111 CURVE SMOOTH",
"17 -111 OFFCURVE",
"12 -94 OFFCURVE",
"16 -73 CURVE",
"21 -52 OFFCURVE",
"33 -37 OFFCURVE",
"44 -27 CURVE"
);
}
);
width = 235;
}
);
unicode = 0123;
},
{
glyphname = gdotaccent;
lastChange = "2012-08-26 17:30:05 +0000";
layers = (
{
layerId = "38BA14EB-08C8-4487-88C1-8F957131FCA1";
name = "Regular Condensed";
paths = (
{
closed = 1;
nodes = (
"170 634 LINE",
"249 634 LINE",
"270 735 LINE",
"191 735 LINE"
);
},
{
closed = 1;
nodes = (
"253 429 LINE",
"254 435 OFFCURVE",
"255 449 OFFCURVE",
"254 453 CURVE",
"261 460 OFFCURVE",
"275 465 OFFCURVE",
"294 465 CURVE",
"313 555 LINE",
"286 555 OFFCURVE",
"264 541 OFFCURVE",
"243 521 CURVE",
"235 543 OFFCURVE",
"218 555 OFFCURVE",
"188 555 CURVE SMOOTH",
"121 555 OFFCURVE",
"81 474 OFFCURVE",
"67 416 CURVE SMOOTH",
"36 267 LINE SMOOTH",
"26 221 OFFCURVE",
"31 186 OFFCURVE",
"48 148 CURVE",
"23 129 OFFCURVE",
"-3 96 OFFCURVE",
"-9 66 CURVE SMOOTH",
"-18 25 OFFCURVE",
"-2 4 OFFCURVE",
"17 -7 CURVE",
"16 -7 LINE",
"-13 -26 OFFCURVE",
"-44 -52 OFFCURVE",
"-52 -90 CURVE SMOOTH",
"-66 -154 OFFCURVE",
"-38 -196 OFFCURVE",
"30 -196 CURVE SMOOTH",
"112 -196 OFFCURVE",
"157 -129 OFFCURVE",
"173 -56 CURVE SMOOTH",
"183 -11 OFFCURVE",
"176 18 OFFCURVE",
"162 40 CURVE SMOOTH",
"150 58 OFFCURVE",
"130 65 OFFCURVE",
"109 71 CURVE SMOOTH",
"95 75 OFFCURVE",
"72 85 OFFCURVE",
"76 105 CURVE SMOOTH",
"78 115 OFFCURVE",
"83 124 OFFCURVE",
"87 129 CURVE",
"92 129 LINE SMOOTH",
"160 129 OFFCURVE",
"203 206 OFFCURVE",
"218 264 CURVE"
);
},
{
closed = 1;
nodes = (
"141 262 LINE SMOOTH",
"138 248 OFFCURVE",
"128 213 OFFCURVE",
"115 213 CURVE SMOOTH",
"105 213 OFFCURVE",
"109 243 OFFCURVE",
"113 262 CURVE SMOOTH",
"146 417 LINE SMOOTH",
"150 437 OFFCURVE",
"159 467 OFFCURVE",
"169 467 CURVE SMOOTH",
"182 467 OFFCURVE",
"178 439 OFFCURVE",
"174 417 CURVE SMOOTH"
);
},
{
closed = 1;
nodes = (
"76 -35 LINE",
"88 -40 OFFCURVE",
"99 -50 OFFCURVE",
"94 -74 CURVE SMOOTH",
"90 -94 OFFCURVE",
"71 -111 OFFCURVE",
"49 -111 CURVE SMOOTH",
"27 -111 OFFCURVE",
"22 -94 OFFCURVE",
"26 -73 CURVE",
"31 -52 OFFCURVE",
"43 -37 OFFCURVE",
"54 -27 CURVE"
);
}
);
width = 235;
}
);
unicode = 0121;
},
{
glyphname = h;
lastChange = "2012-08-26 17:30:05 +0000";
layers = (
{
anchors = (
{
name = center;
position = "{115, 274}";
},
{
name = top;
position = "{115, 547}";
}
);
layerId = "38BA14EB-08C8-4487-88C1-8F957131FCA1";
name = "Regular Condensed";
paths = (
{
closed = 1;
nodes = (
"146 431 LINE SMOOTH",
"149 444 OFFCURVE",
"156 467 OFFCURVE",
"167 467 CURVE SMOOTH",
"179 467 OFFCURVE",
"175 443 OFFCURVE",
"172 431 CURVE SMOOTH",
"80 0 LINE",
"155 0 LINE",
"251 448 LINE SMOOTH",
"258 481 OFFCURVE",
"265 555 OFFCURVE",
"215 555 CURVE SMOOTH",
"198 555 OFFCURVE",
"171 537 OFFCURVE",
"166 524 CURVE",
"211 735 LINE",
"132 735 LINE",
"-24 0 LINE",
"54 0 LINE"
);
}
);
width = 229;
}
);
rightKerningGroup = b;
unicode = 0068;
},
{
glyphname = hbar;
lastChange = "2012-08-26 17:30:05 +0000";
layers = (
{
layerId = "38BA14EB-08C8-4487-88C1-8F957131FCA1";
name = "Regular Condensed";
paths = (
{
closed = 1;
nodes = (
"146 431 LINE SMOOTH",
"149 444 OFFCURVE",
"156 467 OFFCURVE",
"167 467 CURVE SMOOTH",
"179 467 OFFCURVE",
"175 443 OFFCURVE",
"172 431 CURVE SMOOTH",
"80 0 LINE",
"155 0 LINE",
"251 448 LINE SMOOTH",
"258 481 OFFCURVE",
"265 555 OFFCURVE",
"215 555 CURVE SMOOTH",
"198 555 OFFCURVE",
"172 538 OFFCURVE",
"166 525 CURVE",
"185 612 LINE",
"218 612 LINE",
"234 691 LINE",
"201 691 LINE",
"211 735 LINE",
"132 735 LINE",
"122 691 LINE",
"99 691 LINE",
"83 612 LINE",
"106 612 LINE",
"-24 0 LINE",
"54 0 LINE"
);
}
);
width = 232;
}
);
unicode = 0127;
},
{
glyphname = hcircumflex;
lastChange = "2012-08-26 17:30:05 +0000";
layers = (
{
layerId = "38BA14EB-08C8-4487-88C1-8F957131FCA1";
name = "Regular Condensed";
paths = (
{
closed = 1;
nodes = (
"201 657 LINE",
"208 637 LINE",
"280 637 LINE",
"258 727 LINE",
"209 727 LINE",
"211 735 LINE",
"132 735 LINE",
"-24 0 LINE",
"54 0 LINE",
"146 431 LINE SMOOTH",
"149 444 OFFCURVE",
"156 467 OFFCURVE",
"167 467 CURVE SMOOTH",
"179 467 OFFCURVE",
"175 443 OFFCURVE",
"172 431 CURVE SMOOTH",
"80 0 LINE",
"155 0 LINE",
"251 448 LINE SMOOTH",
"258 481 OFFCURVE",
"265 555 OFFCURVE",
"215 555 CURVE SMOOTH",
"198 555 OFFCURVE",
"172 538 OFFCURVE",
"166 525 CURVE",
"190 639 LINE"
);
}
);
width = 232;
}
);
unicode = 0125;
},
{
glyphname = i;
lastChange = "2012-08-26 17:30:05 +0000";
layers = (
{
layerId = "38BA14EB-08C8-4487-88C1-8F957131FCA1";
name = "Regular Condensed";
paths = (
{
closed = 1;
nodes = (
"110 634 LINE",
"189 634 LINE",
"211 735 LINE",
"132 735 LINE"
);
},
{
closed = 1;
nodes = (
"54 0 LINE",
"171 547 LINE",
"92 547 LINE",
"-24 0 LINE"
);
}
);
width = 132;
}
);
leftKerningGroup = I;
rightKerningGroup = I;
unicode = 0069;
},
{
glyphname = dotlessi;
lastChange = "2012-08-26 17:30:05 +0000";
layers = (
{
anchors = (
{
name = ogonek;
position = "{125, 10}";
},
{
name = top;
position = "{70, 547}";
}
);
layerId = "38BA14EB-08C8-4487-88C1-8F957131FCA1";
name = "Regular Condensed";
paths = (
{
closed = 1;
nodes = (
"64 0 LINE",
"181 547 LINE",
"102 547 LINE",
"-14 0 LINE"
);
}
);
width = 139;
}
);
unicode = 0131;
},
{
glyphname = iacute;
lastChange = "2012-08-26 17:30:05 +0000";
layers = (
{
layerId = "38BA14EB-08C8-4487-88C1-8F957131FCA1";
name = "Regular Condensed";
paths = (
{
closed = 1;
nodes = (
"161 727 LINE",
"111 637 LINE",
"175 637 LINE",
"241 727 LINE"
);
},
{
closed = 1;
nodes = (
"55 0 LINE",
"171 547 LINE",
"92 547 LINE",
"-23 0 LINE"
);
}
);
width = 139;
}
);
leftKerningGroup = I;
rightKerningGroup = I;
unicode = 00ED;
},
{
glyphname = ibreve;
lastChange = "2012-08-26 17:30:05 +0000";
layers = (
{
layerId = "38BA14EB-08C8-4487-88C1-8F957131FCA1";
name = "Regular Condensed";
paths = (
{
closed = 1;
nodes = (
"54 0 LINE",
"170 547 LINE",
"91 547 LINE",
"-24 0 LINE"
);
},
{
closed = 1;
nodes = (
"210 740 LINE",
"210 740 OFFCURVE",
"185 709 OFFCURVE",
"169 709 CURVE SMOOTH",
"151 709 OFFCURVE",
"143 741 OFFCURVE",
"143 741 CURVE",
"90 684 LINE",
"97 658 OFFCURVE",
"122 636 OFFCURVE",
"153 636 CURVE SMOOTH",
"184 636 OFFCURVE",
"214 656 OFFCURVE",
"238 684 CURVE"
);
}
);
width = 139;
}
);
unicode = 012D;
},
{
glyphname = icircumflex;
lastChange = "2012-08-26 17:30:05 +0000";
layers = (
{
layerId = "38BA14EB-08C8-4487-88C1-8F957131FCA1";
name = "Regular Condensed";
paths = (
{
closed = 1;
nodes = (
"55 0 LINE",
"171 547 LINE",
"92 547 LINE",
"-23 0 LINE"
);
},
{
closed = 1;
nodes = (
"130 727 LINE",
"69 637 LINE",
"134 637 LINE",
"160 676 LINE",
"168 637 LINE",
"233 637 LINE",
"211 727 LINE"
);
}
);
width = 139;
}
);
leftKerningGroup = Icircumflex;
rightKerningGroup = Icircumflex;
unicode = 00EE;
},
{
glyphname = idieresis;
lastChange = "2012-08-26 17:30:05 +0000";
layers = (
{
layerId = "38BA14EB-08C8-4487-88C1-8F957131FCA1";
name = "Regular Condensed";
paths = (
{
closed = 1;
nodes = (
"54 0 LINE",
"171 547 LINE",
"92 547 LINE",
"-24 0 LINE"
);
},
{
closed = 1;
nodes = (
"66 637 LINE",
"140 637 LINE",
"161 735 LINE",
"87 735 LINE"
);
},
{
closed = 1;
nodes = (
"163 637 LINE",
"236 637 LINE",
"257 735 LINE",
"184 735 LINE"
);
}
);
width = 139;
}
);
leftKerningGroup = Icircumflex;
rightKerningGroup = Icircumflex;
unicode = 00EF;
},
{
glyphname = igrave;
lastChange = "2012-08-26 17:30:05 +0000";
layers = (
{
layerId = "38BA14EB-08C8-4487-88C1-8F957131FCA1";
name = "Regular Condensed";
paths = (
{
closed = 1;
nodes = (
"97 727 LINE",
"126 637 LINE",
"190 637 LINE",
"177 727 LINE"
);
},
{
closed = 1;
nodes = (
"55 0 LINE",
"171 547 LINE",
"92 547 LINE",
"-23 0 LINE"
);
}
);
width = 139;
}
);
leftKerningGroup = I;
rightKerningGroup = I;
unicode = 00EC;
},
{
glyphname = ij;
lastChange = "2012-08-26 17:30:05 +0000";
layers = (
{
layerId = "38BA14EB-08C8-4487-88C1-8F957131FCA1";
name = "Regular Condensed";
paths = (
{
closed = 1;
nodes = (
"120 634 LINE",
"199 634 LINE",
"221 735 LINE",
"142 735 LINE"
);
},
{
closed = 1;
nodes = (
"64 0 LINE",
"181 547 LINE",
"102 547 LINE",
"-14 0 LINE"
);
},
{
closed = 1;
nodes = (
"228 634 LINE",
"307 634 LINE",
"329 735 LINE",
"250 735 LINE"
);
},
{
closed = 1;
nodes = (
"210 547 LINE",
"86 -36 LINE SMOOTH",
"81 -59 OFFCURVE",
"75 -101 OFFCURVE",
"42 -89 CURVE",
"20 -180 LINE",
"34 -187 OFFCURVE",
"43 -188 OFFCURVE",
"54 -188 CURVE SMOOTH",
"92 -188 OFFCURVE",
"121 -157 OFFCURVE",
"138 -122 CURVE SMOOTH",
"154 -86 OFFCURVE",
"164 -42 OFFCURVE",
"170 -14 CURVE SMOOTH",
"289 547 LINE"
);
}
);
width = 245;
}
);
unicode = 0133;
},
{
glyphname = imacron;
lastChange = "2012-08-26 17:30:05 +0000";
layers = (
{
layerId = "38BA14EB-08C8-4487-88C1-8F957131FCA1";
name = "Regular Condensed";
paths = (
{
closed = 1;
nodes = (
"86 642 LINE",
"220 642 LINE",
"236 721 LINE",
"102 721 LINE"
);
},
{
closed = 1;
nodes = (
"55 0 LINE",
"172 547 LINE",
"93 547 LINE",
"-23 0 LINE"
);
}
);
width = 139;
}
);
unicode = 012B;
},
{
glyphname = iogonek;
lastChange = "2012-08-26 17:30:05 +0000";
layers = (
{
layerId = "38BA14EB-08C8-4487-88C1-8F957131FCA1";
name = "Regular Condensed";
paths = (
{
closed = 1;
nodes = (
"221 735 LINE",
"142 735 LINE",
"120 634 LINE",
"199 634 LINE"
);
},
{
closed = 1;
nodes = (
"64 0 LINE",
"181 547 LINE",
"102 547 LINE",
"-14 0 LINE",
"10 0 LINE",
"0 -11 OFFCURVE",
"-7 -19 OFFCURVE",
"-12 -25 CURVE SMOOTH",
"-17 -31 LINE",
"-31 -50 OFFCURVE",
"-47 -79 OFFCURVE",
"-52 -103 CURVE SMOOTH",
"-62 -148 OFFCURVE",
"-45 -188 OFFCURVE",
"0 -188 CURVE SMOOTH",
"11 -188 OFFCURVE",
"21 -186 OFFCURVE",
"40 -176 CURVE",
"61 -101 LINE",
"44 -112 OFFCURVE",
"28 -121 OFFCURVE",
"23 -121 CURVE SMOOTH",
"13 -121 OFFCURVE",
"4 -112 OFFCURVE",
"10 -83 CURVE",
"12 -71 OFFCURVE",
"16 -60 OFFCURVE",
"21 -50 CURVE SMOOTH",
"31 -30 OFFCURVE",
"43 -13 OFFCURVE",
"53 0 CURVE"
);
}
);
width = 139;
}
);
unicode = 012F;
},
{
glyphname = itilde;
lastChange = "2012-08-26 17:30:05 +0000";
layers = (
{
layerId = "38BA14EB-08C8-4487-88C1-8F957131FCA1";
name = "Regular Condensed";
paths = (
{
closed = 1;
nodes = (
"54 0 LINE",
"170 547 LINE",
"91 547 LINE",
"-24 0 LINE"
);
},
{
closed = 1;
nodes = (
"80 623 LINE",
"87 630 OFFCURVE",
"115 653 OFFCURVE",
"127 653 CURVE SMOOTH",
"147 653 OFFCURVE",
"154 634 OFFCURVE",
"177 634 CURVE SMOOTH",
"195 634 OFFCURVE",
"211 646 OFFCURVE",
"222 659 CURVE",
"240 742 LINE",
"232 732 OFFCURVE",
"207 713 OFFCURVE",
"194 713 CURVE SMOOTH",
"175 713 OFFCURVE",
"167 730 OFFCURVE",
"144 730 CURVE SMOOTH",
"129 730 OFFCURVE",
"111 722 OFFCURVE",
"99 709 CURVE"
);
}
);
width = 139;
}
);
unicode = 0129;
},
{
glyphname = j;
lastChange = "2012-08-26 17:30:05 +0000";
layers = (
{
layerId = "38BA14EB-08C8-4487-88C1-8F957131FCA1";
name = "Regular Condensed";
paths = (
{
closed = 1;
nodes = (
"118 634 LINE",
"197 634 LINE",
"219 735 LINE",
"140 735 LINE"
);
},
{
closed = 1;
nodes = (
"100 547 LINE",
"-23 -36 LINE SMOOTH",
"-28 -59 OFFCURVE",
"-34 -101 OFFCURVE",
"-67 -89 CURVE",
"-89 -180 LINE",
"-75 -187 OFFCURVE",
"-66 -188 OFFCURVE",
"-55 -188 CURVE SMOOTH",
"-17 -188 OFFCURVE",
"11 -157 OFFCURVE",
"28 -122 CURVE SMOOTH",
"44 -86 OFFCURVE",
"54 -42 OFFCURVE",
"60 -14 CURVE SMOOTH",
"179 547 LINE"
);
}
);
width = 137;
}
);
unicode = 006A;
},
{
glyphname = jcircumflex;
lastChange = "2012-08-26 17:30:05 +0000";
layers = (
{
layerId = "38BA14EB-08C8-4487-88C1-8F957131FCA1";
name = "Regular Condensed";
paths = (
{
closed = 1;
nodes = (
"244 645 LINE",
"221 735 LINE",
"140 735 LINE",
"80 645 LINE",
"121 645 LINE",
"118 634 LINE",
"197 634 LINE",
"200 645 LINE"
);
},
{
closed = 1;
nodes = (
"180 547 LINE",
"61 -14 LINE SMOOTH",
"55 -42 OFFCURVE",
"45 -86 OFFCURVE",
"29 -122 CURVE SMOOTH",
"12 -157 OFFCURVE",
"-16 -188 OFFCURVE",
"-54 -188 CURVE SMOOTH",
"-65 -188 OFFCURVE",
"-74 -187 OFFCURVE",
"-88 -180 CURVE",
"-66 -89 LINE",
"-33 -101 OFFCURVE",
"-27 -59 OFFCURVE",
"-22 -36 CURVE SMOOTH",
"101 547 LINE"
);
}
);
width = 137;
}
);
unicode = 0135;
},
{
glyphname = k;
lastChange = "2012-08-26 17:30:05 +0000";
layers = (
{
anchors = (
{
name = bottom;
position = "{109, 0}";
}
);
layerId = "38BA14EB-08C8-4487-88C1-8F957131FCA1";
name = "Regular Condensed";
paths = (
{
closed = 1;
nodes = (
"132 735 LINE",
"-24 0 LINE",
"51 0 LINE",
"101 232 LINE",
"86 0 LINE",
"162 0 LINE",
"174 359 LINE",
"281 547 LINE",
"205 547 LINE",
"144 433 LINE",
"208 735 LINE"
);
}
);
width = 218;
}
);
unicode = 006B;
},
{
glyphname = kcommaaccent;
lastChange = "2012-08-26 17:30:05 +0000";
layers = (
{
layerId = "38BA14EB-08C8-4487-88C1-8F957131FCA1";
name = "Regular Condensed";
paths = (
{
closed = 1;
nodes = (
"97 -54 LINE",
"29 -54 LINE",
"14 -123 LINE",
"32 -123 LINE",
"7 -188 LINE",
"56 -188 LINE",
"82 -123 LINE"
);
},
{
closed = 1;
nodes = (
"142 735 LINE",
"-14 0 LINE",
"61 0 LINE",
"111 232 LINE",
"96 0 LINE",
"172 0 LINE",
"184 359 LINE",
"291 547 LINE",
"215 547 LINE",
"154 433 LINE",
"218 735 LINE"
);
}
);
width = 218;
}
);
unicode = 0137;
},
{
glyphname = kgreenlandic;
lastChange = "2012-08-26 17:30:05 +0000";
layers = (
{
layerId = "38BA14EB-08C8-4487-88C1-8F957131FCA1";
name = "Regular Condensed";
paths = (
{
closed = 1;
nodes = (
"132 735 LINE",
"-24 0 LINE",
"51 0 LINE",
"101 232 LINE",
"86 0 LINE",
"162 0 LINE",
"174 359 LINE",
"281 547 LINE",
"205 547 LINE",
"144 433 LINE",
"208 735 LINE"
);
}
);
width = 218;
}
);
unicode = 0138;
},
{
glyphname = l;
lastChange = "2012-08-26 17:30:05 +0000";
layers = (
{
anchors = (
{
name = bottom;
position = "{69, 0}";
},
{
name = top;
position = "{69, 547}";
},
{
name = topright;
position = "{117, 547}";
}
);
layerId = "38BA14EB-08C8-4487-88C1-8F957131FCA1";
name = "Regular Condensed";
paths = (
{
closed = 1;
nodes = (
"54 0 LINE",
"211 735 LINE",
"132 735 LINE",
"-24 0 LINE"
);
}
);
width = 137;
}
);
leftKerningGroup = I;
rightKerningGroup = I;
unicode = 006C;
},
{
glyphname = lacute;
lastChange = "2012-08-26 17:30:05 +0000";
layers = (
{
layerId = "38BA14EB-08C8-4487-88C1-8F957131FCA1";
name = "Regular Condensed";
paths = (
{
closed = 1;
nodes = (
"163 838 LINE",
"113 748 LINE",
"177 748 LINE",
"243 838 LINE"
);
},
{
closed = 1;
nodes = (
"49 0 LINE",
"205 735 LINE",
"126 735 LINE",
"-29 0 LINE"
);
}
);
width = 139;
}
);
unicode = 013A;
},
{
glyphname = lcaron;
lastChange = "2012-08-26 17:30:05 +0000";
layers = (
{
layerId = "38BA14EB-08C8-4487-88C1-8F957131FCA1";
name = "Regular Condensed";
paths = (
{
closed = 1;
nodes = (
"54 0 LINE",
"211 735 LINE",
"132 735 LINE",
"-24 0 LINE"
);
},
{
closed = 1;
nodes = (
"329 735 LINE",
"248 735 LINE",
"224 624 LINE",
"245 624 LINE",
"196 494 LINE",
"244 494 LINE",
"305 624 LINE"
);
}
);
width = 229;
}
);
unicode = 013E;
},
{
glyphname = lcommaaccent;
lastChange = "2012-08-26 17:30:05 +0000";
layers = (
{
layerId = "38BA14EB-08C8-4487-88C1-8F957131FCA1";
name = "Regular Condensed";
paths = (
{
closed = 1;
nodes = (
"64 0 LINE",
"220 735 LINE",
"141 735 LINE",
"-14 0 LINE"
);
},
{
closed = 1;
nodes = (
"50 -47 LINE",
"-17 -47 LINE",
"-32 -116 LINE",
"-14 -116 LINE",
"-39 -181 LINE",
"9 -181 LINE",
"35 -116 LINE"
);
}
);
width = 139;
}
);
unicode = 013C;
},
{
glyphname = ldot;
lastChange = "2012-08-26 17:30:05 +0000";
layers = (
{
layerId = "38BA14EB-08C8-4487-88C1-8F957131FCA1";
name = "Regular Condensed";
paths = (
{
closed = 1;
nodes = (
"54 0 LINE",
"211 735 LINE",
"132 735 LINE",
"-24 0 LINE"
);
},
{
closed = 1;
nodes = (
"152 317 LINE",
"233 317 LINE",
"256 428 LINE",
"175 428 LINE"
);
}
);
width = 223;
}
);
unicode = 0140;
},
{
glyphname = lslash;
lastChange = "2012-08-26 17:30:05 +0000";
layers = (
{
layerId = "38BA14EB-08C8-4487-88C1-8F957131FCA1";
name = "Regular Condensed";
paths = (
{
closed = 1;
nodes = (
"68 0 LINE",
"152 391 LINE",
"151 391 LINE",
"189 431 LINE",
"216 559 LINE",
"207 549 OFFCURVE",
"191 533 OFFCURVE",
"179 521 CURVE",
"225 735 LINE",
"146 735 LINE",
"79 420 LINE",
"80 420 LINE",
"41 380 LINE",
"14 252 LINE",
"23 262 OFFCURVE",
"40 278 OFFCURVE",
"51 290 CURVE",
"-10 0 LINE"
);
}
);
width = 167;
}
);
unicode = 0142;
},
{
glyphname = m;
lastChange = "2012-08-26 17:30:05 +0000";
layers = (
{
layerId = "38BA14EB-08C8-4487-88C1-8F957131FCA1";
name = "Regular Condensed";
paths = (
{
closed = 1;
nodes = (
"257 431 LINE",
"259 443 OFFCURVE",
"268 467 OFFCURVE",
"279 467 CURVE SMOOTH",
"290 467 OFFCURVE",
"291 452 OFFCURVE",
"287 431 CURVE SMOOTH",
"195 0 LINE",
"268 0 LINE",
"363 448 LINE SMOOTH",
"370 481 OFFCURVE",
"386 555 OFFCURVE",
"336 555 CURVE SMOOTH",
"314 555 OFFCURVE",
"280 537 OFFCURVE",
"266 515 CURVE",
"268 535 OFFCURVE",
"258 555 OFFCURVE",
"236 555 CURVE SMOOTH",
"217 555 OFFCURVE",
"190 538 OFFCURVE",
"174 518 CURVE",
"180 547 LINE",
"101 547 LINE",
"-14 0 LINE",
"64 0 LINE",
"156 431 LINE SMOOTH",
"160 450 OFFCURVE",
"168 467 OFFCURVE",
"177 467 CURVE SMOOTH",
"187 467 OFFCURVE",
"190 454 OFFCURVE",
"185 433 CURVE SMOOTH",
"93 0 LINE",
"165 0 LINE"
);
}
);
width = 329;
}
);
leftKerningGroup = m;
rightKerningGroup = b;
unicode = 006D;
},
{
glyphname = n;
lastChange = "2012-08-26 17:30:05 +0000";
layers = (
{
anchors = (
{
name = bottom;
position = "{116, 0}";
},
{
name = top;
position = "{116, 547}";
}
);
layerId = "38BA14EB-08C8-4487-88C1-8F957131FCA1";
name = "Regular Condensed";
paths = (
{
closed = 1;
nodes = (
"156 431 LINE SMOOTH",
"160 452 OFFCURVE",
"167 467 OFFCURVE",
"177 467 CURVE SMOOTH",
"187 467 OFFCURVE",
"189 453 OFFCURVE",
"185 432 CURVE SMOOTH",
"93 0 LINE",
"171 0 LINE",
"266 448 LINE SMOOTH",
"273 481 OFFCURVE",
"285 555 OFFCURVE",
"235 555 CURVE SMOOTH",
"218 555 OFFCURVE",
"188 534 OFFCURVE",
"174 519 CURVE",
"180 547 LINE",
"101 547 LINE",
"-14 0 LINE",
"64 0 LINE"
);
}
);
width = 232;
}
);
leftKerningGroup = m;
rightKerningGroup = b;
unicode = 006E;
},
{
glyphname = nacute;
lastChange = "2012-08-26 17:30:05 +0000";
layers = (
{
layerId = "38BA14EB-08C8-4487-88C1-8F957131FCA1";
name = "Regular Condensed";
paths = (
{
closed = 1;
nodes = (
"192 727 LINE",
"142 637 LINE",
"205 637 LINE",
"272 727 LINE"
);
},
{
closed = 1;
nodes = (
"147 431 LINE SMOOTH",
"151 452 OFFCURVE",
"158 467 OFFCURVE",
"168 467 CURVE SMOOTH",
"178 467 OFFCURVE",
"180 453 OFFCURVE",
"176 432 CURVE SMOOTH",
"84 0 LINE",
"162 0 LINE",
"257 448 LINE SMOOTH",
"264 481 OFFCURVE",
"276 555 OFFCURVE",
"226 555 CURVE SMOOTH",
"209 555 OFFCURVE",
"178 534 OFFCURVE",
"165 519 CURVE",
"171 547 LINE",
"92 547 LINE",
"-23 0 LINE",
"55 0 LINE"
);
}
);
width = 232;
}
);
unicode = 0144;
},
{
glyphname = napostrophe;
lastChange = "2012-08-26 17:30:05 +0000";
layers = (
{
layerId = "38BA14EB-08C8-4487-88C1-8F957131FCA1";
name = "Regular Condensed";
paths = (
{
closed = 1;
nodes = (
"173 704 LINE",
"104 704 LINE",
"89 635 LINE",
"108 635 LINE",
"82 570 LINE",
"130 570 LINE",
"158 635 LINE"
);
},
{
closed = 1;
nodes = (
"148 431 LINE SMOOTH",
"152 452 OFFCURVE",
"159 467 OFFCURVE",
"169 467 CURVE SMOOTH",
"179 467 OFFCURVE",
"181 453 OFFCURVE",
"177 432 CURVE SMOOTH",
"85 0 LINE",
"163 0 LINE",
"258 448 LINE SMOOTH",
"265 481 OFFCURVE",
"277 555 OFFCURVE",
"227 555 CURVE SMOOTH",
"210 555 OFFCURVE",
"180 534 OFFCURVE",
"166 519 CURVE",
"172 547 LINE",
"93 547 LINE",
"-22 0 LINE",
"56 0 LINE"
);
}
);
width = 232;
}
);
unicode = 0149;
},
{
glyphname = ncaron;
lastChange = "2012-08-26 17:30:05 +0000";
layers = (
{
layerId = "38BA14EB-08C8-4487-88C1-8F957131FCA1";
name = "Regular Condensed";
paths = (
{
closed = 1;
nodes = (
"147 431 LINE SMOOTH",
"151 452 OFFCURVE",
"158 467 OFFCURVE",
"168 467 CURVE SMOOTH",
"178 467 OFFCURVE",
"180 453 OFFCURVE",
"176 432 CURVE SMOOTH",
"84 0 LINE",
"162 0 LINE",
"257 448 LINE SMOOTH",
"264 481 OFFCURVE",
"276 555 OFFCURVE",
"226 555 CURVE SMOOTH",
"209 555 OFFCURVE",
"178 534 OFFCURVE",
"165 519 CURVE",
"171 547 LINE",
"92 547 LINE",
"-23 0 LINE",
"55 0 LINE"
);
},
{
closed = 1;
nodes = (
"237 637 LINE",
"297 727 LINE",
"232 727 LINE",
"207 688 LINE",
"198 727 LINE",
"133 727 LINE",
"156 637 LINE"
);
}
);
width = 232;
}
);
unicode = 0148;
},
{
glyphname = ncommaaccent;
lastChange = "2012-08-26 17:30:05 +0000";
layers = (
{
layerId = "38BA14EB-08C8-4487-88C1-8F957131FCA1";
name = "Regular Condensed";
paths = (
{
closed = 1;
nodes = (
"107 -54 LINE",
"39 -54 LINE",
"24 -123 LINE",
"42 -123 LINE",
"16 -188 LINE",
"65 -188 LINE",
"92 -123 LINE"
);
},
{
closed = 1;
nodes = (
"166 431 LINE SMOOTH",
"170 452 OFFCURVE",
"177 467 OFFCURVE",
"187 467 CURVE SMOOTH",
"197 467 OFFCURVE",
"199 453 OFFCURVE",
"195 432 CURVE SMOOTH",
"103 0 LINE",
"181 0 LINE",
"276 448 LINE SMOOTH",
"283 481 OFFCURVE",
"295 555 OFFCURVE",
"245 555 CURVE SMOOTH",
"228 555 OFFCURVE",
"198 534 OFFCURVE",
"184 519 CURVE",
"190 547 LINE",
"111 547 LINE",
"-4 0 LINE",
"74 0 LINE"
);
}
);
width = 232;
}
);
unicode = 0146;
},
{
glyphname = eng;
lastChange = "2012-08-26 17:30:05 +0000";
layers = (
{
layerId = "38BA14EB-08C8-4487-88C1-8F957131FCA1";
name = "Regular Condensed";
paths = (
{
closed = 1;
nodes = (
"163 431 LINE SMOOTH",
"167 452 OFFCURVE",
"174 467 OFFCURVE",
"184 467 CURVE SMOOTH",
"194 467 OFFCURVE",
"196 453 OFFCURVE",
"192 433 CURVE SMOOTH",
"99 -6 LINE SMOOTH",
"96 -19 OFFCURVE",
"92 -30 OFFCURVE",
"89 -35 CURVE",
"90 -35 LINE",
"82 -44 OFFCURVE",
"71 -48 OFFCURVE",
"59 -45 CURVE",
"40 -132 LINE",
"85 -136 OFFCURVE",
"116 -122 OFFCURVE",
"136 -100 CURVE SMOOTH",
"155 -78 OFFCURVE",
"168 -47 OFFCURVE",
"174 -19 CURVE SMOOTH",
"273 448 LINE SMOOTH",
"280 481 OFFCURVE",
"292 555 OFFCURVE",
"242 555 CURVE SMOOTH",
"225 555 OFFCURVE",
"195 534 OFFCURVE",
"181 519 CURVE",
"187 547 LINE",
"108 547 LINE",
"-7 0 LINE",
"71 0 LINE"
);
}
);
width = 232;
}
);
unicode = 014B;
},
{
glyphname = ntilde;
lastChange = "2012-08-26 17:30:05 +0000";
layers = (
{
layerId = "38BA14EB-08C8-4487-88C1-8F957131FCA1";
name = "Regular Condensed";
paths = (
{
closed = 1;
nodes = (
"146 431 LINE SMOOTH",
"150 452 OFFCURVE",
"157 467 OFFCURVE",
"167 467 CURVE SMOOTH",
"177 467 OFFCURVE",
"179 453 OFFCURVE",
"175 432 CURVE SMOOTH",
"83 0 LINE",
"161 0 LINE",
"256 448 LINE SMOOTH",
"263 481 OFFCURVE",
"275 555 OFFCURVE",
"225 555 CURVE SMOOTH",
"208 555 OFFCURVE",
"178 534 OFFCURVE",
"164 519 CURVE",
"170 547 LINE",
"91 547 LINE",
"-24 0 LINE",
"54 0 LINE"
);
},
{
closed = 1;
nodes = (
"126 623 LINE",
"133 630 OFFCURVE",
"161 653 OFFCURVE",
"173 653 CURVE SMOOTH",
"193 653 OFFCURVE",
"200 634 OFFCURVE",
"223 634 CURVE SMOOTH",
"241 634 OFFCURVE",
"257 646 OFFCURVE",
"268 659 CURVE",
"286 742 LINE",
"278 732 OFFCURVE",
"253 713 OFFCURVE",
"240 713 CURVE SMOOTH",
"221 713 OFFCURVE",
"213 730 OFFCURVE",
"190 730 CURVE SMOOTH",
"175 730 OFFCURVE",
"157 722 OFFCURVE",
"145 709 CURVE"
);
}
);
width = 232;
}
);
leftKerningGroup = m;
rightKerningGroup = b;
unicode = 00F1;
},
{
glyphname = o;
lastChange = "2012-08-26 17:30:05 +0000";
layers = (
{
anchors = (
{
name = top;
position = "{112, 547}";
}
);
layerId = "38BA14EB-08C8-4487-88C1-8F957131FCA1";
name = "Regular Condensed";
paths = (
{
closed = 1;
nodes = (
"253 414 LINE SMOOTH",
"270 491 OFFCURVE",
"272 555 OFFCURVE",
"192 555 CURVE SMOOTH",
"118 555 OFFCURVE",
"84 487 OFFCURVE",
"68 411 CURVE SMOOTH",
"9 136 LINE SMOOTH",
"-4 68 OFFCURVE",
"-7 -8 OFFCURVE",
"71 -8 CURVE SMOOTH",
"143 -8 OFFCURVE",
"176 49 OFFCURVE",
"194 133 CURVE SMOOTH"
);
},
{
closed = 1;
nodes = (
"117 126 LINE",
"116 117 OFFCURVE",
"106 81 OFFCURVE",
"90 81 CURVE SMOOTH",
"76 81 OFFCURVE",
"77 104 OFFCURVE",
"82 126 CURVE SMOOTH",
"145 421 LINE SMOOTH",
"151 448 OFFCURVE",
"159 467 OFFCURVE",
"173 467 CURVE SMOOTH",
"189 467 OFFCURVE",
"186 446 OFFCURVE",
"180 421 CURVE SMOOTH"
);
}
);
width = 223;
}
);
leftKerningGroup = c;
rightKerningGroup = c;
unicode = 006F;
},
{
glyphname = oacute;
lastChange = "2012-08-26 17:30:05 +0000";
layers = (
{
layerId = "38BA14EB-08C8-4487-88C1-8F957131FCA1";
name = "Regular Condensed";
paths = (
{
closed = 1;
nodes = (
"214 727 LINE",
"164 637 LINE",
"228 637 LINE",
"294 727 LINE"
);
},
{
closed = 1;
nodes = (
"244 414 LINE SMOOTH",
"261 491 OFFCURVE",
"263 555 OFFCURVE",
"183 555 CURVE SMOOTH",
"109 555 OFFCURVE",
"75 487 OFFCURVE",
"59 411 CURVE SMOOTH",
"0 136 LINE SMOOTH",
"-13 68 OFFCURVE",
"-16 -8 OFFCURVE",
"62 -8 CURVE SMOOTH",
"134 -8 OFFCURVE",
"167 49 OFFCURVE",
"185 133 CURVE SMOOTH"
);
},
{
closed = 1;
nodes = (
"108 126 LINE",
"107 117 OFFCURVE",
"97 81 OFFCURVE",
"81 81 CURVE SMOOTH",
"67 81 OFFCURVE",
"67 104 OFFCURVE",
"73 126 CURVE",
"136 421 LINE SMOOTH",
"142 448 OFFCURVE",
"150 467 OFFCURVE",
"164 467 CURVE SMOOTH",
"180 467 OFFCURVE",
"177 446 OFFCURVE",
"171 421 CURVE SMOOTH"
);
}
);
width = 223;
}
);
leftKerningGroup = c;
rightKerningGroup = c;
unicode = 00F3;
},
{
glyphname = obreve;
lastChange = "2012-08-26 17:30:05 +0000";
layers = (
{
layerId = "38BA14EB-08C8-4487-88C1-8F957131FCA1";
name = "Regular Condensed";
paths = (
{
closed = 1;
nodes = (
"244 414 LINE SMOOTH",
"260 491 OFFCURVE",
"263 555 OFFCURVE",
"183 555 CURVE SMOOTH",
"109 555 OFFCURVE",
"74 487 OFFCURVE",
"58 411 CURVE SMOOTH",
"0 136 LINE SMOOTH",
"-14 68 OFFCURVE",
"-17 -8 OFFCURVE",
"61 -8 CURVE SMOOTH",
"133 -8 OFFCURVE",
"166 49 OFFCURVE",
"184 133 CURVE SMOOTH"
);
},
{
closed = 1;
nodes = (
"107 126 LINE",
"106 117 OFFCURVE",
"96 81 OFFCURVE",
"80 81 CURVE SMOOTH",
"66 81 OFFCURVE",
"67 104 OFFCURVE",
"72 126 CURVE SMOOTH",
"135 421 LINE SMOOTH",
"141 448 OFFCURVE",
"149 467 OFFCURVE",
"163 467 CURVE SMOOTH",
"179 467 OFFCURVE",
"176 446 OFFCURVE",
"170 421 CURVE SMOOTH"
);
},
{
closed = 1;
nodes = (
"250 740 LINE",
"250 740 OFFCURVE",
"224 709 OFFCURVE",
"208 709 CURVE SMOOTH",
"190 709 OFFCURVE",
"182 741 OFFCURVE",
"182 741 CURVE",
"129 684 LINE",
"136 658 OFFCURVE",
"162 636 OFFCURVE",
"193 636 CURVE SMOOTH",
"224 636 OFFCURVE",
"253 656 OFFCURVE",
"277 684 CURVE"
);
}
);
width = 223;
}
);
unicode = 014F;
},
{
glyphname = ocircumflex;
lastChange = "2012-08-26 17:30:05 +0000";
layers = (
{
layerId = "38BA14EB-08C8-4487-88C1-8F957131FCA1";
name = "Regular Condensed";
paths = (
{
closed = 1;
nodes = (
"244 414 LINE SMOOTH",
"261 491 OFFCURVE",
"263 555 OFFCURVE",
"183 555 CURVE SMOOTH",
"109 555 OFFCURVE",
"75 487 OFFCURVE",
"59 411 CURVE SMOOTH",
"0 136 LINE SMOOTH",
"-13 68 OFFCURVE",
"-16 -8 OFFCURVE",
"62 -8 CURVE SMOOTH",
"134 -8 OFFCURVE",
"167 49 OFFCURVE",
"185 133 CURVE SMOOTH"
);
},
{
closed = 1;
nodes = (
"108 126 LINE",
"107 117 OFFCURVE",
"97 81 OFFCURVE",
"81 81 CURVE SMOOTH",
"67 81 OFFCURVE",
"67 104 OFFCURVE",
"73 126 CURVE",
"136 421 LINE SMOOTH",
"142 448 OFFCURVE",
"150 467 OFFCURVE",
"164 467 CURVE SMOOTH",
"180 467 OFFCURVE",
"177 446 OFFCURVE",
"171 421 CURVE SMOOTH"
);
},
{
closed = 1;
nodes = (
"178 727 LINE",
"117 637 LINE",
"182 637 LINE",
"207 676 LINE",
"216 637 LINE",
"281 637 LINE",
"259 727 LINE"
);
}
);
width = 223;
}
);
leftKerningGroup = c;
rightKerningGroup = c;
unicode = 00F4;
},
{
glyphname = odieresis;
lastChange = "2012-08-26 17:30:05 +0000";
layers = (
{
layerId = "38BA14EB-08C8-4487-88C1-8F957131FCA1";
name = "Regular Condensed";
paths = (
{
closed = 1;
nodes = (
"244 414 LINE SMOOTH",
"260 491 OFFCURVE",
"263 555 OFFCURVE",
"183 555 CURVE SMOOTH",
"109 555 OFFCURVE",
"74 487 OFFCURVE",
"58 411 CURVE SMOOTH",
"0 136 LINE SMOOTH",
"-14 68 OFFCURVE",
"-17 -8 OFFCURVE",
"61 -8 CURVE SMOOTH",
"133 -8 OFFCURVE",
"166 49 OFFCURVE",
"184 133 CURVE SMOOTH"
);
},
{
closed = 1;
nodes = (
"108 126 LINE",
"107 117 OFFCURVE",
"96 81 OFFCURVE",
"80 81 CURVE SMOOTH",
"66 81 OFFCURVE",
"67 104 OFFCURVE",
"73 126 CURVE",
"135 421 LINE SMOOTH",
"141 448 OFFCURVE",
"149 467 OFFCURVE",
"163 467 CURVE SMOOTH",
"179 467 OFFCURVE",
"177 446 OFFCURVE",
"170 421 CURVE"
);
},
{
closed = 1;
nodes = (
"114 637 LINE",
"188 637 LINE",
"209 735 LINE",
"135 735 LINE"
);
},
{
closed = 1;
nodes = (
"211 637 LINE",
"284 637 LINE",
"305 735 LINE",
"232 735 LINE"
);
}
);
width = 223;
}
);
leftKerningGroup = c;
rightKerningGroup = c;
unicode = 00F6;
},
{
glyphname = ograve;
lastChange = "2012-08-26 17:30:05 +0000";
layers = (
{
layerId = "38BA14EB-08C8-4487-88C1-8F957131FCA1";
name = "Regular Condensed";
paths = (
{
closed = 1;
nodes = (
"137 727 LINE",
"165 637 LINE",
"229 637 LINE",
"217 727 LINE"
);
},
{
closed = 1;
nodes = (
"244 414 LINE SMOOTH",
"261 491 OFFCURVE",
"263 555 OFFCURVE",
"183 555 CURVE SMOOTH",
"109 555 OFFCURVE",
"75 487 OFFCURVE",
"59 411 CURVE SMOOTH",
"0 136 LINE SMOOTH",
"-13 68 OFFCURVE",
"-16 -8 OFFCURVE",
"62 -8 CURVE SMOOTH",
"134 -8 OFFCURVE",
"167 49 OFFCURVE",
"185 133 CURVE SMOOTH"
);
},
{
closed = 1;
nodes = (
"108 126 LINE",
"107 117 OFFCURVE",
"97 81 OFFCURVE",
"81 81 CURVE SMOOTH",
"67 81 OFFCURVE",
"67 104 OFFCURVE",
"73 126 CURVE",
"136 421 LINE SMOOTH",
"142 448 OFFCURVE",
"150 467 OFFCURVE",
"164 467 CURVE SMOOTH",
"180 467 OFFCURVE",
"177 446 OFFCURVE",
"171 421 CURVE SMOOTH"
);
}
);
width = 223;
}
);
leftKerningGroup = c;
rightKerningGroup = c;
unicode = 00F2;
},
{
glyphname = ohungarumlaut;
lastChange = "2012-08-26 17:30:05 +0000";
layers = (
{
layerId = "38BA14EB-08C8-4487-88C1-8F957131FCA1";
name = "Regular Condensed";
paths = (
{
closed = 1;
nodes = (
"144 727 LINE",
"93 637 LINE",
"157 637 LINE",
"224 727 LINE"
);
},
{
closed = 1;
nodes = (
"252 727 LINE",
"202 637 LINE",
"266 637 LINE",
"332 727 LINE"
);
},
{
closed = 1;
nodes = (
"244 414 LINE SMOOTH",
"261 491 OFFCURVE",
"263 555 OFFCURVE",
"183 555 CURVE SMOOTH",
"109 555 OFFCURVE",
"75 487 OFFCURVE",
"59 411 CURVE SMOOTH",
"0 136 LINE SMOOTH",
"-13 68 OFFCURVE",
"-16 -8 OFFCURVE",
"62 -8 CURVE SMOOTH",
"134 -8 OFFCURVE",
"167 49 OFFCURVE",
"185 133 CURVE SMOOTH"
);
},
{
closed = 1;
nodes = (
"108 126 LINE",
"107 117 OFFCURVE",
"97 81 OFFCURVE",
"81 81 CURVE SMOOTH",
"67 81 OFFCURVE",
"67 104 OFFCURVE",
"73 126 CURVE",
"136 421 LINE SMOOTH",
"142 448 OFFCURVE",
"150 467 OFFCURVE",
"164 467 CURVE SMOOTH",
"180 467 OFFCURVE",
"177 446 OFFCURVE",
"171 421 CURVE SMOOTH"
);
}
);
width = 223;
}
);
unicode = 0151;
},
{
glyphname = omacron;
lastChange = "2012-08-26 17:30:05 +0000";
layers = (
{
layerId = "38BA14EB-08C8-4487-88C1-8F957131FCA1";
name = "Regular Condensed";
paths = (
{
closed = 1;
nodes = (
"128 642 LINE",
"262 642 LINE",
"279 721 LINE",
"145 721 LINE"
);
},
{
closed = 1;
nodes = (
"245 414 LINE SMOOTH",
"261 491 OFFCURVE",
"264 555 OFFCURVE",
"184 555 CURVE SMOOTH",
"110 555 OFFCURVE",
"75 487 OFFCURVE",
"59 411 CURVE SMOOTH",
"1 136 LINE SMOOTH",
"-13 68 OFFCURVE",
"-16 -8 OFFCURVE",
"62 -8 CURVE SMOOTH",
"134 -8 OFFCURVE",
"167 49 OFFCURVE",
"185 133 CURVE SMOOTH"
);
},
{
closed = 1;
nodes = (
"108 126 LINE",
"108 117 OFFCURVE",
"97 81 OFFCURVE",
"81 81 CURVE SMOOTH",
"67 81 OFFCURVE",
"68 104 OFFCURVE",
"73 126 CURVE SMOOTH",
"136 421 LINE SMOOTH",
"142 448 OFFCURVE",
"150 467 OFFCURVE",
"164 467 CURVE SMOOTH",
"180 467 OFFCURVE",
"177 446 OFFCURVE",
"171 421 CURVE SMOOTH"
);
}
);
width = 223;
}
);
unicode = 014D;
},
{
glyphname = oslash;
lastChange = "2012-08-26 17:30:05 +0000";
layers = (
{
anchors = (
{
name = top;
position = "{115, 547}";
}
);
layerId = "38BA14EB-08C8-4487-88C1-8F957131FCA1";
name = "Regular Condensed";
paths = (
{
closed = 1;
nodes = (
"228 550 LINE",
"219 553 OFFCURVE",
"208 555 OFFCURVE",
"195 555 CURVE SMOOTH",
"121 555 OFFCURVE",
"87 487 OFFCURVE",
"71 411 CURVE SMOOTH",
"12 136 LINE SMOOTH",
"4 96 OFFCURVE",
"0 54 OFFCURVE",
"12 26 CURVE",
"-12 -37 LINE",
"32 -37 LINE",
"45 -3 LINE",
"53 -6 OFFCURVE",
"63 -8 OFFCURVE",
"74 -8 CURVE SMOOTH",
"146 -8 OFFCURVE",
"179 49 OFFCURVE",
"197 133 CURVE SMOOTH",
"256 414 LINE SMOOTH",
"265 456 OFFCURVE",
"271 495 OFFCURVE",
"259 521 CURVE",
"286 584 LINE",
"243 584 LINE"
);
},
{
closed = 1;
nodes = (
"185 467 OFFCURVE",
"187 461 OFFCURVE",
"187 451 CURVE",
"119 283 LINE",
"148 421 LINE SMOOTH",
"154 448 OFFCURVE",
"162 467 OFFCURVE",
"176 467 CURVE SMOOTH"
);
},
{
closed = 1;
nodes = (
"88 81 OFFCURVE",
"84 84 OFFCURVE",
"82 88 CURVE",
"144 238 LINE",
"120 126 LINE",
"119 117 OFFCURVE",
"109 81 OFFCURVE",
"93 81 CURVE SMOOTH"
);
}
);
width = 229;
}
);
unicode = 00F8;
},
{
glyphname = otilde;
lastChange = "2012-08-26 17:30:05 +0000";
layers = (
{
layerId = "38BA14EB-08C8-4487-88C1-8F957131FCA1";
name = "Regular Condensed";
paths = (
{
closed = 1;
nodes = (
"244 414 LINE SMOOTH",
"260 491 OFFCURVE",
"263 555 OFFCURVE",
"183 555 CURVE SMOOTH",
"109 555 OFFCURVE",
"74 487 OFFCURVE",
"58 411 CURVE SMOOTH",
"0 136 LINE SMOOTH",
"-14 68 OFFCURVE",
"-17 -8 OFFCURVE",
"61 -8 CURVE SMOOTH",
"133 -8 OFFCURVE",
"166 49 OFFCURVE",
"184 133 CURVE SMOOTH"
);
},
{
closed = 1;
nodes = (
"107 126 LINE",
"106 117 OFFCURVE",
"96 81 OFFCURVE",
"80 81 CURVE SMOOTH",
"66 81 OFFCURVE",
"67 104 OFFCURVE",
"72 126 CURVE SMOOTH",
"135 421 LINE SMOOTH",
"141 448 OFFCURVE",
"149 467 OFFCURVE",
"163 467 CURVE SMOOTH",
"179 467 OFFCURVE",
"176 446 OFFCURVE",
"170 421 CURVE SMOOTH"
);
},
{
closed = 1;
nodes = (
"122 622 LINE",
"128 629 OFFCURVE",
"156 652 OFFCURVE",
"168 652 CURVE SMOOTH",
"188 652 OFFCURVE",
"195 633 OFFCURVE",
"218 633 CURVE SMOOTH",
"236 633 OFFCURVE",
"253 645 OFFCURVE",
"263 658 CURVE",
"281 741 LINE",
"273 731 OFFCURVE",
"248 712 OFFCURVE",
"235 712 CURVE SMOOTH",
"216 712 OFFCURVE",
"209 729 OFFCURVE",
"186 729 CURVE SMOOTH",
"171 729 OFFCURVE",
"152 721 OFFCURVE",
"140 708 CURVE"
);
}
);
width = 223;
}
);
leftKerningGroup = c;
rightKerningGroup = c;
unicode = 00F5;
},
{
glyphname = oe;
lastChange = "2012-08-26 17:30:05 +0000";
layers = (
{
anchors = (
{
name = top;
position = "{161, 547}";
}
);
layerId = "38BA14EB-08C8-4487-88C1-8F957131FCA1";
name = "Regular Condensed";
paths = (
{
closed = 1;
nodes = (
"246 196 LINE",
"233 136 LINE SMOOTH",
"229 117 OFFCURVE",
"219 81 OFFCURVE",
"203 81 CURVE SMOOTH",
"192 81 OFFCURVE",
"195 114 OFFCURVE",
"199 136 CURVE",
"225 255 LINE",
"334 255 LINE",
"368 418 LINE SMOOTH",
"382 481 OFFCURVE",
"387 555 OFFCURVE",
"303 555 CURVE SMOOTH",
"282 555 OFFCURVE",
"264 547 OFFCURVE",
"248 535 CURVE",
"237 548 OFFCURVE",
"219 555 OFFCURVE",
"193 555 CURVE SMOOTH",
"119 555 OFFCURVE",
"85 487 OFFCURVE",
"69 411 CURVE SMOOTH",
"10 136 LINE SMOOTH",
"-3 68 OFFCURVE",
"-6 -8 OFFCURVE",
"72 -8 CURVE SMOOTH",
"96 -8 OFFCURVE",
"116 -1 OFFCURVE",
"133 10 CURVE",
"142 -1 OFFCURVE",
"157 -8 OFFCURVE",
"179 -8 CURVE SMOOTH",
"256 -8 OFFCURVE",
"291 56 OFFCURVE",
"306 127 CURVE SMOOTH",
"321 196 LINE"
);
},
{
closed = 1;
nodes = (
"118 126 LINE",
"117 117 OFFCURVE",
"107 81 OFFCURVE",
"91 81 CURVE SMOOTH",
"77 81 OFFCURVE",
"78 104 OFFCURVE",
"83 126 CURVE SMOOTH",
"146 421 LINE SMOOTH",
"152 448 OFFCURVE",
"160 467 OFFCURVE",
"174 467 CURVE SMOOTH",
"190 467 OFFCURVE",
"187 446 OFFCURVE",
"181 421 CURVE SMOOTH"
);
},
{
closed = 1;
nodes = (
"258 411 LINE SMOOTH",
"261 427 OFFCURVE",
"271 467 OFFCURVE",
"284 467 CURVE SMOOTH",
"301 467 OFFCURVE",
"298 438 OFFCURVE",
"292 411 CURVE SMOOTH",
"275 334 LINE",
"241 334 LINE"
);
}
);
width = 322;
}
);
leftKerningGroup = c;
rightKerningGroup = c;
unicode = 0153;
},
{
glyphname = p;
lastChange = "2012-08-26 17:30:05 +0000";
layers = (
{
layerId = "38BA14EB-08C8-4487-88C1-8F957131FCA1";
name = "Regular Condensed";
paths = (
{
closed = 1;
nodes = (
"-44 -188 LINE",
"34 -188 LINE",
"81 32 LINE",
"86 10 OFFCURVE",
"106 -8 OFFCURVE",
"124 -8 CURVE SMOOTH",
"173 -8 OFFCURVE",
"193 60 OFFCURVE",
"202 99 CURVE SMOOTH",
"276 448 LINE SMOOTH",
"284 483 OFFCURVE",
"295 555 OFFCURVE",
"244 555 CURVE SMOOTH",
"226 555 OFFCURVE",
"196 537 OFFCURVE",
"184 519 CURVE",
"190 547 LINE",
"111 547 LINE"
);
},
{
closed = 1;
nodes = (
"165 430 LINE SMOOTH",
"169 449 OFFCURVE",
"177 467 OFFCURVE",
"188 467 CURVE SMOOTH",
"199 467 OFFCURVE",
"198 449 OFFCURVE",
"194 430 CURVE SMOOTH",
"129 120 LINE SMOOTH",
"124 98 OFFCURVE",
"118 87 OFFCURVE",
"108 87 CURVE SMOOTH",
"98 87 OFFCURVE",
"95 97 OFFCURVE",
"100 120 CURVE SMOOTH"
);
}
);
width = 231;
}
);
leftKerningGroup = m;
rightKerningGroup = b;
unicode = 0070;
},
{
glyphname = thorn;
lastChange = "2012-08-26 17:30:05 +0000";
layers = (
{
layerId = "38BA14EB-08C8-4487-88C1-8F957131FCA1";
name = "Regular Condensed";
paths = (
{
closed = 1;
nodes = (
"-54 -188 LINE",
"24 -188 LINE",
"70 30 LINE",
"72 18 OFFCURVE",
"93 -8 OFFCURVE",
"119 -8 CURVE SMOOTH",
"168 -8 OFFCURVE",
"177 60 OFFCURVE",
"187 99 CURVE",
"261 448 LINE SMOOTH",
"270 493 OFFCURVE",
"273 555 OFFCURVE",
"222 555 CURVE SMOOTH",
"208 555 OFFCURVE",
"181 537 OFFCURVE",
"175 524 CURVE",
"220 735 LINE",
"141 735 LINE"
);
},
{
closed = 1;
nodes = (
"155 431 LINE SMOOTH",
"158 447 OFFCURVE",
"167 467 OFFCURVE",
"177 467 CURVE SMOOTH",
"186 467 OFFCURVE",
"187 450 OFFCURVE",
"183 431 CURVE SMOOTH",
"118 125 LINE SMOOTH",
"114 105 OFFCURVE",
"107 87 OFFCURVE",
"96 87 CURVE SMOOTH",
"86 87 OFFCURVE",
"86 106 OFFCURVE",
"90 125 CURVE SMOOTH"
);
}
);
width = 231;
}
);
rightKerningGroup = b;
unicode = 00FE;
},
{
glyphname = q;
lastChange = "2012-08-26 17:30:05 +0000";
layers = (
{
layerId = "38BA14EB-08C8-4487-88C1-8F957131FCA1";
name = "Regular Condensed";
paths = (
{
closed = 1;
nodes = (
"297 547 LINE",
"218 547 LINE",
"212 519 LINE",
"208 537 OFFCURVE",
"186 555 OFFCURVE",
"168 555 CURVE SMOOTH",
"117 555 OFFCURVE",
"98 483 OFFCURVE",
"90 448 CURVE SMOOTH",
"16 99 LINE SMOOTH",
"9 60 OFFCURVE",
"0 -8 OFFCURVE",
"48 -8 CURVE SMOOTH",
"66 -8 OFFCURVE",
"94 10 OFFCURVE",
"109 32 CURVE",
"62 -188 LINE",
"141 -188 LINE"
);
},
{
closed = 1;
nodes = (
"128 120 LINE SMOOTH",
"123 97 OFFCURVE",
"116 87 OFFCURVE",
"106 87 CURVE SMOOTH",
"96 87 OFFCURVE",
"94 98 OFFCURVE",
"99 120 CURVE SMOOTH",
"164 430 LINE SMOOTH",
"168 449 OFFCURVE",
"175 467 OFFCURVE",
"186 467 CURVE SMOOTH",
"197 467 OFFCURVE",
"197 449 OFFCURVE",
"193 430 CURVE SMOOTH"
);
}
);
width = 231;
}
);
leftKerningGroup = d;
unicode = 0071;
},
{
glyphname = r;
lastChange = "2012-08-26 17:30:05 +0000";
layers = (
{
anchors = (
{
name = bottom;
position = "{89, 0}";
},
{
name = top;
position = "{89, 547}";
}
);
layerId = "38BA14EB-08C8-4487-88C1-8F957131FCA1";
name = "Regular Condensed";
paths = (
{
closed = 1;
nodes = (
"247 555 LINE",
"213 555 OFFCURVE",
"187 536 OFFCURVE",
"172 517 CURVE",
"178 547 LINE",
"101 547 LINE",
"-14 0 LINE",
"62 0 LINE",
"143 380 LINE SMOOTH",
"152 423 OFFCURVE",
"180 462 OFFCURVE",
"222 435 CURVE"
);
}
);
width = 178;
}
);
leftKerningGroup = m;
unicode = 0072;
},
{
glyphname = racute;
lastChange = "2012-08-26 17:30:05 +0000";
layers = (
{
layerId = "38BA14EB-08C8-4487-88C1-8F957131FCA1";
name = "Regular Condensed";
paths = (
{
closed = 1;
nodes = (
"165 727 LINE",
"115 637 LINE",
"178 637 LINE",
"245 727 LINE"
);
},
{
closed = 1;
nodes = (
"238 555 LINE",
"204 555 OFFCURVE",
"178 536 OFFCURVE",
"163 517 CURVE",
"169 547 LINE",
"92 547 LINE",
"-23 0 LINE",
"53 0 LINE",
"134 380 LINE SMOOTH",
"143 423 OFFCURVE",
"171 462 OFFCURVE",
"212 435 CURVE"
);
}
);
width = 178;
}
);
unicode = 0155;
},
{
glyphname = rcaron;
lastChange = "2012-08-26 17:30:05 +0000";
layers = (
{
layerId = "38BA14EB-08C8-4487-88C1-8F957131FCA1";
name = "Regular Condensed";
paths = (
{
closed = 1;
nodes = (
"238 555 LINE",
"204 555 OFFCURVE",
"178 536 OFFCURVE",
"163 517 CURVE",
"169 547 LINE",
"92 547 LINE",
"-23 0 LINE",
"53 0 LINE",
"134 380 LINE SMOOTH",
"143 423 OFFCURVE",
"171 462 OFFCURVE",
"212 435 CURVE"
);
},
{
closed = 1;
nodes = (
"212 637 LINE",
"272 727 LINE",
"207 727 LINE",
"182 688 LINE",
"173 727 LINE",
"108 727 LINE",
"131 637 LINE"
);
}
);
width = 178;
}
);
unicode = 0159;
},
{
glyphname = rcommaaccent;
lastChange = "2012-08-26 17:30:05 +0000";
layers = (
{
layerId = "38BA14EB-08C8-4487-88C1-8F957131FCA1";
name = "Regular Condensed";
paths = (
{
closed = 1;
nodes = (
"59 -48 LINE",
"-9 -48 LINE",
"-24 -117 LINE",
"-5 -117 LINE",
"-31 -182 LINE",
"17 -182 LINE",
"44 -117 LINE"
);
},
{
closed = 1;
nodes = (
"257 555 LINE",
"223 555 OFFCURVE",
"197 536 OFFCURVE",
"182 517 CURVE",
"188 547 LINE",
"111 547 LINE",
"-4 0 LINE",
"72 0 LINE",
"153 380 LINE SMOOTH",
"162 423 OFFCURVE",
"190 462 OFFCURVE",
"231 435 CURVE"
);
}
);
width = 178;
}
);
unicode = 0157;
},
{
glyphname = s;
lastChange = "2012-08-26 17:30:05 +0000";
layers = (
{
anchors = (
{
name = bottom;
position = "{108, 0}";
},
{
name = top;
position = "{108, 547}";
}
);
layerId = "38BA14EB-08C8-4487-88C1-8F957131FCA1";
name = "Regular Condensed";
paths = (
{
closed = 1;
nodes = (
"243 407 LINE",
"254 461 OFFCURVE",
"268 555 OFFCURVE",
"186 555 CURVE SMOOTH",
"126 555 OFFCURVE",
"88 495 OFFCURVE",
"73 425 CURVE SMOOTH",
"58 354 OFFCURVE",
"79 312 OFFCURVE",
"94 260 CURVE SMOOTH",
"105 218 OFFCURVE",
"117 177 OFFCURVE",
"110 142 CURVE SMOOTH",
"101 100 OFFCURVE",
"94 76 OFFCURVE",
"80 76 CURVE SMOOTH",
"66 76 OFFCURVE",
"71 124 OFFCURVE",
"78 159 CURVE",
"6 159 LINE",
"-8 85 OFFCURVE",
"-22 -8 OFFCURVE",
"62 -8 CURVE SMOOTH",
"140 -8 OFFCURVE",
"171 77 OFFCURVE",
"181 124 CURVE SMOOTH",
"197 202 OFFCURVE",
"176 262 OFFCURVE",
"159 305 CURVE",
"150 334 OFFCURVE",
"135 371 OFFCURVE",
"144 414 CURVE SMOOTH",
"149 435 OFFCURVE",
"158 471 OFFCURVE",
"171 471 CURVE SMOOTH",
"186 471 OFFCURVE",
"179 424 OFFCURVE",
"175 407 CURVE"
);
}
);
width = 215;
}
);
leftKerningGroup = s;
unicode = 0073;
},
{
glyphname = sacute;
lastChange = "2012-08-26 17:30:05 +0000";
layers = (
{
layerId = "38BA14EB-08C8-4487-88C1-8F957131FCA1";
name = "Regular Condensed";
paths = (
{
closed = 1;
nodes = (
"184 727 LINE",
"134 637 LINE",
"198 637 LINE",
"264 727 LINE"
);
},
{
closed = 1;
nodes = (
"234 407 LINE",
"245 461 OFFCURVE",
"259 555 OFFCURVE",
"177 555 CURVE SMOOTH",
"117 555 OFFCURVE",
"79 495 OFFCURVE",
"64 425 CURVE SMOOTH",
"49 354 OFFCURVE",
"70 312 OFFCURVE",
"85 260 CURVE SMOOTH",
"96 218 OFFCURVE",
"108 177 OFFCURVE",
"101 142 CURVE SMOOTH",
"92 100 OFFCURVE",
"85 76 OFFCURVE",
"71 76 CURVE SMOOTH",
"57 76 OFFCURVE",
"62 124 OFFCURVE",
"69 159 CURVE",
"-2 159 LINE",
"-18 85 OFFCURVE",
"-31 -8 OFFCURVE",
"53 -8 CURVE SMOOTH",
"131 -8 OFFCURVE",
"162 77 OFFCURVE",
"172 124 CURVE SMOOTH",
"188 202 OFFCURVE",
"167 262 OFFCURVE",
"150 305 CURVE",
"141 334 OFFCURVE",
"126 371 OFFCURVE",
"135 414 CURVE SMOOTH",
"140 435 OFFCURVE",
"148 471 OFFCURVE",
"161 471 CURVE SMOOTH",
"176 471 OFFCURVE",
"169 424 OFFCURVE",
"166 407 CURVE"
);
}
);
width = 215;
}
);
unicode = 015B;
},
{
glyphname = scaron;
lastChange = "2012-08-26 17:30:05 +0000";
layers = (
{
layerId = "38BA14EB-08C8-4487-88C1-8F957131FCA1";
name = "Regular Condensed";
paths = (
{
closed = 1;
nodes = (
"234 407 LINE",
"245 461 OFFCURVE",
"259 555 OFFCURVE",
"177 555 CURVE SMOOTH",
"117 555 OFFCURVE",
"79 495 OFFCURVE",
"64 425 CURVE SMOOTH",
"49 354 OFFCURVE",
"70 312 OFFCURVE",
"85 260 CURVE SMOOTH",
"96 218 OFFCURVE",
"108 177 OFFCURVE",
"101 142 CURVE SMOOTH",
"92 100 OFFCURVE",
"85 76 OFFCURVE",
"71 76 CURVE SMOOTH",
"57 76 OFFCURVE",
"62 124 OFFCURVE",
"69 159 CURVE",
"-2 159 LINE",
"-18 85 OFFCURVE",
"-31 -8 OFFCURVE",
"53 -8 CURVE SMOOTH",
"131 -8 OFFCURVE",
"162 77 OFFCURVE",
"172 124 CURVE SMOOTH",
"188 202 OFFCURVE",
"167 262 OFFCURVE",
"150 305 CURVE",
"141 334 OFFCURVE",
"126 371 OFFCURVE",
"135 414 CURVE SMOOTH",
"140 435 OFFCURVE",
"148 471 OFFCURVE",
"161 471 CURVE SMOOTH",
"176 471 OFFCURVE",
"169 424 OFFCURVE",
"166 407 CURVE"
);
},
{
closed = 1;
nodes = (
"229 637 LINE",
"289 727 LINE",
"224 727 LINE",
"199 688 LINE",
"190 727 LINE",
"125 727 LINE",
"148 637 LINE"
);
}
);
width = 215;
}
);
leftKerningGroup = s;
unicode = 0161;
},
{
glyphname = scedilla;
lastChange = "2012-08-26 17:30:05 +0000";
layers = (
{
layerId = "38BA14EB-08C8-4487-88C1-8F957131FCA1";
name = "Regular Condensed";
paths = (
{
closed = 1;
nodes = (
"96 -54 LINE",
"28 -54 LINE",
"13 -123 LINE",
"31 -123 LINE",
"5 -188 LINE",
"54 -188 LINE",
"81 -123 LINE"
);
},
{
closed = 1;
nodes = (
"253 407 LINE",
"264 461 OFFCURVE",
"278 555 OFFCURVE",
"196 555 CURVE SMOOTH",
"136 555 OFFCURVE",
"97 495 OFFCURVE",
"82 425 CURVE SMOOTH",
"67 354 OFFCURVE",
"88 312 OFFCURVE",
"103 260 CURVE SMOOTH",
"114 218 OFFCURVE",
"127 177 OFFCURVE",
"119 142 CURVE SMOOTH",
"110 100 OFFCURVE",
"103 76 OFFCURVE",
"89 76 CURVE SMOOTH",
"75 76 OFFCURVE",
"80 124 OFFCURVE",
"88 159 CURVE",
"16 159 LINE",
"0 85 OFFCURVE",
"-13 -8 OFFCURVE",
"71 -8 CURVE SMOOTH",
"149 -8 OFFCURVE",
"180 77 OFFCURVE",
"190 124 CURVE SMOOTH",
"207 202 OFFCURVE",
"186 262 OFFCURVE",
"169 305 CURVE",
"160 334 OFFCURVE",
"145 371 OFFCURVE",
"154 414 CURVE SMOOTH",
"159 435 OFFCURVE",
"167 471 OFFCURVE",
"180 471 CURVE SMOOTH",
"195 471 OFFCURVE",
"188 424 OFFCURVE",
"185 407 CURVE"
);
}
);
width = 215;
}
);
unicode = 015F;
},
{
glyphname = scircumflex;
lastChange = "2012-08-26 17:30:05 +0000";
layers = (
{
layerId = "38BA14EB-08C8-4487-88C1-8F957131FCA1";
name = "Regular Condensed";
paths = (
{
closed = 1;
nodes = (
"170 727 LINE",
"109 637 LINE",
"174 637 LINE",
"199 676 LINE",
"208 637 LINE",
"273 637 LINE",
"251 727 LINE"
);
},
{
closed = 1;
nodes = (
"234 407 LINE",
"245 461 OFFCURVE",
"259 555 OFFCURVE",
"177 555 CURVE SMOOTH",
"117 555 OFFCURVE",
"79 495 OFFCURVE",
"64 425 CURVE SMOOTH",
"49 354 OFFCURVE",
"70 312 OFFCURVE",
"85 260 CURVE SMOOTH",
"96 218 OFFCURVE",
"108 177 OFFCURVE",
"101 142 CURVE SMOOTH",
"92 100 OFFCURVE",
"85 76 OFFCURVE",
"71 76 CURVE SMOOTH",
"57 76 OFFCURVE",
"62 124 OFFCURVE",
"69 159 CURVE",
"-2 159 LINE",
"-18 85 OFFCURVE",
"-31 -8 OFFCURVE",
"53 -8 CURVE SMOOTH",
"131 -8 OFFCURVE",
"162 77 OFFCURVE",
"172 124 CURVE SMOOTH",
"188 202 OFFCURVE",
"167 262 OFFCURVE",
"150 305 CURVE",
"141 334 OFFCURVE",
"126 371 OFFCURVE",
"135 414 CURVE SMOOTH",
"140 435 OFFCURVE",
"148 471 OFFCURVE",
"161 471 CURVE SMOOTH",
"176 471 OFFCURVE",
"169 424 OFFCURVE",
"166 407 CURVE"
);
}
);
width = 215;
}
);
unicode = 015D;
},
{
glyphname = germandbls;
lastChange = "2012-08-26 17:30:05 +0000";
layers = (
{
layerId = "38BA14EB-08C8-4487-88C1-8F957131FCA1";
name = "Regular Condensed";
paths = (
{
closed = 1;
nodes = (
"171 478 LINE",
"183 478 OFFCURVE",
"192 471 OFFCURVE",
"192 443 CURVE SMOOTH",
"192 415 OFFCURVE",
"185 366 OFFCURVE",
"167 281 CURVE SMOOTH",
"150 201 OFFCURVE",
"137 154 OFFCURVE",
"125 127 CURVE SMOOTH",
"113 100 OFFCURVE",
"101 94 OFFCURVE",
"89 94 CURVE",
"69 0 LINE",
"112 0 OFFCURVE",
"145 9 OFFCURVE",
"170 49 CURVE SMOOTH",
"196 89 OFFCURVE",
"219 160 OFFCURVE",
"245 281 CURVE SMOOTH",
"260 354 OFFCURVE",
"268 408 OFFCURVE",
"268 446 CURVE SMOOTH",
"268 478 OFFCURVE",
"260 503 OFFCURVE",
"248 519 CURVE",
"271 541 OFFCURVE",
"288 571 OFFCURVE",
"295 604 CURVE SMOOTH",
"309 667 OFFCURVE",
"304 743 OFFCURVE",
"226 743 CURVE SMOOTH",
"155 743 OFFCURVE",
"110 674 OFFCURVE",
"95 603 CURVE SMOOTH",
"-32 0 LINE",
"46 0 LINE",
"174 603 LINE SMOOTH",
"181 633 OFFCURVE",
"192 653 OFFCURVE",
"207 653 CURVE SMOOTH",
"224 653 OFFCURVE",
"229 631 OFFCURVE",
"223 604 CURVE SMOOTH",
"216 569 OFFCURVE",
"199 547 OFFCURVE",
"185 547 CURVE"
);
}
);
width = 251;
}
);
unicode = 00DF;
},
{
glyphname = longs;
lastChange = "2012-08-26 17:30:05 +0000";
layers = (
{
layerId = "38BA14EB-08C8-4487-88C1-8F957131FCA1";
name = "Regular Condensed";
paths = (
{
closed = 1;
nodes = (
"27 0 LINE",
"147 565 LINE SMOOTH",
"160 628 OFFCURVE",
"172 645 OFFCURVE",
"195 645 CURVE SMOOTH",
"204 645 OFFCURVE",
"214 643 OFFCURVE",
"227 637 CURVE",
"252 717 LINE",
"234 724 OFFCURVE",
"217 727 OFFCURVE",
"202 727 CURVE SMOOTH",
"151 727 OFFCURVE",
"110 694 OFFCURVE",
"85 573 CURVE SMOOTH",
"-36 0 LINE"
);
}
);
width = 169;
}
);
unicode = 017F;
},
{
glyphname = t;
lastChange = "2012-08-26 17:30:05 +0000";
layers = (
{
anchors = (
{
name = bottom;
position = "{88, 0}";
},
{
name = center;
position = "{88, 274}";
}
);
layerId = "38BA14EB-08C8-4487-88C1-8F957131FCA1";
name = "Regular Condensed";
paths = (
{
closed = 1;
nodes = (
"143 682 LINE",
"115 547 LINE",
"82 547 LINE",
"62 456 LINE",
"95 456 LINE",
"-1 0 LINE",
"75 0 LINE",
"172 456 LINE",
"214 456 LINE",
"234 547 LINE",
"192 547 LINE",
"220 682 LINE"
);
}
);
width = 175;
}
);
unicode = 0074;
},
{
glyphname = tbar;
lastChange = "2012-08-26 17:30:05 +0000";
layers = (
{
layerId = "38BA14EB-08C8-4487-88C1-8F957131FCA1";
name = "Regular Condensed";
paths = (
{
closed = 1;
nodes = (
"210 642 LINE",
"240 642 LINE",
"256 721 LINE",
"121 721 LINE",
"105 642 LINE",
"133 642 LINE",
"113 547 LINE",
"80 547 LINE",
"60 456 LINE",
"93 456 LINE",
"-3 0 LINE",
"73 0 LINE",
"170 456 LINE",
"212 456 LINE",
"232 547 LINE",
"190 547 LINE",
"210 642 LINE",
"133 642 LINE"
);
}
);
width = 177;
}
);
unicode = 0167;
},
{
glyphname = tcaron;
lastChange = "2012-08-26 17:30:05 +0000";
layers = (
{
layerId = "38BA14EB-08C8-4487-88C1-8F957131FCA1";
name = "Regular Condensed";
paths = (
{
closed = 1;
nodes = (
"376 735 LINE",
"295 735 LINE",
"271 624 LINE",
"296 624 LINE",
"243 494 LINE",
"291 494 LINE",
"352 624 LINE"
);
},
{
closed = 1;
nodes = (
"140 682 LINE",
"112 547 LINE",
"79 547 LINE",
"59 456 LINE",
"92 456 LINE",
"-4 0 LINE",
"72 0 LINE",
"169 456 LINE",
"211 456 LINE",
"231 547 LINE",
"189 547 LINE",
"217 682 LINE"
);
}
);
width = 281;
}
);
unicode = 0165;
},
{
glyphname = uni021B;
lastChange = "2012-08-26 17:30:05 +0000";
layers = (
{
layerId = "38BA14EB-08C8-4487-88C1-8F957131FCA1";
name = "Regular Condensed";
paths = (
{
closed = 1;
nodes = (
"100 -54 LINE",
"32 -54 LINE",
"17 -123 LINE",
"35 -123 LINE",
"9 -188 LINE",
"58 -188 LINE",
"85 -123 LINE"
);
},
{
closed = 1;
nodes = (
"153 682 LINE",
"125 547 LINE",
"92 547 LINE",
"72 456 LINE",
"105 456 LINE",
"8 0 LINE",
"85 0 LINE",
"182 456 LINE",
"224 456 LINE",
"244 547 LINE",
"202 547 LINE",
"230 682 LINE"
);
}
);
width = 177;
}
);
unicode = 021B;
},
{
glyphname = u;
lastChange = "2012-08-26 17:30:05 +0000";
layers = (
{
anchors = (
{
name = ogonek;
position = "{209, 10}";
},
{
name = top;
position = "{116, 547}";
}
);
layerId = "38BA14EB-08C8-4487-88C1-8F957131FCA1";
name = "Regular Condensed";
paths = (
{
closed = 1;
nodes = (
"114 116 LINE SMOOTH",
"109 95 OFFCURVE",
"102 80 OFFCURVE",
"92 80 CURVE SMOOTH",
"82 80 OFFCURVE",
"80 94 OFFCURVE",
"84 115 CURVE SMOOTH",
"176 547 LINE",
"98 547 LINE",
"3 99 LINE SMOOTH",
"-3 66 OFFCURVE",
"-15 -8 OFFCURVE",
"34 -8 CURVE SMOOTH",
"51 -8 OFFCURVE",
"82 13 OFFCURVE",
"95 28 CURVE",
"89 0 LINE",
"168 0 LINE",
"284 547 LINE",
"205 547 LINE"
);
}
);
width = 232;
}
);
rightKerningGroup = u;
unicode = 0075;
},
{
glyphname = uacute;
lastChange = "2012-08-26 17:30:05 +0000";
layers = (
{
layerId = "38BA14EB-08C8-4487-88C1-8F957131FCA1";
name = "Regular Condensed";
paths = (
{
closed = 1;
nodes = (
"219 727 LINE",
"168 637 LINE",
"232 637 LINE",
"299 727 LINE"
);
},
{
closed = 1;
nodes = (
"104 116 LINE SMOOTH",
"100 95 OFFCURVE",
"92 80 OFFCURVE",
"82 80 CURVE SMOOTH",
"72 80 OFFCURVE",
"70 94 OFFCURVE",
"75 115 CURVE SMOOTH",
"167 547 LINE",
"89 547 LINE",
"-6 99 LINE SMOOTH",
"-13 66 OFFCURVE",
"-24 -8 OFFCURVE",
"25 -8 CURVE SMOOTH",
"42 -8 OFFCURVE",
"72 13 OFFCURVE",
"85 28 CURVE",
"79 0 LINE",
"158 0 LINE",
"275 547 LINE",
"196 547 LINE"
);
}
);
width = 232;
}
);
rightKerningGroup = u;
unicode = 00FA;
},
{
glyphname = ubreve;
lastChange = "2012-08-26 17:30:05 +0000";
layers = (
{
layerId = "38BA14EB-08C8-4487-88C1-8F957131FCA1";
name = "Regular Condensed";
paths = (
{
closed = 1;
nodes = (
"103 116 LINE SMOOTH",
"99 95 OFFCURVE",
"92 80 OFFCURVE",
"82 80 CURVE SMOOTH",
"72 80 OFFCURVE",
"70 94 OFFCURVE",
"74 115 CURVE SMOOTH",
"166 547 LINE",
"88 547 LINE",
"-6 99 LINE SMOOTH",
"-13 66 OFFCURVE",
"-25 -8 OFFCURVE",
"24 -8 CURVE SMOOTH",
"41 -8 OFFCURVE",
"71 13 OFFCURVE",
"85 28 CURVE",
"79 0 LINE",
"158 0 LINE",
"274 547 LINE",
"195 547 LINE"
);
},
{
closed = 1;
nodes = (
"255 740 LINE",
"255 740 OFFCURVE",
"229 709 OFFCURVE",
"213 709 CURVE SMOOTH",
"195 709 OFFCURVE",
"187 741 OFFCURVE",
"187 741 CURVE",
"134 684 LINE",
"141 658 OFFCURVE",
"167 636 OFFCURVE",
"198 636 CURVE SMOOTH",
"229 636 OFFCURVE",
"258 656 OFFCURVE",
"282 684 CURVE"
);
}
);
width = 232;
}
);
unicode = 016D;
},
{
glyphname = ucircumflex;
lastChange = "2012-08-26 17:30:05 +0000";
layers = (
{
layerId = "38BA14EB-08C8-4487-88C1-8F957131FCA1";
name = "Regular Condensed";
paths = (
{
closed = 1;
nodes = (
"104 116 LINE SMOOTH",
"100 95 OFFCURVE",
"92 80 OFFCURVE",
"82 80 CURVE SMOOTH",
"72 80 OFFCURVE",
"70 94 OFFCURVE",
"75 115 CURVE SMOOTH",
"167 547 LINE",
"89 547 LINE",
"-6 99 LINE SMOOTH",
"-13 66 OFFCURVE",
"-24 -8 OFFCURVE",
"25 -8 CURVE SMOOTH",
"42 -8 OFFCURVE",
"72 13 OFFCURVE",
"85 28 CURVE",
"79 0 LINE",
"158 0 LINE",
"275 547 LINE",
"196 547 LINE"
);
},
{
closed = 1;
nodes = (
"178 727 LINE",
"117 637 LINE",
"182 637 LINE",
"207 676 LINE",
"216 637 LINE",
"281 637 LINE",
"259 727 LINE"
);
}
);
width = 232;
}
);
rightKerningGroup = u;
unicode = 00FB;
},
{
glyphname = udieresis;
lastChange = "2012-08-26 17:30:05 +0000";
layers = (
{
layerId = "38BA14EB-08C8-4487-88C1-8F957131FCA1";
name = "Regular Condensed";
paths = (
{
closed = 1;
nodes = (
"104 116 LINE SMOOTH",
"99 95 OFFCURVE",
"92 80 OFFCURVE",
"82 80 CURVE SMOOTH",
"72 80 OFFCURVE",
"70 94 OFFCURVE",
"74 115 CURVE SMOOTH",
"166 547 LINE",
"88 547 LINE",
"-6 99 LINE SMOOTH",
"-13 66 OFFCURVE",
"-25 -8 OFFCURVE",
"24 -8 CURVE SMOOTH",
"41 -8 OFFCURVE",
"72 13 OFFCURVE",
"85 28 CURVE",
"79 0 LINE",
"158 0 LINE",
"274 547 LINE",
"195 547 LINE"
);
},
{
closed = 1;
nodes = (
"113 637 LINE",
"187 637 LINE",
"208 735 LINE",
"134 735 LINE"
);
},
{
closed = 1;
nodes = (
"210 637 LINE",
"283 637 LINE",
"304 735 LINE",
"231 735 LINE"
);
}
);
width = 232;
}
);
rightKerningGroup = u;
unicode = 00FC;
},
{
glyphname = ugrave;
lastChange = "2012-08-26 17:30:05 +0000";
layers = (
{
layerId = "38BA14EB-08C8-4487-88C1-8F957131FCA1";
name = "Regular Condensed";
paths = (
{
closed = 1;
nodes = (
"141 727 LINE",
"169 637 LINE",
"233 637 LINE",
"221 727 LINE"
);
},
{
closed = 1;
nodes = (
"104 116 LINE SMOOTH",
"100 95 OFFCURVE",
"92 80 OFFCURVE",
"82 80 CURVE SMOOTH",
"72 80 OFFCURVE",
"70 94 OFFCURVE",
"75 115 CURVE SMOOTH",
"167 547 LINE",
"89 547 LINE",
"-6 99 LINE SMOOTH",
"-13 66 OFFCURVE",
"-24 -8 OFFCURVE",
"25 -8 CURVE SMOOTH",
"42 -8 OFFCURVE",
"72 13 OFFCURVE",
"85 28 CURVE",
"79 0 LINE",
"158 0 LINE",
"275 547 LINE",
"196 547 LINE"
);
}
);
width = 232;
}
);
rightKerningGroup = u;
unicode = 00F9;
},
{
glyphname = uhungarumlaut;
lastChange = "2012-08-26 17:30:05 +0000";
layers = (
{
layerId = "38BA14EB-08C8-4487-88C1-8F957131FCA1";
name = "Regular Condensed";
paths = (
{
closed = 1;
nodes = (
"148 727 LINE",
"98 637 LINE",
"162 637 LINE",
"228 727 LINE"
);
},
{
closed = 1;
nodes = (
"257 727 LINE",
"207 637 LINE",
"271 637 LINE",
"337 727 LINE"
);
},
{
closed = 1;
nodes = (
"104 116 LINE SMOOTH",
"100 95 OFFCURVE",
"92 80 OFFCURVE",
"82 80 CURVE SMOOTH",
"72 80 OFFCURVE",
"70 94 OFFCURVE",
"75 115 CURVE SMOOTH",
"167 547 LINE",
"89 547 LINE",
"-6 99 LINE SMOOTH",
"-13 66 OFFCURVE",
"-24 -8 OFFCURVE",
"25 -8 CURVE SMOOTH",
"42 -8 OFFCURVE",
"72 13 OFFCURVE",
"85 28 CURVE",
"79 0 LINE",
"158 0 LINE",
"275 547 LINE",
"196 547 LINE"
);
}
);
width = 232;
}
);
unicode = 0171;
},
{
glyphname = umacron;
lastChange = "2012-08-26 17:30:05 +0000";
layers = (
{
layerId = "38BA14EB-08C8-4487-88C1-8F957131FCA1";
name = "Regular Condensed";
paths = (
{
closed = 1;
nodes = (
"133 642 LINE",
"267 642 LINE",
"284 721 LINE",
"150 721 LINE"
);
},
{
closed = 1;
nodes = (
"104 116 LINE SMOOTH",
"100 95 OFFCURVE",
"93 80 OFFCURVE",
"83 80 CURVE SMOOTH",
"73 80 OFFCURVE",
"71 94 OFFCURVE",
"75 115 CURVE SMOOTH",
"167 547 LINE",
"89 547 LINE",
"-5 99 LINE SMOOTH",
"-12 66 OFFCURVE",
"-24 -8 OFFCURVE",
"25 -8 CURVE SMOOTH",
"42 -8 OFFCURVE",
"72 13 OFFCURVE",
"86 28 CURVE",
"80 0 LINE",
"159 0 LINE",
"275 547 LINE",
"196 547 LINE"
);
}
);
width = 232;
}
);
unicode = 016B;
},
{
glyphname = uogonek;
lastChange = "2012-08-26 17:30:05 +0000";
layers = (
{
layerId = "38BA14EB-08C8-4487-88C1-8F957131FCA1";
name = "Regular Condensed";
paths = (
{
closed = 1;
nodes = (
"123 116 LINE SMOOTH",
"119 95 OFFCURVE",
"111 80 OFFCURVE",
"101 80 CURVE SMOOTH",
"91 80 OFFCURVE",
"89 94 OFFCURVE",
"94 115 CURVE SMOOTH",
"186 547 LINE",
"108 547 LINE",
"13 99 LINE SMOOTH",
"6 66 OFFCURVE",
"-5 -8 OFFCURVE",
"44 -8 CURVE SMOOTH",
"61 -8 OFFCURVE",
"91 13 OFFCURVE",
"104 28 CURVE",
"98 0 LINE",
"105 0 LINE",
"94 -11 OFFCURVE",
"85 -22 OFFCURVE",
"80 -28 CURVE",
"79 -29 OFFCURVE",
"78 -30 OFFCURVE",
"77 -31 CURVE",
"63 -50 OFFCURVE",
"45 -80 OFFCURVE",
"41 -103 CURVE",
"31 -148 OFFCURVE",
"48 -188 OFFCURVE",
"93 -188 CURVE SMOOTH",
"107 -188 OFFCURVE",
"117 -185 OFFCURVE",
"135 -176 CURVE",
"156 -101 LINE",
"139 -112 OFFCURVE",
"123 -121 OFFCURVE",
"118 -121 CURVE SMOOTH",
"108 -121 OFFCURVE",
"99 -112 OFFCURVE",
"105 -83 CURVE",
"107 -71 OFFCURVE",
"111 -60 OFFCURVE",
"116 -50 CURVE SMOOTH",
"127 -28 OFFCURVE",
"137 -11 OFFCURVE",
"147 0 CURVE",
"177 0 LINE",
"294 547 LINE",
"215 547 LINE"
);
}
);
width = 232;
}
);
unicode = 0173;
},
{
glyphname = uring;
lastChange = "2012-08-26 17:30:05 +0000";
layers = (
{
layerId = "38BA14EB-08C8-4487-88C1-8F957131FCA1";
name = "Regular Condensed";
paths = (
{
closed = 1;
nodes = (
"146 653 OFFCURVE",
"164 624 OFFCURVE",
"194 624 CURVE SMOOTH",
"224 624 OFFCURVE",
"253 653 OFFCURVE",
"262 694 CURVE SMOOTH",
"271 735 OFFCURVE",
"254 764 OFFCURVE",
"224 764 CURVE SMOOTH",
"194 764 OFFCURVE",
"164 735 OFFCURVE",
"155 694 CURVE SMOOTH"
);
},
{
closed = 1;
nodes = (
"200 713 OFFCURVE",
"209 729 OFFCURVE",
"216 729 CURVE SMOOTH",
"222 729 OFFCURVE",
"226 713 OFFCURVE",
"222 694 CURVE SMOOTH",
"218 675 OFFCURVE",
"207 659 OFFCURVE",
"201 659 CURVE SMOOTH",
"194 659 OFFCURVE",
"192 675 OFFCURVE",
"196 694 CURVE SMOOTH"
);
},
{
closed = 1;
nodes = (
"102 116 LINE SMOOTH",
"98 95 OFFCURVE",
"90 80 OFFCURVE",
"80 80 CURVE SMOOTH",
"70 80 OFFCURVE",
"68 94 OFFCURVE",
"73 115 CURVE SMOOTH",
"165 547 LINE",
"87 547 LINE",
"-8 99 LINE SMOOTH",
"-15 66 OFFCURVE",
"-26 -8 OFFCURVE",
"23 -8 CURVE SMOOTH",
"40 -8 OFFCURVE",
"70 13 OFFCURVE",
"83 28 CURVE",
"77 0 LINE",
"156 0 LINE",
"273 547 LINE",
"194 547 LINE"
);
}
);
width = 232;
}
);
unicode = 016F;
},
{
glyphname = utilde;
lastChange = "2012-08-26 17:30:05 +0000";
layers = (
{
layerId = "38BA14EB-08C8-4487-88C1-8F957131FCA1";
name = "Regular Condensed";
paths = (
{
closed = 1;
nodes = (
"103 116 LINE SMOOTH",
"99 95 OFFCURVE",
"92 80 OFFCURVE",
"82 80 CURVE SMOOTH",
"72 80 OFFCURVE",
"69 94 OFFCURVE",
"74 115 CURVE SMOOTH",
"166 547 LINE",
"88 547 LINE",
"-6 99 LINE SMOOTH",
"-13 66 OFFCURVE",
"-25 -8 OFFCURVE",
"24 -8 CURVE SMOOTH",
"41 -8 OFFCURVE",
"71 13 OFFCURVE",
"84 28 CURVE",
"78 0 LINE",
"157 0 LINE",
"274 547 LINE",
"195 547 LINE"
);
},
{
closed = 1;
nodes = (
"126 623 LINE",
"132 630 OFFCURVE",
"160 653 OFFCURVE",
"172 653 CURVE SMOOTH",
"192 653 OFFCURVE",
"199 634 OFFCURVE",
"222 634 CURVE SMOOTH",
"240 634 OFFCURVE",
"257 646 OFFCURVE",
"268 659 CURVE",
"285 742 LINE",
"277 732 OFFCURVE",
"252 713 OFFCURVE",
"239 713 CURVE SMOOTH",
"220 713 OFFCURVE",
"213 730 OFFCURVE",
"190 730 CURVE SMOOTH",
"175 730 OFFCURVE",
"156 722 OFFCURVE",
"144 709 CURVE"
);
}
);
width = 232;
}
);
unicode = 0169;
},
{
glyphname = v;
lastChange = "2012-08-26 17:30:05 +0000";
layers = (
{
layerId = "38BA14EB-08C8-4487-88C1-8F957131FCA1";
name = "Regular Condensed";
paths = (
{
closed = 1;
nodes = (
"102 0 LINE",
"278 547 LINE",
"204 547 LINE",
"112 226 LINE",
"157 547 LINE",
"83 547 LINE",
"24 0 LINE"
);
}
);
width = 206;
}
);
leftKerningGroup = v;
rightKerningGroup = v;
unicode = 0076;
},
{
glyphname = w;
lastChange = "2012-08-26 17:30:05 +0000";
layers = (
{
anchors = (
{
name = top;
position = "{148, 547}";
}
);
layerId = "38BA14EB-08C8-4487-88C1-8F957131FCA1";
name = "Regular Condensed";
paths = (
{
closed = 1;
nodes = (
"190 0 LINE",
"355 547 LINE",
"284 547 LINE",
"211 296 LINE",
"244 547 LINE",
"196 547 LINE",
"120 296 LINE",
"155 547 LINE",
"84 547 LINE",
"16 0 LINE",
"80 0 LINE",
"158 260 LINE",
"125 0 LINE"
);
}
);
width = 295;
}
);
leftKerningGroup = v;
rightKerningGroup = v;
unicode = 0077;
},
{
glyphname = wcircumflex;
lastChange = "2012-08-26 17:30:05 +0000";
layers = (
{
layerId = "38BA14EB-08C8-4487-88C1-8F957131FCA1";
name = "Regular Condensed";
paths = (
{
closed = 1;
nodes = (
"206 727 LINE",
"145 637 LINE",
"210 637 LINE",
"236 676 LINE",
"244 637 LINE",
"309 637 LINE",
"287 727 LINE"
);
},
{
closed = 1;
nodes = (
"181 0 LINE",
"345 547 LINE",
"274 547 LINE",
"202 296 LINE",
"234 547 LINE",
"186 547 LINE",
"111 296 LINE",
"145 547 LINE",
"74 547 LINE",
"7 0 LINE",
"71 0 LINE",
"148 260 LINE",
"116 0 LINE"
);
}
);
width = 295;
}
);
unicode = 0175;
},
{
glyphname = x;
lastChange = "2012-08-26 17:30:05 +0000";
layers = (
{
layerId = "38BA14EB-08C8-4487-88C1-8F957131FCA1";
name = "Regular Condensed";
paths = (
{
closed = 1;
nodes = (
"-23 0 LINE",
"50 0 LINE",
"63 33 OFFCURVE",
"89 115 OFFCURVE",
"102 148 CURVE",
"92 0 LINE",
"165 0 LINE",
"169 282 LINE",
"288 547 LINE",
"214 547 LINE",
"158 410 LINE",
"162 547 LINE",
"88 547 LINE",
"92 282 LINE"
);
}
);
width = 217;
}
);
unicode = 0078;
},
{
glyphname = y;
lastChange = "2012-08-26 17:30:05 +0000";
layers = (
{
anchors = (
{
name = top;
position = "{114, 547}";
}
);
layerId = "38BA14EB-08C8-4487-88C1-8F957131FCA1";
name = "Regular Condensed";
paths = (
{
closed = 1;
nodes = (
"-48 -193 LINE",
"-13 -208 OFFCURVE",
"30 -190 OFFCURVE",
"62 -147 CURVE SMOOTH",
"84 -119 OFFCURVE",
"102 -77 OFFCURVE",
"112 -41 CURVE",
"305 547 LINE",
"227 547 LINE",
"207 473 OFFCURVE",
"154 299 OFFCURVE",
"133 224 CURVE",
"172 547 LINE",
"95 547 LINE",
"42 -16 LINE",
"36 -41 OFFCURVE",
"27 -75 OFFCURVE",
"6 -99 CURVE SMOOTH",
"-3 -109 OFFCURVE",
"-15 -110 OFFCURVE",
"-29 -104 CURVE"
);
}
);
width = 228;
}
);
leftKerningGroup = v;
rightKerningGroup = v;
unicode = 0079;
},
{
glyphname = yacute;
lastChange = "2012-08-26 17:30:05 +0000";
layers = (
{
layerId = "38BA14EB-08C8-4487-88C1-8F957131FCA1";
name = "Regular Condensed";
paths = (
{
closed = 1;
nodes = (
"221 727 LINE",
"171 637 LINE",
"235 637 LINE",
"301 727 LINE"
);
},
{
closed = 1;
nodes = (
"-58 -193 LINE",
"-23 -208 OFFCURVE",
"20 -190 OFFCURVE",
"52 -147 CURVE SMOOTH",
"74 -119 OFFCURVE",
"92 -77 OFFCURVE",
"103 -41 CURVE SMOOTH",
"296 547 LINE",
"218 547 LINE",
"197 473 OFFCURVE",
"144 299 OFFCURVE",
"123 224 CURVE",
"163 547 LINE",
"86 547 LINE",
"32 -16 LINE",
"27 -41 OFFCURVE",
"18 -75 OFFCURVE",
"-3 -99 CURVE",
"-13 -109 OFFCURVE",
"-25 -110 OFFCURVE",
"-39 -104 CURVE"
);
}
);
width = 226;
}
);
leftKerningGroup = v;
rightKerningGroup = v;
unicode = 00FD;
},
{
glyphname = ycircumflex;
lastChange = "2012-08-26 17:30:05 +0000";
layers = (
{
layerId = "38BA14EB-08C8-4487-88C1-8F957131FCA1";
name = "Regular Condensed";
paths = (
{
closed = 1;
nodes = (
"190 727 LINE",
"129 637 LINE",
"194 637 LINE",
"219 676 LINE",
"228 637 LINE",
"293 637 LINE",
"271 727 LINE"
);
},
{
closed = 1;
nodes = (
"-58 -193 LINE",
"-23 -208 OFFCURVE",
"20 -190 OFFCURVE",
"52 -147 CURVE SMOOTH",
"74 -119 OFFCURVE",
"92 -77 OFFCURVE",
"103 -41 CURVE SMOOTH",
"296 547 LINE",
"218 547 LINE",
"197 473 OFFCURVE",
"144 299 OFFCURVE",
"123 224 CURVE",
"163 547 LINE",
"86 547 LINE",
"32 -16 LINE",
"27 -41 OFFCURVE",
"18 -75 OFFCURVE",
"-3 -99 CURVE",
"-13 -109 OFFCURVE",
"-25 -110 OFFCURVE",
"-39 -104 CURVE"
);
}
);
width = 216;
}
);
unicode = 0177;
},
